<svg width="434" height="416" viewBox="0 0 434 416" fill="none" xmlns="http://www.w3.org/2000/svg">
<rect x="155" y="170" width="266" height="91" fill="#85B87D"/>
<rect x="155" y="44" width="266" height="91" fill="#FD3B3B"/>
<rect x="155" y="296" width="266" height="91" fill="#86B6FF"/>
<line x1="111" y1="28" x2="111" y2="393" stroke="url(#paint0_angular_0_1)" stroke-width="2"/>
<circle cx="110" cy="89" r="9.5" fill="white" stroke="black"/>
<circle cx="110" cy="216" r="9.5" fill="white" stroke="black"/>
<circle cx="110" cy="342" r="9.5" fill="white" stroke="black"/>
<path opacity="0.9" d="M224.484 72.5781H227.719C229.146 72.5781 230.219 72.7917 230.938 73.2188C231.656 73.6458 232.016 74.3724 232.016 75.3984C232.016 75.8411 231.93 76.2396 231.758 76.5938C231.591 76.9427 231.346 77.2318 231.023 77.4609C230.701 77.6901 230.302 77.849 229.828 77.9375V78.0156C230.328 78.0938 230.771 78.237 231.156 78.4453C231.542 78.6536 231.844 78.9453 232.062 79.3203C232.281 79.6953 232.391 80.1719 232.391 80.75C232.391 81.4531 232.227 82.0469 231.898 82.5312C231.576 83.0156 231.117 83.3828 230.523 83.6328C229.93 83.8776 229.227 84 228.414 84H224.484V72.5781ZM225.812 77.4766H228C228.995 77.4766 229.682 77.3125 230.062 76.9844C230.448 76.6562 230.641 76.1771 230.641 75.5469C230.641 74.8958 230.411 74.4271 229.953 74.1406C229.5 73.8542 228.776 73.7109 227.781 73.7109H225.812V77.4766ZM225.812 78.5938V82.8672H228.188C229.203 82.8672 229.922 82.6693 230.344 82.2734C230.766 81.8724 230.977 81.3333 230.977 80.6562C230.977 80.224 230.88 79.8542 230.688 79.5469C230.5 79.2396 230.193 79.0052 229.766 78.8438C229.344 78.6771 228.779 78.5938 228.07 78.5938H225.812ZM241.992 84L240.586 80.375H236.008L234.609 84H233.266L237.734 72.5312H238.93L243.367 84H241.992ZM240.188 79.1953L238.852 75.5938C238.82 75.5 238.768 75.3464 238.695 75.1328C238.628 74.9193 238.557 74.6979 238.484 74.4688C238.411 74.2396 238.352 74.0547 238.305 73.9141C238.253 74.1276 238.195 74.3411 238.133 74.5547C238.076 74.763 238.018 74.9583 237.961 75.1406C237.904 75.3177 237.854 75.4688 237.812 75.5938L236.453 79.1953H240.188ZM249.836 73.5859C249.206 73.5859 248.638 73.6953 248.133 73.9141C247.633 74.1276 247.206 74.4401 246.852 74.8516C246.503 75.2578 246.234 75.75 246.047 76.3281C245.859 76.9062 245.766 77.5573 245.766 78.2812C245.766 79.2396 245.914 80.0729 246.211 80.7812C246.513 81.4844 246.961 82.0286 247.555 82.4141C248.154 82.7995 248.901 82.9922 249.797 82.9922C250.307 82.9922 250.786 82.9505 251.234 82.8672C251.688 82.7786 252.128 82.6693 252.555 82.5391V83.6953C252.138 83.8516 251.701 83.9661 251.242 84.0391C250.784 84.1172 250.24 84.1562 249.609 84.1562C248.448 84.1562 247.477 83.9167 246.695 83.4375C245.919 82.9531 245.336 82.2708 244.945 81.3906C244.56 80.5104 244.367 79.4714 244.367 78.2734C244.367 77.4089 244.487 76.6198 244.727 75.9062C244.971 75.1875 245.326 74.5677 245.789 74.0469C246.258 73.526 246.831 73.125 247.508 72.8438C248.19 72.5573 248.971 72.4141 249.852 72.4141C250.43 72.4141 250.987 72.4714 251.523 72.5859C252.06 72.7005 252.544 72.8646 252.977 73.0781L252.445 74.2031C252.081 74.0365 251.68 73.8932 251.242 73.7734C250.81 73.6484 250.341 73.5859 249.836 73.5859ZM262.719 77.8281H265.938V78.8906H262.719V82.2031H261.648V78.8906H258.43V77.8281H261.648V74.5H262.719V77.8281ZM271.18 77.0156C271.956 77.0156 272.63 77.1484 273.203 77.4141C273.776 77.6745 274.219 78.0547 274.531 78.5547C274.849 79.0547 275.008 79.6615 275.008 80.375C275.008 81.1562 274.839 81.8307 274.5 82.3984C274.161 82.9609 273.674 83.3958 273.039 83.7031C272.404 84.0052 271.643 84.1562 270.758 84.1562C270.164 84.1562 269.612 84.1042 269.102 84C268.591 83.8958 268.161 83.7396 267.812 83.5312V82.2969C268.193 82.526 268.654 82.7083 269.195 82.8438C269.737 82.9792 270.263 83.0469 270.773 83.0469C271.352 83.0469 271.857 82.9557 272.289 82.7734C272.727 82.5859 273.065 82.3047 273.305 81.9297C273.549 81.5495 273.672 81.0729 273.672 80.5C273.672 79.7396 273.438 79.1536 272.969 78.7422C272.505 78.3255 271.771 78.1172 270.766 78.1172C270.443 78.1172 270.089 78.1432 269.703 78.1953C269.318 78.2474 269 78.3047 268.75 78.3672L268.094 77.9375L268.531 72.5781H274.211V73.7656H269.641L269.352 77.2109C269.549 77.1693 269.805 77.1276 270.117 77.0859C270.43 77.0391 270.784 77.0156 271.18 77.0156ZM277.109 83.1875C277.109 82.8229 277.198 82.5651 277.375 82.4141C277.552 82.2578 277.768 82.1797 278.023 82.1797C278.289 82.1797 278.513 82.2578 278.695 82.4141C278.878 82.5651 278.969 82.8229 278.969 83.1875C278.969 83.5469 278.878 83.8099 278.695 83.9766C278.513 84.138 278.289 84.2188 278.023 84.2188C277.768 84.2188 277.552 84.138 277.375 83.9766C277.198 83.8099 277.109 83.5469 277.109 83.1875ZM277.109 76.2578C277.109 75.8828 277.198 75.6198 277.375 75.4688C277.552 75.3125 277.768 75.2344 278.023 75.2344C278.289 75.2344 278.513 75.3125 278.695 75.4688C278.878 75.6198 278.969 75.8828 278.969 76.2578C278.969 76.612 278.878 76.8698 278.695 77.0312C278.513 77.1927 278.289 77.2734 278.023 77.2734C277.768 77.2734 277.552 77.1927 277.375 77.0312C277.198 76.8698 277.109 76.612 277.109 76.2578ZM285.859 84V72.5781H287.188V82.8125H292.258V84H285.859ZM297.32 75.2812C298.049 75.2812 298.674 75.4427 299.195 75.7656C299.716 76.0885 300.115 76.5417 300.391 77.125C300.667 77.7031 300.805 78.3802 300.805 79.1562V79.9609H294.891C294.906 80.9661 295.156 81.7318 295.641 82.2578C296.125 82.7839 296.807 83.0469 297.688 83.0469C298.229 83.0469 298.708 82.9974 299.125 82.8984C299.542 82.7995 299.974 82.6536 300.422 82.4609V83.6016C299.99 83.7943 299.56 83.9349 299.133 84.0234C298.711 84.112 298.211 84.1562 297.633 84.1562C296.81 84.1562 296.091 83.9896 295.477 83.6562C294.867 83.3177 294.393 82.8229 294.055 82.1719C293.716 81.5208 293.547 80.724 293.547 79.7812C293.547 78.8594 293.701 78.0625 294.008 77.3906C294.32 76.7135 294.758 76.1927 295.32 75.8281C295.888 75.4635 296.555 75.2812 297.32 75.2812ZM297.305 76.3438C296.612 76.3438 296.06 76.5703 295.648 77.0234C295.237 77.4766 294.992 78.1094 294.914 78.9219H299.445C299.44 78.4115 299.359 77.9635 299.203 77.5781C299.052 77.1875 298.82 76.8854 298.508 76.6719C298.195 76.4531 297.794 76.3438 297.305 76.3438ZM306.211 75.2969C307.232 75.2969 307.99 75.526 308.484 75.9844C308.979 76.4427 309.227 77.1745 309.227 78.1797V84H308.281L308.031 82.7344H307.969C307.729 83.0469 307.479 83.3099 307.219 83.5234C306.958 83.7318 306.656 83.8906 306.312 84C305.974 84.1042 305.557 84.1562 305.062 84.1562C304.542 84.1562 304.078 84.0651 303.672 83.8828C303.271 83.7005 302.953 83.4245 302.719 83.0547C302.49 82.6849 302.375 82.2161 302.375 81.6484C302.375 80.7943 302.714 80.138 303.391 79.6797C304.068 79.2214 305.099 78.9714 306.484 78.9297L307.961 78.8672V78.3438C307.961 77.6042 307.802 77.0859 307.484 76.7891C307.167 76.4922 306.719 76.3438 306.141 76.3438C305.693 76.3438 305.266 76.4089 304.859 76.5391C304.453 76.6693 304.068 76.8229 303.703 77L303.305 76.0156C303.69 75.8177 304.133 75.6484 304.633 75.5078C305.133 75.3672 305.659 75.2969 306.211 75.2969ZM307.945 79.7812L306.641 79.8359C305.573 79.8776 304.82 80.0521 304.383 80.3594C303.945 80.6667 303.727 81.1016 303.727 81.6641C303.727 82.1536 303.875 82.5156 304.172 82.75C304.469 82.9844 304.862 83.1016 305.352 83.1016C306.112 83.1016 306.734 82.8906 307.219 82.4688C307.703 82.0469 307.945 81.4141 307.945 80.5703V79.7812ZM314.945 84.1562C313.862 84.1562 313.003 83.7865 312.367 83.0469C311.737 82.3073 311.422 81.2083 311.422 79.75C311.422 78.276 311.745 77.1641 312.391 76.4141C313.036 75.6589 313.896 75.2812 314.969 75.2812C315.422 75.2812 315.818 75.3411 316.156 75.4609C316.495 75.5807 316.786 75.7422 317.031 75.9453C317.276 76.1432 317.482 76.3698 317.648 76.625H317.742C317.721 76.4635 317.701 76.2422 317.68 75.9609C317.659 75.6797 317.648 75.4505 317.648 75.2734V71.8438H318.945V84H317.898L317.703 82.7812H317.648C317.487 83.0365 317.281 83.2682 317.031 83.4766C316.786 83.6849 316.492 83.8516 316.148 83.9766C315.81 84.0964 315.409 84.1562 314.945 84.1562ZM315.148 83.0781C316.065 83.0781 316.714 82.8177 317.094 82.2969C317.474 81.776 317.664 81.0026 317.664 79.9766V79.7422C317.664 78.6536 317.482 77.8177 317.117 77.2344C316.758 76.651 316.102 76.3594 315.148 76.3594C314.352 76.3594 313.755 76.6667 313.359 77.2812C312.964 77.8906 312.766 78.724 312.766 79.7812C312.766 80.8333 312.961 81.6458 313.352 82.2188C313.747 82.7917 314.346 83.0781 315.148 83.0781ZM320.969 80.2812V79.125H324.844V80.2812H320.969ZM336.117 78.1797C336.117 79.4661 335.883 80.5417 335.414 81.4062C334.945 82.2656 334.266 82.9141 333.375 83.3516C332.49 83.7839 331.414 84 330.148 84H327.047V72.5781H330.492C331.654 72.5781 332.654 72.7917 333.492 73.2188C334.331 73.6406 334.977 74.2682 335.43 75.1016C335.888 75.9297 336.117 76.9557 336.117 78.1797ZM334.719 78.2266C334.719 77.2005 334.547 76.3542 334.203 75.6875C333.865 75.0208 333.365 74.526 332.703 74.2031C332.047 73.875 331.242 73.7109 330.289 73.7109H328.375V82.8594H329.992C331.565 82.8594 332.745 82.4714 333.531 81.6953C334.323 80.9193 334.719 79.763 334.719 78.2266ZM341.758 75.2812C342.487 75.2812 343.112 75.4427 343.633 75.7656C344.154 76.0885 344.552 76.5417 344.828 77.125C345.104 77.7031 345.242 78.3802 345.242 79.1562V79.9609H339.328C339.344 80.9661 339.594 81.7318 340.078 82.2578C340.562 82.7839 341.245 83.0469 342.125 83.0469C342.667 83.0469 343.146 82.9974 343.562 82.8984C343.979 82.7995 344.411 82.6536 344.859 82.4609V83.6016C344.427 83.7943 343.997 83.9349 343.57 84.0234C343.148 84.112 342.648 84.1562 342.07 84.1562C341.247 84.1562 340.529 83.9896 339.914 83.6562C339.305 83.3177 338.831 82.8229 338.492 82.1719C338.154 81.5208 337.984 80.724 337.984 79.7812C337.984 78.8594 338.138 78.0625 338.445 77.3906C338.758 76.7135 339.195 76.1927 339.758 75.8281C340.326 75.4635 340.992 75.2812 341.758 75.2812ZM341.742 76.3438C341.049 76.3438 340.497 76.5703 340.086 77.0234C339.674 77.4766 339.43 78.1094 339.352 78.9219H343.883C343.878 78.4115 343.797 77.9635 343.641 77.5781C343.49 77.1875 343.258 76.8854 342.945 76.6719C342.633 76.4531 342.232 76.3438 341.742 76.3438ZM349.328 84L346.078 75.4375H347.469L349.352 80.6172C349.482 80.9714 349.615 81.362 349.75 81.7891C349.885 82.2161 349.979 82.5599 350.031 82.8203H350.086C350.148 82.5599 350.253 82.2161 350.398 81.7891C350.544 81.3568 350.677 80.9661 350.797 80.6172L352.68 75.4375H354.07L350.812 84H349.328Z" fill="white"/>
<path opacity="0.9" d="M208.203 188.578H211.438C212.865 188.578 213.938 188.792 214.656 189.219C215.375 189.646 215.734 190.372 215.734 191.398C215.734 191.841 215.648 192.24 215.477 192.594C215.31 192.943 215.065 193.232 214.742 193.461C214.419 193.69 214.021 193.849 213.547 193.938V194.016C214.047 194.094 214.49 194.237 214.875 194.445C215.26 194.654 215.562 194.945 215.781 195.32C216 195.695 216.109 196.172 216.109 196.75C216.109 197.453 215.945 198.047 215.617 198.531C215.294 199.016 214.836 199.383 214.242 199.633C213.648 199.878 212.945 200 212.133 200H208.203V188.578ZM209.531 193.477H211.719C212.714 193.477 213.401 193.312 213.781 192.984C214.167 192.656 214.359 192.177 214.359 191.547C214.359 190.896 214.13 190.427 213.672 190.141C213.219 189.854 212.495 189.711 211.5 189.711H209.531V193.477ZM209.531 194.594V198.867H211.906C212.922 198.867 213.641 198.669 214.062 198.273C214.484 197.872 214.695 197.333 214.695 196.656C214.695 196.224 214.599 195.854 214.406 195.547C214.219 195.24 213.911 195.005 213.484 194.844C213.062 194.677 212.497 194.594 211.789 194.594H209.531ZM225.711 200L224.305 196.375H219.727L218.328 200H216.984L221.453 188.531H222.648L227.086 200H225.711ZM223.906 195.195L222.57 191.594C222.539 191.5 222.487 191.346 222.414 191.133C222.346 190.919 222.276 190.698 222.203 190.469C222.13 190.24 222.07 190.055 222.023 189.914C221.971 190.128 221.914 190.341 221.852 190.555C221.794 190.763 221.737 190.958 221.68 191.141C221.622 191.318 221.573 191.469 221.531 191.594L220.172 195.195H223.906ZM233.555 189.586C232.924 189.586 232.357 189.695 231.852 189.914C231.352 190.128 230.924 190.44 230.57 190.852C230.221 191.258 229.953 191.75 229.766 192.328C229.578 192.906 229.484 193.557 229.484 194.281C229.484 195.24 229.633 196.073 229.93 196.781C230.232 197.484 230.68 198.029 231.273 198.414C231.872 198.799 232.62 198.992 233.516 198.992C234.026 198.992 234.505 198.951 234.953 198.867C235.406 198.779 235.846 198.669 236.273 198.539V199.695C235.857 199.852 235.419 199.966 234.961 200.039C234.503 200.117 233.958 200.156 233.328 200.156C232.167 200.156 231.195 199.917 230.414 199.438C229.638 198.953 229.055 198.271 228.664 197.391C228.279 196.51 228.086 195.471 228.086 194.273C228.086 193.409 228.206 192.62 228.445 191.906C228.69 191.188 229.044 190.568 229.508 190.047C229.977 189.526 230.549 189.125 231.227 188.844C231.909 188.557 232.69 188.414 233.57 188.414C234.148 188.414 234.706 188.471 235.242 188.586C235.779 188.701 236.263 188.865 236.695 189.078L236.164 190.203C235.799 190.036 235.398 189.893 234.961 189.773C234.529 189.648 234.06 189.586 233.555 189.586ZM246.438 193.828H249.656V194.891H246.438V198.203H245.367V194.891H242.148V193.828H245.367V190.5H246.438V193.828ZM258.352 191.242C258.352 191.753 258.253 192.195 258.055 192.57C257.857 192.945 257.581 193.253 257.227 193.492C256.872 193.727 256.456 193.891 255.977 193.984V194.047C256.883 194.161 257.562 194.453 258.016 194.922C258.474 195.391 258.703 196.005 258.703 196.766C258.703 197.427 258.547 198.013 258.234 198.523C257.927 199.034 257.453 199.435 256.812 199.727C256.177 200.013 255.362 200.156 254.367 200.156C253.763 200.156 253.203 200.107 252.688 200.008C252.177 199.914 251.688 199.755 251.219 199.531V198.312C251.693 198.547 252.208 198.732 252.766 198.867C253.323 198.997 253.862 199.062 254.383 199.062C255.424 199.062 256.177 198.857 256.641 198.445C257.104 198.029 257.336 197.461 257.336 196.742C257.336 196.247 257.206 195.849 256.945 195.547C256.69 195.24 256.32 195.016 255.836 194.875C255.357 194.729 254.779 194.656 254.102 194.656H252.961V193.547H254.109C254.729 193.547 255.255 193.456 255.688 193.273C256.12 193.091 256.448 192.836 256.672 192.508C256.901 192.174 257.016 191.781 257.016 191.328C257.016 190.75 256.823 190.305 256.438 189.992C256.052 189.674 255.529 189.516 254.867 189.516C254.461 189.516 254.091 189.557 253.758 189.641C253.424 189.724 253.112 189.839 252.82 189.984C252.529 190.13 252.237 190.299 251.945 190.492L251.289 189.602C251.706 189.279 252.214 189 252.812 188.766C253.411 188.531 254.091 188.414 254.852 188.414C256.018 188.414 256.893 188.68 257.477 189.211C258.06 189.742 258.352 190.419 258.352 191.242ZM260.828 199.188C260.828 198.823 260.917 198.565 261.094 198.414C261.271 198.258 261.487 198.18 261.742 198.18C262.008 198.18 262.232 198.258 262.414 198.414C262.596 198.565 262.688 198.823 262.688 199.188C262.688 199.547 262.596 199.81 262.414 199.977C262.232 200.138 262.008 200.219 261.742 200.219C261.487 200.219 261.271 200.138 261.094 199.977C260.917 199.81 260.828 199.547 260.828 199.188ZM260.828 192.258C260.828 191.883 260.917 191.62 261.094 191.469C261.271 191.312 261.487 191.234 261.742 191.234C262.008 191.234 262.232 191.312 262.414 191.469C262.596 191.62 262.688 191.883 262.688 192.258C262.688 192.612 262.596 192.87 262.414 193.031C262.232 193.193 262.008 193.273 261.742 193.273C261.487 193.273 261.271 193.193 261.094 193.031C260.917 192.87 260.828 192.612 260.828 192.258ZM278.648 194.18C278.648 195.466 278.414 196.542 277.945 197.406C277.477 198.266 276.797 198.914 275.906 199.352C275.021 199.784 273.945 200 272.68 200H269.578V188.578H273.023C274.185 188.578 275.185 188.792 276.023 189.219C276.862 189.641 277.508 190.268 277.961 191.102C278.419 191.93 278.648 192.956 278.648 194.18ZM277.25 194.227C277.25 193.201 277.078 192.354 276.734 191.688C276.396 191.021 275.896 190.526 275.234 190.203C274.578 189.875 273.773 189.711 272.82 189.711H270.906V198.859H272.523C274.096 198.859 275.276 198.471 276.062 197.695C276.854 196.919 277.25 195.763 277.25 194.227ZM284.289 191.281C285.018 191.281 285.643 191.443 286.164 191.766C286.685 192.089 287.083 192.542 287.359 193.125C287.635 193.703 287.773 194.38 287.773 195.156V195.961H281.859C281.875 196.966 282.125 197.732 282.609 198.258C283.094 198.784 283.776 199.047 284.656 199.047C285.198 199.047 285.677 198.997 286.094 198.898C286.51 198.799 286.943 198.654 287.391 198.461V199.602C286.958 199.794 286.529 199.935 286.102 200.023C285.68 200.112 285.18 200.156 284.602 200.156C283.779 200.156 283.06 199.99 282.445 199.656C281.836 199.318 281.362 198.823 281.023 198.172C280.685 197.521 280.516 196.724 280.516 195.781C280.516 194.859 280.669 194.062 280.977 193.391C281.289 192.714 281.727 192.193 282.289 191.828C282.857 191.464 283.523 191.281 284.289 191.281ZM284.273 192.344C283.581 192.344 283.029 192.57 282.617 193.023C282.206 193.477 281.961 194.109 281.883 194.922H286.414C286.409 194.411 286.328 193.964 286.172 193.578C286.021 193.188 285.789 192.885 285.477 192.672C285.164 192.453 284.763 192.344 284.273 192.344ZM286.438 187.742V187.898C286.333 188.049 286.19 188.232 286.008 188.445C285.831 188.654 285.633 188.875 285.414 189.109C285.195 189.339 284.974 189.557 284.75 189.766C284.531 189.974 284.328 190.154 284.141 190.305H283.273V190.117C283.44 189.919 283.622 189.682 283.82 189.406C284.018 189.125 284.211 188.839 284.398 188.547C284.586 188.25 284.742 187.982 284.867 187.742H286.438ZM291.859 200L288.609 191.438H290L291.883 196.617C292.013 196.971 292.146 197.362 292.281 197.789C292.417 198.216 292.51 198.56 292.562 198.82H292.617C292.68 198.56 292.784 198.216 292.93 197.789C293.076 197.357 293.208 196.966 293.328 196.617L295.211 191.438H296.602L293.344 200H291.859ZM301.273 191.281C302.003 191.281 302.628 191.443 303.148 191.766C303.669 192.089 304.068 192.542 304.344 193.125C304.62 193.703 304.758 194.38 304.758 195.156V195.961H298.844C298.859 196.966 299.109 197.732 299.594 198.258C300.078 198.784 300.76 199.047 301.641 199.047C302.182 199.047 302.661 198.997 303.078 198.898C303.495 198.799 303.927 198.654 304.375 198.461V199.602C303.943 199.794 303.513 199.935 303.086 200.023C302.664 200.112 302.164 200.156 301.586 200.156C300.763 200.156 300.044 199.99 299.43 199.656C298.82 199.318 298.346 198.823 298.008 198.172C297.669 197.521 297.5 196.724 297.5 195.781C297.5 194.859 297.654 194.062 297.961 193.391C298.273 192.714 298.711 192.193 299.273 191.828C299.841 191.464 300.508 191.281 301.273 191.281ZM301.258 192.344C300.565 192.344 300.013 192.57 299.602 193.023C299.19 193.477 298.945 194.109 298.867 194.922H303.398C303.393 194.411 303.312 193.964 303.156 193.578C303.005 193.188 302.773 192.885 302.461 192.672C302.148 192.453 301.747 192.344 301.258 192.344ZM308.266 200H306.961V187.844H308.266V200ZM318.391 195.703C318.391 196.406 318.299 197.034 318.117 197.586C317.935 198.138 317.672 198.604 317.328 198.984C316.984 199.365 316.568 199.656 316.078 199.859C315.594 200.057 315.044 200.156 314.43 200.156C313.857 200.156 313.331 200.057 312.852 199.859C312.378 199.656 311.966 199.365 311.617 198.984C311.273 198.604 311.005 198.138 310.812 197.586C310.625 197.034 310.531 196.406 310.531 195.703C310.531 194.766 310.69 193.969 311.008 193.312C311.326 192.651 311.779 192.148 312.367 191.805C312.961 191.456 313.667 191.281 314.484 191.281C315.266 191.281 315.948 191.456 316.531 191.805C317.12 192.154 317.576 192.659 317.898 193.32C318.227 193.977 318.391 194.771 318.391 195.703ZM311.875 195.703C311.875 196.391 311.966 196.987 312.148 197.492C312.331 197.997 312.612 198.388 312.992 198.664C313.372 198.94 313.862 199.078 314.461 199.078C315.055 199.078 315.542 198.94 315.922 198.664C316.307 198.388 316.591 197.997 316.773 197.492C316.956 196.987 317.047 196.391 317.047 195.703C317.047 195.021 316.956 194.432 316.773 193.938C316.591 193.438 316.31 193.052 315.93 192.781C315.549 192.51 315.057 192.375 314.453 192.375C313.562 192.375 312.909 192.669 312.492 193.258C312.081 193.846 311.875 194.661 311.875 195.703ZM324.656 191.281C325.724 191.281 326.576 191.648 327.211 192.383C327.846 193.117 328.164 194.221 328.164 195.695C328.164 196.669 328.018 197.487 327.727 198.148C327.435 198.81 327.023 199.31 326.492 199.648C325.966 199.987 325.344 200.156 324.625 200.156C324.172 200.156 323.773 200.096 323.43 199.977C323.086 199.857 322.792 199.695 322.547 199.492C322.302 199.289 322.099 199.068 321.938 198.828H321.844C321.859 199.031 321.878 199.276 321.898 199.562C321.924 199.849 321.938 200.099 321.938 200.312V203.828H320.633V191.438H321.703L321.875 192.703H321.938C322.104 192.443 322.307 192.206 322.547 191.992C322.786 191.773 323.078 191.602 323.422 191.477C323.771 191.346 324.182 191.281 324.656 191.281ZM324.43 192.375C323.836 192.375 323.357 192.49 322.992 192.719C322.633 192.948 322.37 193.292 322.203 193.75C322.036 194.203 321.948 194.773 321.938 195.461V195.711C321.938 196.435 322.016 197.047 322.172 197.547C322.333 198.047 322.596 198.427 322.961 198.688C323.331 198.948 323.826 199.078 324.445 199.078C324.977 199.078 325.419 198.935 325.773 198.648C326.128 198.362 326.391 197.964 326.562 197.453C326.74 196.938 326.828 196.346 326.828 195.68C326.828 194.669 326.63 193.867 326.234 193.273C325.844 192.674 325.242 192.375 324.43 192.375ZM334.453 191.281C335.521 191.281 336.372 191.648 337.008 192.383C337.643 193.117 337.961 194.221 337.961 195.695C337.961 196.669 337.815 197.487 337.523 198.148C337.232 198.81 336.82 199.31 336.289 199.648C335.763 199.987 335.141 200.156 334.422 200.156C333.969 200.156 333.57 200.096 333.227 199.977C332.883 199.857 332.589 199.695 332.344 199.492C332.099 199.289 331.896 199.068 331.734 198.828H331.641C331.656 199.031 331.674 199.276 331.695 199.562C331.721 199.849 331.734 200.099 331.734 200.312V203.828H330.43V191.438H331.5L331.672 192.703H331.734C331.901 192.443 332.104 192.206 332.344 191.992C332.583 191.773 332.875 191.602 333.219 191.477C333.568 191.346 333.979 191.281 334.453 191.281ZM334.227 192.375C333.633 192.375 333.154 192.49 332.789 192.719C332.43 192.948 332.167 193.292 332 193.75C331.833 194.203 331.745 194.773 331.734 195.461V195.711C331.734 196.435 331.812 197.047 331.969 197.547C332.13 198.047 332.393 198.427 332.758 198.688C333.128 198.948 333.622 199.078 334.242 199.078C334.773 199.078 335.216 198.935 335.57 198.648C335.924 198.362 336.188 197.964 336.359 197.453C336.536 196.938 336.625 196.346 336.625 195.68C336.625 194.669 336.427 193.867 336.031 193.273C335.641 192.674 335.039 192.375 334.227 192.375ZM343.523 191.281C344.253 191.281 344.878 191.443 345.398 191.766C345.919 192.089 346.318 192.542 346.594 193.125C346.87 193.703 347.008 194.38 347.008 195.156V195.961H341.094C341.109 196.966 341.359 197.732 341.844 198.258C342.328 198.784 343.01 199.047 343.891 199.047C344.432 199.047 344.911 198.997 345.328 198.898C345.745 198.799 346.177 198.654 346.625 198.461V199.602C346.193 199.794 345.763 199.935 345.336 200.023C344.914 200.112 344.414 200.156 343.836 200.156C343.013 200.156 342.294 199.99 341.68 199.656C341.07 199.318 340.596 198.823 340.258 198.172C339.919 197.521 339.75 196.724 339.75 195.781C339.75 194.859 339.904 194.062 340.211 193.391C340.523 192.714 340.961 192.193 341.523 191.828C342.091 191.464 342.758 191.281 343.523 191.281ZM343.508 192.344C342.815 192.344 342.263 192.57 341.852 193.023C341.44 193.477 341.195 194.109 341.117 194.922H345.648C345.643 194.411 345.562 193.964 345.406 193.578C345.255 193.188 345.023 192.885 344.711 192.672C344.398 192.453 343.997 192.344 343.508 192.344ZM356.281 191.438V200H355.219L355.031 198.797H354.961C354.784 199.094 354.555 199.344 354.273 199.547C353.992 199.75 353.674 199.901 353.32 200C352.971 200.104 352.599 200.156 352.203 200.156C351.526 200.156 350.958 200.047 350.5 199.828C350.042 199.609 349.695 199.271 349.461 198.812C349.232 198.354 349.117 197.766 349.117 197.047V191.438H350.43V196.953C350.43 197.667 350.591 198.201 350.914 198.555C351.237 198.904 351.729 199.078 352.391 199.078C353.026 199.078 353.531 198.958 353.906 198.719C354.286 198.479 354.56 198.128 354.727 197.664C354.893 197.195 354.977 196.622 354.977 195.945V191.438H356.281ZM362.914 191.281C363.086 191.281 363.266 191.292 363.453 191.312C363.641 191.328 363.807 191.352 363.953 191.383L363.789 192.586C363.648 192.549 363.492 192.521 363.32 192.5C363.148 192.479 362.987 192.469 362.836 192.469C362.492 192.469 362.167 192.539 361.859 192.68C361.557 192.815 361.292 193.013 361.062 193.273C360.833 193.529 360.654 193.839 360.523 194.203C360.393 194.562 360.328 194.964 360.328 195.406V200H359.023V191.438H360.102L360.242 193.016H360.297C360.474 192.698 360.688 192.409 360.938 192.148C361.188 191.883 361.477 191.672 361.805 191.516C362.138 191.359 362.508 191.281 362.914 191.281ZM255 222H253.672V210.578H260.031V211.75H255V215.938H259.727V217.102H255V222ZM268.812 213.438V222H267.75L267.562 220.797H267.492C267.315 221.094 267.086 221.344 266.805 221.547C266.523 221.75 266.206 221.901 265.852 222C265.503 222.104 265.13 222.156 264.734 222.156C264.057 222.156 263.49 222.047 263.031 221.828C262.573 221.609 262.227 221.271 261.992 220.812C261.763 220.354 261.648 219.766 261.648 219.047V213.438H262.961V218.953C262.961 219.667 263.122 220.201 263.445 220.555C263.768 220.904 264.26 221.078 264.922 221.078C265.557 221.078 266.062 220.958 266.438 220.719C266.818 220.479 267.091 220.128 267.258 219.664C267.424 219.195 267.508 218.622 267.508 217.945V213.438H268.812ZM272.859 222H271.555V209.844H272.859V222ZM276.906 222H275.602V209.844H276.906V222ZM278.922 218.281V217.125H282.797V218.281H278.922ZM291.445 218.961C291.445 219.638 291.276 220.216 290.938 220.695C290.604 221.169 290.135 221.531 289.531 221.781C288.927 222.031 288.216 222.156 287.398 222.156C286.966 222.156 286.557 222.135 286.172 222.094C285.786 222.052 285.432 221.992 285.109 221.914C284.786 221.836 284.503 221.74 284.258 221.625V220.352C284.648 220.513 285.125 220.664 285.688 220.805C286.25 220.94 286.839 221.008 287.453 221.008C288.026 221.008 288.51 220.932 288.906 220.781C289.302 220.625 289.602 220.404 289.805 220.117C290.013 219.826 290.117 219.477 290.117 219.07C290.117 218.68 290.031 218.354 289.859 218.094C289.688 217.828 289.401 217.589 289 217.375C288.604 217.156 288.062 216.924 287.375 216.68C286.891 216.508 286.464 216.32 286.094 216.117C285.724 215.909 285.414 215.674 285.164 215.414C284.914 215.154 284.724 214.852 284.594 214.508C284.469 214.164 284.406 213.771 284.406 213.328C284.406 212.719 284.56 212.198 284.867 211.766C285.18 211.328 285.609 210.995 286.156 210.766C286.708 210.531 287.341 210.414 288.055 210.414C288.664 210.414 289.227 210.471 289.742 210.586C290.263 210.701 290.74 210.854 291.172 211.047L290.758 212.188C290.346 212.016 289.909 211.872 289.445 211.758C288.987 211.643 288.513 211.586 288.023 211.586C287.534 211.586 287.12 211.659 286.781 211.805C286.448 211.945 286.193 212.146 286.016 212.406C285.839 212.667 285.75 212.977 285.75 213.336C285.75 213.737 285.833 214.07 286 214.336C286.172 214.602 286.443 214.839 286.812 215.047C287.188 215.25 287.682 215.464 288.297 215.688C288.969 215.932 289.539 216.193 290.008 216.469C290.477 216.74 290.833 217.073 291.078 217.469C291.323 217.859 291.445 218.357 291.445 218.961ZM296.352 221.094C296.565 221.094 296.784 221.076 297.008 221.039C297.232 221.003 297.414 220.958 297.555 220.906V221.914C297.404 221.982 297.193 222.039 296.922 222.086C296.656 222.133 296.396 222.156 296.141 222.156C295.688 222.156 295.276 222.078 294.906 221.922C294.536 221.76 294.24 221.49 294.016 221.109C293.797 220.729 293.688 220.203 293.688 219.531V214.453H292.469V213.82L293.695 213.312L294.211 211.453H294.992V213.438H297.5V214.453H294.992V219.492C294.992 220.029 295.115 220.43 295.359 220.695C295.609 220.961 295.94 221.094 296.352 221.094ZM302.492 213.297C303.513 213.297 304.271 213.526 304.766 213.984C305.26 214.443 305.508 215.174 305.508 216.18V222H304.562L304.312 220.734H304.25C304.01 221.047 303.76 221.31 303.5 221.523C303.24 221.732 302.938 221.891 302.594 222C302.255 222.104 301.839 222.156 301.344 222.156C300.823 222.156 300.359 222.065 299.953 221.883C299.552 221.701 299.234 221.424 299 221.055C298.771 220.685 298.656 220.216 298.656 219.648C298.656 218.794 298.995 218.138 299.672 217.68C300.349 217.221 301.38 216.971 302.766 216.93L304.242 216.867V216.344C304.242 215.604 304.083 215.086 303.766 214.789C303.448 214.492 303 214.344 302.422 214.344C301.974 214.344 301.547 214.409 301.141 214.539C300.734 214.669 300.349 214.823 299.984 215L299.586 214.016C299.971 213.818 300.414 213.648 300.914 213.508C301.414 213.367 301.94 213.297 302.492 213.297ZM304.227 217.781L302.922 217.836C301.854 217.878 301.102 218.052 300.664 218.359C300.227 218.667 300.008 219.102 300.008 219.664C300.008 220.154 300.156 220.516 300.453 220.75C300.75 220.984 301.143 221.102 301.633 221.102C302.393 221.102 303.016 220.891 303.5 220.469C303.984 220.047 304.227 219.414 304.227 218.57V217.781ZM311.609 222.156C310.839 222.156 310.159 221.997 309.57 221.68C308.982 221.362 308.523 220.878 308.195 220.227C307.867 219.576 307.703 218.755 307.703 217.766C307.703 216.729 307.875 215.883 308.219 215.227C308.568 214.565 309.047 214.076 309.656 213.758C310.266 213.44 310.958 213.281 311.734 213.281C312.161 213.281 312.573 213.326 312.969 213.414C313.37 213.497 313.698 213.604 313.953 213.734L313.562 214.82C313.302 214.716 313 214.622 312.656 214.539C312.318 214.456 312 214.414 311.703 214.414C311.109 214.414 310.615 214.542 310.219 214.797C309.828 215.052 309.534 215.427 309.336 215.922C309.143 216.417 309.047 217.026 309.047 217.75C309.047 218.443 309.141 219.034 309.328 219.523C309.521 220.013 309.805 220.388 310.18 220.648C310.56 220.904 311.034 221.031 311.602 221.031C312.055 221.031 312.464 220.984 312.828 220.891C313.193 220.792 313.523 220.677 313.82 220.547V221.703C313.534 221.849 313.214 221.961 312.859 222.039C312.51 222.117 312.094 222.156 311.609 222.156ZM317.141 209.844V216.156C317.141 216.365 317.133 216.62 317.117 216.922C317.102 217.219 317.089 217.482 317.078 217.711H317.133C317.242 217.576 317.401 217.375 317.609 217.109C317.823 216.844 318.003 216.63 318.148 216.469L320.992 213.438H322.516L319.07 217.094L322.766 222H321.203L318.18 217.945L317.141 218.898V222H315.852V209.844H317.141Z" fill="white"/>
<path opacity="0.9" d="M210.281 314.578H213.516C214.943 314.578 216.016 314.792 216.734 315.219C217.453 315.646 217.812 316.372 217.812 317.398C217.812 317.841 217.727 318.24 217.555 318.594C217.388 318.943 217.143 319.232 216.82 319.461C216.497 319.69 216.099 319.849 215.625 319.938V320.016C216.125 320.094 216.568 320.237 216.953 320.445C217.339 320.654 217.641 320.945 217.859 321.32C218.078 321.695 218.188 322.172 218.188 322.75C218.188 323.453 218.023 324.047 217.695 324.531C217.372 325.016 216.914 325.383 216.32 325.633C215.727 325.878 215.023 326 214.211 326H210.281V314.578ZM211.609 319.477H213.797C214.792 319.477 215.479 319.312 215.859 318.984C216.245 318.656 216.438 318.177 216.438 317.547C216.438 316.896 216.208 316.427 215.75 316.141C215.297 315.854 214.573 315.711 213.578 315.711H211.609V319.477ZM211.609 320.594V324.867H213.984C215 324.867 215.719 324.669 216.141 324.273C216.562 323.872 216.773 323.333 216.773 322.656C216.773 322.224 216.677 321.854 216.484 321.547C216.297 321.24 215.99 321.005 215.562 320.844C215.141 320.677 214.576 320.594 213.867 320.594H211.609ZM227.789 326L226.383 322.375H221.805L220.406 326H219.062L223.531 314.531H224.727L229.164 326H227.789ZM225.984 321.195L224.648 317.594C224.617 317.5 224.565 317.346 224.492 317.133C224.424 316.919 224.354 316.698 224.281 316.469C224.208 316.24 224.148 316.055 224.102 315.914C224.049 316.128 223.992 316.341 223.93 316.555C223.872 316.763 223.815 316.958 223.758 317.141C223.701 317.318 223.651 317.469 223.609 317.594L222.25 321.195H225.984ZM235.633 315.586C235.003 315.586 234.435 315.695 233.93 315.914C233.43 316.128 233.003 316.44 232.648 316.852C232.299 317.258 232.031 317.75 231.844 318.328C231.656 318.906 231.562 319.557 231.562 320.281C231.562 321.24 231.711 322.073 232.008 322.781C232.31 323.484 232.758 324.029 233.352 324.414C233.951 324.799 234.698 324.992 235.594 324.992C236.104 324.992 236.583 324.951 237.031 324.867C237.484 324.779 237.924 324.669 238.352 324.539V325.695C237.935 325.852 237.497 325.966 237.039 326.039C236.581 326.117 236.036 326.156 235.406 326.156C234.245 326.156 233.273 325.917 232.492 325.438C231.716 324.953 231.133 324.271 230.742 323.391C230.357 322.51 230.164 321.471 230.164 320.273C230.164 319.409 230.284 318.62 230.523 317.906C230.768 317.188 231.122 316.568 231.586 316.047C232.055 315.526 232.628 315.125 233.305 314.844C233.987 314.557 234.768 314.414 235.648 314.414C236.227 314.414 236.784 314.471 237.32 314.586C237.857 314.701 238.341 314.865 238.773 315.078L238.242 316.203C237.878 316.036 237.477 315.893 237.039 315.773C236.607 315.648 236.138 315.586 235.633 315.586ZM248.516 319.828H251.734V320.891H248.516V324.203H247.445V320.891H244.227V319.828H247.445V316.5H248.516V319.828ZM260.852 326H253.367V324.914L256.422 321.812C256.99 321.24 257.466 320.729 257.852 320.281C258.242 319.833 258.539 319.393 258.742 318.961C258.945 318.523 259.047 318.044 259.047 317.523C259.047 316.878 258.854 316.385 258.469 316.047C258.089 315.703 257.586 315.531 256.961 315.531C256.414 315.531 255.93 315.625 255.508 315.812C255.086 316 254.654 316.266 254.211 316.609L253.516 315.734C253.818 315.479 254.146 315.253 254.5 315.055C254.859 314.857 255.242 314.701 255.648 314.586C256.06 314.471 256.497 314.414 256.961 314.414C257.664 314.414 258.271 314.536 258.781 314.781C259.292 315.026 259.685 315.375 259.961 315.828C260.242 316.281 260.383 316.82 260.383 317.445C260.383 318.049 260.263 318.612 260.023 319.133C259.784 319.648 259.448 320.161 259.016 320.672C258.583 321.177 258.078 321.714 257.5 322.281L255.016 324.758V324.812H260.852V326ZM262.906 325.188C262.906 324.823 262.995 324.565 263.172 324.414C263.349 324.258 263.565 324.18 263.82 324.18C264.086 324.18 264.31 324.258 264.492 324.414C264.674 324.565 264.766 324.823 264.766 325.188C264.766 325.547 264.674 325.81 264.492 325.977C264.31 326.138 264.086 326.219 263.82 326.219C263.565 326.219 263.349 326.138 263.172 325.977C262.995 325.81 262.906 325.547 262.906 325.188ZM262.906 318.258C262.906 317.883 262.995 317.62 263.172 317.469C263.349 317.312 263.565 317.234 263.82 317.234C264.086 317.234 264.31 317.312 264.492 317.469C264.674 317.62 264.766 317.883 264.766 318.258C264.766 318.612 264.674 318.87 264.492 319.031C264.31 319.193 264.086 319.273 263.82 319.273C263.565 319.273 263.349 319.193 263.172 319.031C262.995 318.87 262.906 318.612 262.906 318.258ZM280.727 320.18C280.727 321.466 280.492 322.542 280.023 323.406C279.555 324.266 278.875 324.914 277.984 325.352C277.099 325.784 276.023 326 274.758 326H271.656V314.578H275.102C276.263 314.578 277.263 314.792 278.102 315.219C278.94 315.641 279.586 316.268 280.039 317.102C280.497 317.93 280.727 318.956 280.727 320.18ZM279.328 320.227C279.328 319.201 279.156 318.354 278.812 317.688C278.474 317.021 277.974 316.526 277.312 316.203C276.656 315.875 275.852 315.711 274.898 315.711H272.984V324.859H274.602C276.174 324.859 277.354 324.471 278.141 323.695C278.932 322.919 279.328 321.763 279.328 320.227ZM286.367 317.281C287.096 317.281 287.721 317.443 288.242 317.766C288.763 318.089 289.161 318.542 289.438 319.125C289.714 319.703 289.852 320.38 289.852 321.156V321.961H283.938C283.953 322.966 284.203 323.732 284.688 324.258C285.172 324.784 285.854 325.047 286.734 325.047C287.276 325.047 287.755 324.997 288.172 324.898C288.589 324.799 289.021 324.654 289.469 324.461V325.602C289.036 325.794 288.607 325.935 288.18 326.023C287.758 326.112 287.258 326.156 286.68 326.156C285.857 326.156 285.138 325.99 284.523 325.656C283.914 325.318 283.44 324.823 283.102 324.172C282.763 323.521 282.594 322.724 282.594 321.781C282.594 320.859 282.747 320.062 283.055 319.391C283.367 318.714 283.805 318.193 284.367 317.828C284.935 317.464 285.602 317.281 286.367 317.281ZM286.352 318.344C285.659 318.344 285.107 318.57 284.695 319.023C284.284 319.477 284.039 320.109 283.961 320.922H288.492C288.487 320.411 288.406 319.964 288.25 319.578C288.099 319.188 287.867 318.885 287.555 318.672C287.242 318.453 286.841 318.344 286.352 318.344ZM288.516 313.742V313.898C288.411 314.049 288.268 314.232 288.086 314.445C287.909 314.654 287.711 314.875 287.492 315.109C287.273 315.339 287.052 315.557 286.828 315.766C286.609 315.974 286.406 316.154 286.219 316.305H285.352V316.117C285.518 315.919 285.701 315.682 285.898 315.406C286.096 315.125 286.289 314.839 286.477 314.547C286.664 314.25 286.82 313.982 286.945 313.742H288.516ZM293.938 326L290.688 317.438H292.078L293.961 322.617C294.091 322.971 294.224 323.362 294.359 323.789C294.495 324.216 294.589 324.56 294.641 324.82H294.695C294.758 324.56 294.862 324.216 295.008 323.789C295.154 323.357 295.286 322.966 295.406 322.617L297.289 317.438H298.68L295.422 326H293.938ZM303.352 317.281C304.081 317.281 304.706 317.443 305.227 317.766C305.747 318.089 306.146 318.542 306.422 319.125C306.698 319.703 306.836 320.38 306.836 321.156V321.961H300.922C300.938 322.966 301.188 323.732 301.672 324.258C302.156 324.784 302.839 325.047 303.719 325.047C304.26 325.047 304.74 324.997 305.156 324.898C305.573 324.799 306.005 324.654 306.453 324.461V325.602C306.021 325.794 305.591 325.935 305.164 326.023C304.742 326.112 304.242 326.156 303.664 326.156C302.841 326.156 302.122 325.99 301.508 325.656C300.898 325.318 300.424 324.823 300.086 324.172C299.747 323.521 299.578 322.724 299.578 321.781C299.578 320.859 299.732 320.062 300.039 319.391C300.352 318.714 300.789 318.193 301.352 317.828C301.919 317.464 302.586 317.281 303.352 317.281ZM303.336 318.344C302.643 318.344 302.091 318.57 301.68 319.023C301.268 319.477 301.023 320.109 300.945 320.922H305.477C305.471 320.411 305.391 319.964 305.234 319.578C305.083 319.188 304.852 318.885 304.539 318.672C304.227 318.453 303.826 318.344 303.336 318.344ZM310.344 326H309.039V313.844H310.344V326ZM320.469 321.703C320.469 322.406 320.378 323.034 320.195 323.586C320.013 324.138 319.75 324.604 319.406 324.984C319.062 325.365 318.646 325.656 318.156 325.859C317.672 326.057 317.122 326.156 316.508 326.156C315.935 326.156 315.409 326.057 314.93 325.859C314.456 325.656 314.044 325.365 313.695 324.984C313.352 324.604 313.083 324.138 312.891 323.586C312.703 323.034 312.609 322.406 312.609 321.703C312.609 320.766 312.768 319.969 313.086 319.312C313.404 318.651 313.857 318.148 314.445 317.805C315.039 317.456 315.745 317.281 316.562 317.281C317.344 317.281 318.026 317.456 318.609 317.805C319.198 318.154 319.654 318.659 319.977 319.32C320.305 319.977 320.469 320.771 320.469 321.703ZM313.953 321.703C313.953 322.391 314.044 322.987 314.227 323.492C314.409 323.997 314.69 324.388 315.07 324.664C315.451 324.94 315.94 325.078 316.539 325.078C317.133 325.078 317.62 324.94 318 324.664C318.385 324.388 318.669 323.997 318.852 323.492C319.034 322.987 319.125 322.391 319.125 321.703C319.125 321.021 319.034 320.432 318.852 319.938C318.669 319.438 318.388 319.052 318.008 318.781C317.628 318.51 317.135 318.375 316.531 318.375C315.641 318.375 314.987 318.669 314.57 319.258C314.159 319.846 313.953 320.661 313.953 321.703ZM326.734 317.281C327.802 317.281 328.654 317.648 329.289 318.383C329.924 319.117 330.242 320.221 330.242 321.695C330.242 322.669 330.096 323.487 329.805 324.148C329.513 324.81 329.102 325.31 328.57 325.648C328.044 325.987 327.422 326.156 326.703 326.156C326.25 326.156 325.852 326.096 325.508 325.977C325.164 325.857 324.87 325.695 324.625 325.492C324.38 325.289 324.177 325.068 324.016 324.828H323.922C323.938 325.031 323.956 325.276 323.977 325.562C324.003 325.849 324.016 326.099 324.016 326.312V329.828H322.711V317.438H323.781L323.953 318.703H324.016C324.182 318.443 324.385 318.206 324.625 317.992C324.865 317.773 325.156 317.602 325.5 317.477C325.849 317.346 326.26 317.281 326.734 317.281ZM326.508 318.375C325.914 318.375 325.435 318.49 325.07 318.719C324.711 318.948 324.448 319.292 324.281 319.75C324.115 320.203 324.026 320.773 324.016 321.461V321.711C324.016 322.435 324.094 323.047 324.25 323.547C324.411 324.047 324.674 324.427 325.039 324.688C325.409 324.948 325.904 325.078 326.523 325.078C327.055 325.078 327.497 324.935 327.852 324.648C328.206 324.362 328.469 323.964 328.641 323.453C328.818 322.938 328.906 322.346 328.906 321.68C328.906 320.669 328.708 319.867 328.312 319.273C327.922 318.674 327.32 318.375 326.508 318.375ZM336.531 317.281C337.599 317.281 338.451 317.648 339.086 318.383C339.721 319.117 340.039 320.221 340.039 321.695C340.039 322.669 339.893 323.487 339.602 324.148C339.31 324.81 338.898 325.31 338.367 325.648C337.841 325.987 337.219 326.156 336.5 326.156C336.047 326.156 335.648 326.096 335.305 325.977C334.961 325.857 334.667 325.695 334.422 325.492C334.177 325.289 333.974 325.068 333.812 324.828H333.719C333.734 325.031 333.753 325.276 333.773 325.562C333.799 325.849 333.812 326.099 333.812 326.312V329.828H332.508V317.438H333.578L333.75 318.703H333.812C333.979 318.443 334.182 318.206 334.422 317.992C334.661 317.773 334.953 317.602 335.297 317.477C335.646 317.346 336.057 317.281 336.531 317.281ZM336.305 318.375C335.711 318.375 335.232 318.49 334.867 318.719C334.508 318.948 334.245 319.292 334.078 319.75C333.911 320.203 333.823 320.773 333.812 321.461V321.711C333.812 322.435 333.891 323.047 334.047 323.547C334.208 324.047 334.471 324.427 334.836 324.688C335.206 324.948 335.701 325.078 336.32 325.078C336.852 325.078 337.294 324.935 337.648 324.648C338.003 324.362 338.266 323.964 338.438 323.453C338.615 322.938 338.703 322.346 338.703 321.68C338.703 320.669 338.505 319.867 338.109 319.273C337.719 318.674 337.117 318.375 336.305 318.375ZM345.602 317.281C346.331 317.281 346.956 317.443 347.477 317.766C347.997 318.089 348.396 318.542 348.672 319.125C348.948 319.703 349.086 320.38 349.086 321.156V321.961H343.172C343.188 322.966 343.438 323.732 343.922 324.258C344.406 324.784 345.089 325.047 345.969 325.047C346.51 325.047 346.99 324.997 347.406 324.898C347.823 324.799 348.255 324.654 348.703 324.461V325.602C348.271 325.794 347.841 325.935 347.414 326.023C346.992 326.112 346.492 326.156 345.914 326.156C345.091 326.156 344.372 325.99 343.758 325.656C343.148 325.318 342.674 324.823 342.336 324.172C341.997 323.521 341.828 322.724 341.828 321.781C341.828 320.859 341.982 320.062 342.289 319.391C342.602 318.714 343.039 318.193 343.602 317.828C344.169 317.464 344.836 317.281 345.602 317.281ZM345.586 318.344C344.893 318.344 344.341 318.57 343.93 319.023C343.518 319.477 343.273 320.109 343.195 320.922H347.727C347.721 320.411 347.641 319.964 347.484 319.578C347.333 319.188 347.102 318.885 346.789 318.672C346.477 318.453 346.076 318.344 345.586 318.344ZM358.359 317.438V326H357.297L357.109 324.797H357.039C356.862 325.094 356.633 325.344 356.352 325.547C356.07 325.75 355.753 325.901 355.398 326C355.049 326.104 354.677 326.156 354.281 326.156C353.604 326.156 353.036 326.047 352.578 325.828C352.12 325.609 351.773 325.271 351.539 324.812C351.31 324.354 351.195 323.766 351.195 323.047V317.438H352.508V322.953C352.508 323.667 352.669 324.201 352.992 324.555C353.315 324.904 353.807 325.078 354.469 325.078C355.104 325.078 355.609 324.958 355.984 324.719C356.365 324.479 356.638 324.128 356.805 323.664C356.971 323.195 357.055 322.622 357.055 321.945V317.438H358.359ZM364.992 317.281C365.164 317.281 365.344 317.292 365.531 317.312C365.719 317.328 365.885 317.352 366.031 317.383L365.867 318.586C365.727 318.549 365.57 318.521 365.398 318.5C365.227 318.479 365.065 318.469 364.914 318.469C364.57 318.469 364.245 318.539 363.938 318.68C363.635 318.815 363.37 319.013 363.141 319.273C362.911 319.529 362.732 319.839 362.602 320.203C362.471 320.562 362.406 320.964 362.406 321.406V326H361.102V317.438H362.18L362.32 319.016H362.375C362.552 318.698 362.766 318.409 363.016 318.148C363.266 317.883 363.555 317.672 363.883 317.516C364.216 317.359 364.586 317.281 364.992 317.281ZM190.203 348.156C189.12 348.156 188.26 347.786 187.625 347.047C186.995 346.307 186.68 345.208 186.68 343.75C186.68 342.276 187.003 341.164 187.648 340.414C188.294 339.659 189.154 339.281 190.227 339.281C190.68 339.281 191.076 339.341 191.414 339.461C191.753 339.581 192.044 339.742 192.289 339.945C192.534 340.143 192.74 340.37 192.906 340.625H193C192.979 340.464 192.958 340.242 192.938 339.961C192.917 339.68 192.906 339.451 192.906 339.273V335.844H194.203V348H193.156L192.961 346.781H192.906C192.745 347.036 192.539 347.268 192.289 347.477C192.044 347.685 191.75 347.852 191.406 347.977C191.068 348.096 190.667 348.156 190.203 348.156ZM190.406 347.078C191.323 347.078 191.971 346.818 192.352 346.297C192.732 345.776 192.922 345.003 192.922 343.977V343.742C192.922 342.654 192.74 341.818 192.375 341.234C192.016 340.651 191.359 340.359 190.406 340.359C189.609 340.359 189.013 340.667 188.617 341.281C188.221 341.891 188.023 342.724 188.023 343.781C188.023 344.833 188.219 345.646 188.609 346.219C189.005 346.792 189.604 347.078 190.406 347.078ZM197.977 336.578L198.094 336.75C198 337.13 197.88 337.539 197.734 337.977C197.589 338.409 197.43 338.841 197.258 339.273C197.086 339.706 196.914 340.112 196.742 340.492H195.789C195.867 340.195 195.945 339.878 196.023 339.539C196.107 339.201 196.185 338.857 196.258 338.508C196.331 338.159 196.396 337.82 196.453 337.492C196.516 337.164 196.568 336.859 196.609 336.578H197.977ZM202.875 339.297C203.896 339.297 204.654 339.526 205.148 339.984C205.643 340.443 205.891 341.174 205.891 342.18V348H204.945L204.695 346.734H204.633C204.393 347.047 204.143 347.31 203.883 347.523C203.622 347.732 203.32 347.891 202.977 348C202.638 348.104 202.221 348.156 201.727 348.156C201.206 348.156 200.742 348.065 200.336 347.883C199.935 347.701 199.617 347.424 199.383 347.055C199.154 346.685 199.039 346.216 199.039 345.648C199.039 344.794 199.378 344.138 200.055 343.68C200.732 343.221 201.763 342.971 203.148 342.93L204.625 342.867V342.344C204.625 341.604 204.466 341.086 204.148 340.789C203.831 340.492 203.383 340.344 202.805 340.344C202.357 340.344 201.93 340.409 201.523 340.539C201.117 340.669 200.732 340.823 200.367 341L199.969 340.016C200.354 339.818 200.797 339.648 201.297 339.508C201.797 339.367 202.323 339.297 202.875 339.297ZM204.609 343.781L203.305 343.836C202.237 343.878 201.484 344.052 201.047 344.359C200.609 344.667 200.391 345.102 200.391 345.664C200.391 346.154 200.539 346.516 200.836 346.75C201.133 346.984 201.526 347.102 202.016 347.102C202.776 347.102 203.398 346.891 203.883 346.469C204.367 346.047 204.609 345.414 204.609 344.57V343.781ZM212.586 339.281C213.654 339.281 214.505 339.648 215.141 340.383C215.776 341.117 216.094 342.221 216.094 343.695C216.094 344.669 215.948 345.487 215.656 346.148C215.365 346.81 214.953 347.31 214.422 347.648C213.896 347.987 213.273 348.156 212.555 348.156C212.102 348.156 211.703 348.096 211.359 347.977C211.016 347.857 210.721 347.695 210.477 347.492C210.232 347.289 210.029 347.068 209.867 346.828H209.773C209.789 347.031 209.807 347.276 209.828 347.562C209.854 347.849 209.867 348.099 209.867 348.312V351.828H208.562V339.438H209.633L209.805 340.703H209.867C210.034 340.443 210.237 340.206 210.477 339.992C210.716 339.773 211.008 339.602 211.352 339.477C211.701 339.346 212.112 339.281 212.586 339.281ZM212.359 340.375C211.766 340.375 211.286 340.49 210.922 340.719C210.562 340.948 210.299 341.292 210.133 341.75C209.966 342.203 209.878 342.773 209.867 343.461V343.711C209.867 344.435 209.945 345.047 210.102 345.547C210.263 346.047 210.526 346.427 210.891 346.688C211.26 346.948 211.755 347.078 212.375 347.078C212.906 347.078 213.349 346.935 213.703 346.648C214.057 346.362 214.32 345.964 214.492 345.453C214.669 344.938 214.758 344.346 214.758 343.68C214.758 342.669 214.56 341.867 214.164 341.273C213.773 340.674 213.172 340.375 212.359 340.375ZM222.383 339.281C223.451 339.281 224.302 339.648 224.938 340.383C225.573 341.117 225.891 342.221 225.891 343.695C225.891 344.669 225.745 345.487 225.453 346.148C225.161 346.81 224.75 347.31 224.219 347.648C223.693 347.987 223.07 348.156 222.352 348.156C221.898 348.156 221.5 348.096 221.156 347.977C220.812 347.857 220.518 347.695 220.273 347.492C220.029 347.289 219.826 347.068 219.664 346.828H219.57C219.586 347.031 219.604 347.276 219.625 347.562C219.651 347.849 219.664 348.099 219.664 348.312V351.828H218.359V339.438H219.43L219.602 340.703H219.664C219.831 340.443 220.034 340.206 220.273 339.992C220.513 339.773 220.805 339.602 221.148 339.477C221.497 339.346 221.909 339.281 222.383 339.281ZM222.156 340.375C221.562 340.375 221.083 340.49 220.719 340.719C220.359 340.948 220.096 341.292 219.93 341.75C219.763 342.203 219.674 342.773 219.664 343.461V343.711C219.664 344.435 219.742 345.047 219.898 345.547C220.06 346.047 220.323 346.427 220.688 346.688C221.057 346.948 221.552 347.078 222.172 347.078C222.703 347.078 223.146 346.935 223.5 346.648C223.854 346.362 224.117 345.964 224.289 345.453C224.466 344.938 224.555 344.346 224.555 343.68C224.555 342.669 224.357 341.867 223.961 341.273C223.57 340.674 222.969 340.375 222.156 340.375ZM229.461 348H228.156V335.844H229.461V348ZM233.5 339.438V348H232.203V339.438H233.5ZM232.867 336.234C233.081 336.234 233.263 336.305 233.414 336.445C233.57 336.581 233.648 336.794 233.648 337.086C233.648 337.372 233.57 337.586 233.414 337.727C233.263 337.867 233.081 337.938 232.867 337.938C232.643 337.938 232.456 337.867 232.305 337.727C232.159 337.586 232.086 337.372 232.086 337.086C232.086 336.794 232.159 336.581 232.305 336.445C232.456 336.305 232.643 336.234 232.867 336.234ZM239.68 348.156C238.909 348.156 238.229 347.997 237.641 347.68C237.052 347.362 236.594 346.878 236.266 346.227C235.938 345.576 235.773 344.755 235.773 343.766C235.773 342.729 235.945 341.883 236.289 341.227C236.638 340.565 237.117 340.076 237.727 339.758C238.336 339.44 239.029 339.281 239.805 339.281C240.232 339.281 240.643 339.326 241.039 339.414C241.44 339.497 241.768 339.604 242.023 339.734L241.633 340.82C241.372 340.716 241.07 340.622 240.727 340.539C240.388 340.456 240.07 340.414 239.773 340.414C239.18 340.414 238.685 340.542 238.289 340.797C237.898 341.052 237.604 341.427 237.406 341.922C237.214 342.417 237.117 343.026 237.117 343.75C237.117 344.443 237.211 345.034 237.398 345.523C237.591 346.013 237.875 346.388 238.25 346.648C238.63 346.904 239.104 347.031 239.672 347.031C240.125 347.031 240.534 346.984 240.898 346.891C241.263 346.792 241.594 346.677 241.891 346.547V347.703C241.604 347.849 241.284 347.961 240.93 348.039C240.581 348.117 240.164 348.156 239.68 348.156ZM247.125 339.297C248.146 339.297 248.904 339.526 249.398 339.984C249.893 340.443 250.141 341.174 250.141 342.18V348H249.195L248.945 346.734H248.883C248.643 347.047 248.393 347.31 248.133 347.523C247.872 347.732 247.57 347.891 247.227 348C246.888 348.104 246.471 348.156 245.977 348.156C245.456 348.156 244.992 348.065 244.586 347.883C244.185 347.701 243.867 347.424 243.633 347.055C243.404 346.685 243.289 346.216 243.289 345.648C243.289 344.794 243.628 344.138 244.305 343.68C244.982 343.221 246.013 342.971 247.398 342.93L248.875 342.867V342.344C248.875 341.604 248.716 341.086 248.398 340.789C248.081 340.492 247.633 340.344 247.055 340.344C246.607 340.344 246.18 340.409 245.773 340.539C245.367 340.669 244.982 340.823 244.617 341L244.219 340.016C244.604 339.818 245.047 339.648 245.547 339.508C246.047 339.367 246.573 339.297 247.125 339.297ZM248.859 343.781L247.555 343.836C246.487 343.878 245.734 344.052 245.297 344.359C244.859 344.667 244.641 345.102 244.641 345.664C244.641 346.154 244.789 346.516 245.086 346.75C245.383 346.984 245.776 347.102 246.266 347.102C247.026 347.102 247.648 346.891 248.133 346.469C248.617 346.047 248.859 345.414 248.859 344.57V343.781ZM255.578 347.094C255.792 347.094 256.01 347.076 256.234 347.039C256.458 347.003 256.641 346.958 256.781 346.906V347.914C256.63 347.982 256.419 348.039 256.148 348.086C255.883 348.133 255.622 348.156 255.367 348.156C254.914 348.156 254.503 348.078 254.133 347.922C253.763 347.76 253.466 347.49 253.242 347.109C253.023 346.729 252.914 346.203 252.914 345.531V340.453H251.695V339.82L252.922 339.312L253.438 337.453H254.219V339.438H256.727V340.453H254.219V345.492C254.219 346.029 254.341 346.43 254.586 346.695C254.836 346.961 255.167 347.094 255.578 347.094ZM259.812 339.438V348H258.516V339.438H259.812ZM259.18 336.234C259.393 336.234 259.576 336.305 259.727 336.445C259.883 336.581 259.961 336.794 259.961 337.086C259.961 337.372 259.883 337.586 259.727 337.727C259.576 337.867 259.393 337.938 259.18 337.938C258.956 337.938 258.768 337.867 258.617 337.727C258.471 337.586 258.398 337.372 258.398 337.086C258.398 336.794 258.471 336.581 258.617 336.445C258.768 336.305 258.956 336.234 259.18 336.234ZM269.945 343.703C269.945 344.406 269.854 345.034 269.672 345.586C269.49 346.138 269.227 346.604 268.883 346.984C268.539 347.365 268.122 347.656 267.633 347.859C267.148 348.057 266.599 348.156 265.984 348.156C265.411 348.156 264.885 348.057 264.406 347.859C263.932 347.656 263.521 347.365 263.172 346.984C262.828 346.604 262.56 346.138 262.367 345.586C262.18 345.034 262.086 344.406 262.086 343.703C262.086 342.766 262.245 341.969 262.562 341.312C262.88 340.651 263.333 340.148 263.922 339.805C264.516 339.456 265.221 339.281 266.039 339.281C266.82 339.281 267.503 339.456 268.086 339.805C268.674 340.154 269.13 340.659 269.453 341.32C269.781 341.977 269.945 342.771 269.945 343.703ZM263.43 343.703C263.43 344.391 263.521 344.987 263.703 345.492C263.885 345.997 264.167 346.388 264.547 346.664C264.927 346.94 265.417 347.078 266.016 347.078C266.609 347.078 267.096 346.94 267.477 346.664C267.862 346.388 268.146 345.997 268.328 345.492C268.51 344.987 268.602 344.391 268.602 343.703C268.602 343.021 268.51 342.432 268.328 341.938C268.146 341.438 267.865 341.052 267.484 340.781C267.104 340.51 266.612 340.375 266.008 340.375C265.117 340.375 264.464 340.669 264.047 341.258C263.635 341.846 263.43 342.661 263.43 343.703ZM276.242 339.281C277.258 339.281 278.026 339.531 278.547 340.031C279.068 340.526 279.328 341.323 279.328 342.422V348H278.047V342.508C278.047 341.794 277.883 341.26 277.555 340.906C277.232 340.552 276.734 340.375 276.062 340.375C275.115 340.375 274.448 340.643 274.062 341.18C273.677 341.716 273.484 342.495 273.484 343.516V348H272.188V339.438H273.234L273.43 340.672H273.5C273.682 340.37 273.914 340.117 274.195 339.914C274.477 339.706 274.792 339.549 275.141 339.445C275.49 339.336 275.857 339.281 276.242 339.281ZM299.328 336.578L296.273 348H294.938L292.672 340.312C292.604 340.094 292.539 339.875 292.477 339.656C292.419 339.432 292.365 339.221 292.312 339.023C292.26 338.82 292.216 338.643 292.18 338.492C292.148 338.336 292.125 338.219 292.109 338.141C292.099 338.219 292.078 338.333 292.047 338.484C292.021 338.635 291.984 338.81 291.938 339.008C291.896 339.206 291.844 339.417 291.781 339.641C291.724 339.865 291.661 340.091 291.594 340.32L289.391 348H288.055L285.023 336.578H286.406L288.242 343.742C288.305 343.982 288.362 344.219 288.414 344.453C288.471 344.682 288.521 344.906 288.562 345.125C288.609 345.344 288.651 345.557 288.688 345.766C288.724 345.974 288.758 346.177 288.789 346.375C288.815 346.172 288.849 345.961 288.891 345.742C288.932 345.518 288.977 345.292 289.023 345.062C289.076 344.833 289.13 344.602 289.188 344.367C289.25 344.133 289.315 343.898 289.383 343.664L291.438 336.578H292.805L294.945 343.719C295.018 343.964 295.086 344.206 295.148 344.445C295.211 344.685 295.266 344.919 295.312 345.148C295.365 345.372 295.409 345.589 295.445 345.797C295.487 346 295.523 346.193 295.555 346.375C295.591 346.12 295.635 345.852 295.688 345.57C295.74 345.289 295.799 344.995 295.867 344.688C295.94 344.38 296.018 344.062 296.102 343.734L297.938 336.578H299.328ZM304.234 339.281C304.964 339.281 305.589 339.443 306.109 339.766C306.63 340.089 307.029 340.542 307.305 341.125C307.581 341.703 307.719 342.38 307.719 343.156V343.961H301.805C301.82 344.966 302.07 345.732 302.555 346.258C303.039 346.784 303.721 347.047 304.602 347.047C305.143 347.047 305.622 346.997 306.039 346.898C306.456 346.799 306.888 346.654 307.336 346.461V347.602C306.904 347.794 306.474 347.935 306.047 348.023C305.625 348.112 305.125 348.156 304.547 348.156C303.724 348.156 303.005 347.99 302.391 347.656C301.781 347.318 301.307 346.823 300.969 346.172C300.63 345.521 300.461 344.724 300.461 343.781C300.461 342.859 300.615 342.062 300.922 341.391C301.234 340.714 301.672 340.193 302.234 339.828C302.802 339.464 303.469 339.281 304.234 339.281ZM304.219 340.344C303.526 340.344 302.974 340.57 302.562 341.023C302.151 341.477 301.906 342.109 301.828 342.922H306.359C306.354 342.411 306.273 341.964 306.117 341.578C305.966 341.188 305.734 340.885 305.422 340.672C305.109 340.453 304.708 340.344 304.219 340.344ZM311.219 335.844V338.883C311.219 339.232 311.208 339.57 311.188 339.898C311.172 340.227 311.159 340.482 311.148 340.664H311.219C311.453 340.279 311.792 339.953 312.234 339.688C312.677 339.422 313.242 339.289 313.93 339.289C315.003 339.289 315.857 339.661 316.492 340.406C317.133 341.146 317.453 342.247 317.453 343.711C317.453 344.674 317.307 345.487 317.016 346.148C316.724 346.81 316.312 347.31 315.781 347.648C315.25 347.987 314.622 348.156 313.898 348.156C313.221 348.156 312.664 348.031 312.227 347.781C311.794 347.526 311.461 347.216 311.227 346.852H311.125L310.859 348H309.922V335.844H311.219ZM313.719 340.375C313.099 340.375 312.607 340.497 312.242 340.742C311.878 340.982 311.615 341.346 311.453 341.836C311.297 342.32 311.219 342.935 311.219 343.68V343.75C311.219 344.828 311.398 345.654 311.758 346.227C312.117 346.794 312.771 347.078 313.719 347.078C314.516 347.078 315.112 346.786 315.508 346.203C315.909 345.62 316.109 344.786 316.109 343.703C316.109 342.599 315.911 341.768 315.516 341.211C315.125 340.654 314.526 340.375 313.719 340.375ZM327.375 336.398C327.938 336.398 328.422 336.497 328.828 336.695C329.24 336.888 329.555 337.167 329.773 337.531C329.997 337.896 330.109 338.336 330.109 338.852C330.109 339.529 329.888 340.102 329.445 340.57C329.008 341.039 328.451 341.466 327.773 341.852L330.945 344.93C331.232 344.596 331.466 344.211 331.648 343.773C331.831 343.331 331.984 342.852 332.109 342.336H333.422C333.255 343.023 333.039 343.656 332.773 344.234C332.513 344.812 332.185 345.32 331.789 345.758L334.078 348H332.32L330.906 346.617C330.573 346.924 330.214 347.195 329.828 347.43C329.448 347.659 329.023 347.839 328.555 347.969C328.091 348.094 327.56 348.156 326.961 348.156C326.232 348.156 325.599 348.036 325.062 347.797C324.526 347.557 324.109 347.206 323.812 346.742C323.521 346.279 323.375 345.711 323.375 345.039C323.375 344.487 323.477 344.013 323.68 343.617C323.883 343.221 324.172 342.87 324.547 342.562C324.922 342.255 325.37 341.956 325.891 341.664C325.646 341.393 325.414 341.12 325.195 340.844C324.977 340.562 324.799 340.263 324.664 339.945C324.529 339.622 324.461 339.268 324.461 338.883C324.461 338.362 324.578 337.917 324.812 337.547C325.052 337.177 325.388 336.893 325.82 336.695C326.258 336.497 326.776 336.398 327.375 336.398ZM326.672 342.484C326.266 342.719 325.917 342.951 325.625 343.18C325.339 343.409 325.117 343.667 324.961 343.953C324.81 344.24 324.734 344.586 324.734 344.992C324.734 345.602 324.94 346.091 325.352 346.461C325.763 346.826 326.312 347.008 327 347.008C327.708 347.008 328.31 346.891 328.805 346.656C329.305 346.422 329.729 346.138 330.078 345.805L326.672 342.484ZM327.328 337.469C326.854 337.469 326.469 337.594 326.172 337.844C325.88 338.089 325.734 338.432 325.734 338.875C325.734 339.271 325.841 339.635 326.055 339.969C326.268 340.302 326.573 340.672 326.969 341.078C327.62 340.719 328.091 340.372 328.383 340.039C328.68 339.701 328.828 339.305 328.828 338.852C328.828 338.44 328.69 338.107 328.414 337.852C328.143 337.596 327.781 337.469 327.328 337.469ZM344.906 348L341.07 337.891H341.008C341.029 338.104 341.047 338.365 341.062 338.672C341.078 338.979 341.091 339.315 341.102 339.68C341.112 340.039 341.117 340.406 341.117 340.781V348H339.883V336.578H341.852L345.469 346.078H345.523L349.195 336.578H351.148V348H349.836V340.688C349.836 340.349 349.841 340.01 349.852 339.672C349.862 339.328 349.875 339.005 349.891 338.703C349.906 338.396 349.922 338.13 349.938 337.906H349.875L345.992 348H344.906ZM361.461 343.703C361.461 344.406 361.37 345.034 361.188 345.586C361.005 346.138 360.742 346.604 360.398 346.984C360.055 347.365 359.638 347.656 359.148 347.859C358.664 348.057 358.115 348.156 357.5 348.156C356.927 348.156 356.401 348.057 355.922 347.859C355.448 347.656 355.036 347.365 354.688 346.984C354.344 346.604 354.076 346.138 353.883 345.586C353.695 345.034 353.602 344.406 353.602 343.703C353.602 342.766 353.76 341.969 354.078 341.312C354.396 340.651 354.849 340.148 355.438 339.805C356.031 339.456 356.737 339.281 357.555 339.281C358.336 339.281 359.018 339.456 359.602 339.805C360.19 340.154 360.646 340.659 360.969 341.32C361.297 341.977 361.461 342.771 361.461 343.703ZM354.945 343.703C354.945 344.391 355.036 344.987 355.219 345.492C355.401 345.997 355.682 346.388 356.062 346.664C356.443 346.94 356.932 347.078 357.531 347.078C358.125 347.078 358.612 346.94 358.992 346.664C359.378 346.388 359.661 345.997 359.844 345.492C360.026 344.987 360.117 344.391 360.117 343.703C360.117 343.021 360.026 342.432 359.844 341.938C359.661 341.438 359.38 341.052 359 340.781C358.62 340.51 358.128 340.375 357.523 340.375C356.633 340.375 355.979 340.669 355.562 341.258C355.151 341.846 354.945 342.661 354.945 343.703ZM365 335.844V338.883C365 339.232 364.99 339.57 364.969 339.898C364.953 340.227 364.94 340.482 364.93 340.664H365C365.234 340.279 365.573 339.953 366.016 339.688C366.458 339.422 367.023 339.289 367.711 339.289C368.784 339.289 369.638 339.661 370.273 340.406C370.914 341.146 371.234 342.247 371.234 343.711C371.234 344.674 371.089 345.487 370.797 346.148C370.505 346.81 370.094 347.31 369.562 347.648C369.031 347.987 368.404 348.156 367.68 348.156C367.003 348.156 366.445 348.031 366.008 347.781C365.576 347.526 365.242 347.216 365.008 346.852H364.906L364.641 348H363.703V335.844H365ZM367.5 340.375C366.88 340.375 366.388 340.497 366.023 340.742C365.659 340.982 365.396 341.346 365.234 341.836C365.078 342.32 365 342.935 365 343.68V343.75C365 344.828 365.18 345.654 365.539 346.227C365.898 346.794 366.552 347.078 367.5 347.078C368.297 347.078 368.893 346.786 369.289 346.203C369.69 345.62 369.891 344.786 369.891 343.703C369.891 342.599 369.693 341.768 369.297 341.211C368.906 340.654 368.307 340.375 367.5 340.375ZM374.797 339.438V348H373.5V339.438H374.797ZM374.164 336.234C374.378 336.234 374.56 336.305 374.711 336.445C374.867 336.581 374.945 336.794 374.945 337.086C374.945 337.372 374.867 337.586 374.711 337.727C374.56 337.867 374.378 337.938 374.164 337.938C373.94 337.938 373.753 337.867 373.602 337.727C373.456 337.586 373.383 337.372 373.383 337.086C373.383 336.794 373.456 336.581 373.602 336.445C373.753 336.305 373.94 336.234 374.164 336.234ZM378.852 348H377.547V335.844H378.852V348ZM384.891 339.281C385.62 339.281 386.245 339.443 386.766 339.766C387.286 340.089 387.685 340.542 387.961 341.125C388.237 341.703 388.375 342.38 388.375 343.156V343.961H382.461C382.477 344.966 382.727 345.732 383.211 346.258C383.695 346.784 384.378 347.047 385.258 347.047C385.799 347.047 386.279 346.997 386.695 346.898C387.112 346.799 387.544 346.654 387.992 346.461V347.602C387.56 347.794 387.13 347.935 386.703 348.023C386.281 348.112 385.781 348.156 385.203 348.156C384.38 348.156 383.661 347.99 383.047 347.656C382.438 347.318 381.964 346.823 381.625 346.172C381.286 345.521 381.117 344.724 381.117 343.781C381.117 342.859 381.271 342.062 381.578 341.391C381.891 340.714 382.328 340.193 382.891 339.828C383.458 339.464 384.125 339.281 384.891 339.281ZM384.875 340.344C384.182 340.344 383.63 340.57 383.219 341.023C382.807 341.477 382.562 342.109 382.484 342.922H387.016C387.01 342.411 386.93 341.964 386.773 341.578C386.622 341.188 386.391 340.885 386.078 340.672C385.766 340.453 385.365 340.344 384.875 340.344Z" fill="white"/>
<path opacity="0.9" d="M254.571 109L254.694 108.405L258.194 105.24C258.563 104.903 258.914 104.575 259.247 104.256C259.58 103.937 259.874 103.613 260.129 103.285C260.389 102.952 260.591 102.606 260.737 102.246C260.888 101.882 260.963 101.487 260.963 101.063C260.963 100.576 260.812 100.191 260.512 99.9082C260.211 99.6211 259.801 99.4775 259.281 99.4775C259.017 99.4775 258.755 99.5117 258.495 99.5801C258.24 99.6484 257.985 99.7487 257.729 99.8809C257.474 100.013 257.217 100.175 256.957 100.366L256.622 99.874C257.064 99.5368 257.513 99.2839 257.969 99.1152C258.424 98.9466 258.88 98.8623 259.336 98.8623C259.819 98.8623 260.234 98.9535 260.58 99.1357C260.931 99.3135 261.2 99.5618 261.387 99.8809C261.578 100.2 261.674 100.569 261.674 100.988C261.674 101.585 261.551 102.134 261.305 102.636C261.059 103.132 260.708 103.62 260.252 104.099C259.801 104.577 259.268 105.09 258.652 105.637L255.624 108.33V108.357H260.601L260.478 109H254.571ZM265.481 109.137C264.729 109.137 264.137 108.87 263.704 108.337C263.271 107.804 263.055 107.024 263.055 105.999C263.055 105.507 263.087 104.99 263.15 104.447C263.219 103.905 263.324 103.367 263.465 102.834C263.606 102.296 263.786 101.79 264.005 101.316C264.228 100.838 264.49 100.414 264.791 100.045C265.096 99.6712 265.447 99.3796 265.844 99.1699C266.24 98.9557 266.685 98.8486 267.177 98.8486C267.591 98.8486 267.949 98.917 268.25 99.0537C268.555 99.1904 268.808 99.3887 269.009 99.6484C269.209 99.9082 269.357 100.223 269.453 100.592C269.553 100.956 269.604 101.371 269.604 101.836C269.604 102.406 269.567 102.982 269.494 103.565C269.421 104.144 269.31 104.707 269.159 105.254C269.009 105.796 268.82 106.302 268.592 106.771C268.368 107.241 268.104 107.653 267.799 108.009C267.493 108.364 267.147 108.642 266.76 108.843C266.377 109.039 265.951 109.137 265.481 109.137ZM265.543 108.528C265.912 108.528 266.249 108.435 266.555 108.248C266.865 108.057 267.143 107.795 267.389 107.462C267.639 107.129 267.858 106.746 268.045 106.313C268.232 105.876 268.389 105.409 268.517 104.912C268.644 104.411 268.738 103.9 268.797 103.381C268.861 102.857 268.893 102.344 268.893 101.843C268.893 101.091 268.751 100.507 268.469 100.093C268.186 99.6735 267.744 99.4639 267.143 99.4639C266.755 99.4639 266.402 99.5618 266.083 99.7578C265.769 99.9492 265.484 100.214 265.229 100.551C264.978 100.888 264.759 101.275 264.572 101.713C264.39 102.146 264.237 102.606 264.114 103.094C263.996 103.581 263.907 104.074 263.848 104.57C263.788 105.062 263.759 105.536 263.759 105.992C263.759 106.831 263.914 107.464 264.224 107.893C264.534 108.316 264.973 108.528 265.543 108.528ZM269.993 109L270.116 108.405L273.616 105.24C273.985 104.903 274.336 104.575 274.669 104.256C275.002 103.937 275.296 103.613 275.551 103.285C275.811 102.952 276.013 102.606 276.159 102.246C276.31 101.882 276.385 101.487 276.385 101.063C276.385 100.576 276.234 100.191 275.934 99.9082C275.633 99.6211 275.223 99.4775 274.703 99.4775C274.439 99.4775 274.177 99.5117 273.917 99.5801C273.662 99.6484 273.407 99.7487 273.151 99.8809C272.896 100.013 272.639 100.175 272.379 100.366L272.044 99.874C272.486 99.5368 272.935 99.2839 273.391 99.1152C273.846 98.9466 274.302 98.8623 274.758 98.8623C275.241 98.8623 275.656 98.9535 276.002 99.1357C276.353 99.3135 276.622 99.5618 276.809 99.8809C277 100.2 277.096 100.569 277.096 100.988C277.096 101.585 276.973 102.134 276.727 102.636C276.48 103.132 276.13 103.62 275.674 104.099C275.223 104.577 274.689 105.09 274.074 105.637L271.046 108.33V108.357H276.022L275.899 109H269.993ZM280.452 109.137C280.142 109.137 279.844 109.114 279.557 109.068C279.27 109.023 279.005 108.957 278.764 108.87C278.522 108.784 278.31 108.683 278.128 108.569V107.858C278.415 108.054 278.766 108.216 279.181 108.344C279.6 108.471 280.031 108.535 280.473 108.535C280.933 108.535 281.354 108.471 281.737 108.344C282.12 108.212 282.451 108.02 282.729 107.77C283.007 107.519 283.221 107.214 283.371 106.854C283.521 106.489 283.597 106.072 283.597 105.603C283.597 104.978 283.41 104.481 283.036 104.112C282.667 103.743 282.143 103.559 281.464 103.559C281.104 103.559 280.785 103.586 280.507 103.641C280.229 103.691 279.924 103.761 279.591 103.853L279.263 103.579L280.616 99.0059H285.114L284.984 99.6484H281.088L280.028 103.189C280.233 103.135 280.464 103.085 280.719 103.039C280.974 102.993 281.279 102.971 281.635 102.971C282.173 102.971 282.642 103.078 283.043 103.292C283.444 103.502 283.756 103.798 283.979 104.181C284.203 104.563 284.314 105.015 284.314 105.534C284.314 106.072 284.226 106.562 284.048 107.004C283.87 107.441 283.613 107.82 283.275 108.139C282.943 108.458 282.537 108.704 282.059 108.877C281.585 109.05 281.049 109.137 280.452 109.137ZM285.784 105.541L285.921 104.892H289.182L289.045 105.541H285.784ZM289.79 109L289.913 108.405L293.413 105.24C293.782 104.903 294.133 104.575 294.466 104.256C294.799 103.937 295.092 103.613 295.348 103.285C295.607 102.952 295.81 102.606 295.956 102.246C296.106 101.882 296.182 101.487 296.182 101.063C296.182 100.576 296.031 100.191 295.73 99.9082C295.43 99.6211 295.02 99.4775 294.5 99.4775C294.236 99.4775 293.974 99.5117 293.714 99.5801C293.459 99.6484 293.203 99.7487 292.948 99.8809C292.693 100.013 292.436 100.175 292.176 100.366L291.841 99.874C292.283 99.5368 292.732 99.2839 293.188 99.1152C293.643 98.9466 294.099 98.8623 294.555 98.8623C295.038 98.8623 295.452 98.9535 295.799 99.1357C296.15 99.3135 296.419 99.5618 296.605 99.8809C296.797 100.2 296.893 100.569 296.893 100.988C296.893 101.585 296.77 102.134 296.523 102.636C296.277 103.132 295.926 103.62 295.471 104.099C295.02 104.577 294.486 105.09 293.871 105.637L290.843 108.33V108.357H295.819L295.696 109H289.79ZM300.7 109.137C299.948 109.137 299.356 108.87 298.923 108.337C298.49 107.804 298.273 107.024 298.273 105.999C298.273 105.507 298.305 104.99 298.369 104.447C298.438 103.905 298.542 103.367 298.684 102.834C298.825 102.296 299.005 101.79 299.224 101.316C299.447 100.838 299.709 100.414 300.01 100.045C300.315 99.6712 300.666 99.3796 301.062 99.1699C301.459 98.9557 301.903 98.8486 302.396 98.8486C302.81 98.8486 303.168 98.917 303.469 99.0537C303.774 99.1904 304.027 99.3887 304.228 99.6484C304.428 99.9082 304.576 100.223 304.672 100.592C304.772 100.956 304.822 101.371 304.822 101.836C304.822 102.406 304.786 102.982 304.713 103.565C304.64 104.144 304.528 104.707 304.378 105.254C304.228 105.796 304.038 106.302 303.811 106.771C303.587 107.241 303.323 107.653 303.018 108.009C302.712 108.364 302.366 108.642 301.979 108.843C301.596 109.039 301.17 109.137 300.7 109.137ZM300.762 108.528C301.131 108.528 301.468 108.435 301.773 108.248C302.083 108.057 302.361 107.795 302.607 107.462C302.858 107.129 303.077 106.746 303.264 106.313C303.451 105.876 303.608 105.409 303.735 104.912C303.863 104.411 303.956 103.9 304.016 103.381C304.079 102.857 304.111 102.344 304.111 101.843C304.111 101.091 303.97 100.507 303.688 100.093C303.405 99.6735 302.963 99.4639 302.361 99.4639C301.974 99.4639 301.621 99.5618 301.302 99.7578C300.987 99.9492 300.702 100.214 300.447 100.551C300.197 100.888 299.978 101.275 299.791 101.713C299.609 102.146 299.456 102.606 299.333 103.094C299.215 103.581 299.126 104.074 299.066 104.57C299.007 105.062 298.978 105.536 298.978 105.992C298.978 106.831 299.132 107.464 299.442 107.893C299.752 108.316 300.192 108.528 300.762 108.528ZM305.212 109L305.335 108.405L308.835 105.24C309.204 104.903 309.555 104.575 309.888 104.256C310.22 103.937 310.514 103.613 310.77 103.285C311.029 102.952 311.232 102.606 311.378 102.246C311.528 101.882 311.604 101.487 311.604 101.063C311.604 100.576 311.453 100.191 311.152 99.9082C310.852 99.6211 310.441 99.4775 309.922 99.4775C309.658 99.4775 309.396 99.5117 309.136 99.5801C308.881 99.6484 308.625 99.7487 308.37 99.8809C308.115 100.013 307.857 100.175 307.598 100.366L307.263 99.874C307.705 99.5368 308.154 99.2839 308.609 99.1152C309.065 98.9466 309.521 98.8623 309.977 98.8623C310.46 98.8623 310.874 98.9535 311.221 99.1357C311.572 99.3135 311.84 99.5618 312.027 99.8809C312.219 100.2 312.314 100.569 312.314 100.988C312.314 101.585 312.191 102.134 311.945 102.636C311.699 103.132 311.348 103.62 310.893 104.099C310.441 104.577 309.908 105.09 309.293 105.637L306.265 108.33V108.357H311.241L311.118 109H305.212ZM314.242 109L319.793 99.6279H314.502L314.625 99.0059H320.688L320.593 99.5186L315.021 109H314.242Z" fill="white"/>
<path opacity="0.9" d="M254.571 244L254.694 243.405L258.194 240.24C258.563 239.903 258.914 239.575 259.247 239.256C259.58 238.937 259.874 238.613 260.129 238.285C260.389 237.952 260.591 237.606 260.737 237.246C260.888 236.882 260.963 236.487 260.963 236.063C260.963 235.576 260.812 235.191 260.512 234.908C260.211 234.621 259.801 234.478 259.281 234.478C259.017 234.478 258.755 234.512 258.495 234.58C258.24 234.648 257.985 234.749 257.729 234.881C257.474 235.013 257.217 235.175 256.957 235.366L256.622 234.874C257.064 234.537 257.513 234.284 257.969 234.115C258.424 233.947 258.88 233.862 259.336 233.862C259.819 233.862 260.234 233.953 260.58 234.136C260.931 234.313 261.2 234.562 261.387 234.881C261.578 235.2 261.674 235.569 261.674 235.988C261.674 236.585 261.551 237.134 261.305 237.636C261.059 238.132 260.708 238.62 260.252 239.099C259.801 239.577 259.268 240.09 258.652 240.637L255.624 243.33V243.357H260.601L260.478 244H254.571ZM265.481 244.137C264.729 244.137 264.137 243.87 263.704 243.337C263.271 242.804 263.055 242.024 263.055 240.999C263.055 240.507 263.087 239.99 263.15 239.447C263.219 238.905 263.324 238.367 263.465 237.834C263.606 237.296 263.786 236.79 264.005 236.316C264.228 235.838 264.49 235.414 264.791 235.045C265.096 234.671 265.447 234.38 265.844 234.17C266.24 233.956 266.685 233.849 267.177 233.849C267.591 233.849 267.949 233.917 268.25 234.054C268.555 234.19 268.808 234.389 269.009 234.648C269.209 234.908 269.357 235.223 269.453 235.592C269.553 235.956 269.604 236.371 269.604 236.836C269.604 237.406 269.567 237.982 269.494 238.565C269.421 239.144 269.31 239.707 269.159 240.254C269.009 240.796 268.82 241.302 268.592 241.771C268.368 242.241 268.104 242.653 267.799 243.009C267.493 243.364 267.147 243.642 266.76 243.843C266.377 244.039 265.951 244.137 265.481 244.137ZM265.543 243.528C265.912 243.528 266.249 243.435 266.555 243.248C266.865 243.057 267.143 242.795 267.389 242.462C267.639 242.129 267.858 241.746 268.045 241.313C268.232 240.876 268.389 240.409 268.517 239.912C268.644 239.411 268.738 238.9 268.797 238.381C268.861 237.857 268.893 237.344 268.893 236.843C268.893 236.091 268.751 235.507 268.469 235.093C268.186 234.674 267.744 234.464 267.143 234.464C266.755 234.464 266.402 234.562 266.083 234.758C265.769 234.949 265.484 235.214 265.229 235.551C264.978 235.888 264.759 236.275 264.572 236.713C264.39 237.146 264.237 237.606 264.114 238.094C263.996 238.581 263.907 239.074 263.848 239.57C263.788 240.062 263.759 240.536 263.759 240.992C263.759 241.831 263.914 242.464 264.224 242.893C264.534 243.316 264.973 243.528 265.543 243.528ZM269.993 244L270.116 243.405L273.616 240.24C273.985 239.903 274.336 239.575 274.669 239.256C275.002 238.937 275.296 238.613 275.551 238.285C275.811 237.952 276.013 237.606 276.159 237.246C276.31 236.882 276.385 236.487 276.385 236.063C276.385 235.576 276.234 235.191 275.934 234.908C275.633 234.621 275.223 234.478 274.703 234.478C274.439 234.478 274.177 234.512 273.917 234.58C273.662 234.648 273.407 234.749 273.151 234.881C272.896 235.013 272.639 235.175 272.379 235.366L272.044 234.874C272.486 234.537 272.935 234.284 273.391 234.115C273.846 233.947 274.302 233.862 274.758 233.862C275.241 233.862 275.656 233.953 276.002 234.136C276.353 234.313 276.622 234.562 276.809 234.881C277 235.2 277.096 235.569 277.096 235.988C277.096 236.585 276.973 237.134 276.727 237.636C276.48 238.132 276.13 238.62 275.674 239.099C275.223 239.577 274.689 240.09 274.074 240.637L271.046 243.33V243.357H276.022L275.899 244H269.993ZM282.004 244L282.544 241.45H277.766L277.882 240.876L284 233.972H284.8L283.357 240.821H285.039L284.902 241.45H283.214L282.674 244H282.004ZM278.682 240.821H282.674L283.433 237.26C283.515 236.891 283.588 236.56 283.651 236.269C283.72 235.972 283.786 235.699 283.85 235.448C283.918 235.198 283.982 234.956 284.041 234.724H284.007C283.852 234.938 283.69 235.152 283.521 235.366C283.353 235.58 283.161 235.804 282.947 236.036L278.682 240.821ZM285.784 240.541L285.921 239.892H289.182L289.045 240.541H285.784ZM289.79 244L289.913 243.405L293.413 240.24C293.782 239.903 294.133 239.575 294.466 239.256C294.799 238.937 295.092 238.613 295.348 238.285C295.607 237.952 295.81 237.606 295.956 237.246C296.106 236.882 296.182 236.487 296.182 236.063C296.182 235.576 296.031 235.191 295.73 234.908C295.43 234.621 295.02 234.478 294.5 234.478C294.236 234.478 293.974 234.512 293.714 234.58C293.459 234.648 293.203 234.749 292.948 234.881C292.693 235.013 292.436 235.175 292.176 235.366L291.841 234.874C292.283 234.537 292.732 234.284 293.188 234.115C293.643 233.947 294.099 233.862 294.555 233.862C295.038 233.862 295.452 233.953 295.799 234.136C296.15 234.313 296.419 234.562 296.605 234.881C296.797 235.2 296.893 235.569 296.893 235.988C296.893 236.585 296.77 237.134 296.523 237.636C296.277 238.132 295.926 238.62 295.471 239.099C295.02 239.577 294.486 240.09 293.871 240.637L290.843 243.33V243.357H295.819L295.696 244H289.79ZM300.7 244.137C299.948 244.137 299.356 243.87 298.923 243.337C298.49 242.804 298.273 242.024 298.273 240.999C298.273 240.507 298.305 239.99 298.369 239.447C298.438 238.905 298.542 238.367 298.684 237.834C298.825 237.296 299.005 236.79 299.224 236.316C299.447 235.838 299.709 235.414 300.01 235.045C300.315 234.671 300.666 234.38 301.062 234.17C301.459 233.956 301.903 233.849 302.396 233.849C302.81 233.849 303.168 233.917 303.469 234.054C303.774 234.19 304.027 234.389 304.228 234.648C304.428 234.908 304.576 235.223 304.672 235.592C304.772 235.956 304.822 236.371 304.822 236.836C304.822 237.406 304.786 237.982 304.713 238.565C304.64 239.144 304.528 239.707 304.378 240.254C304.228 240.796 304.038 241.302 303.811 241.771C303.587 242.241 303.323 242.653 303.018 243.009C302.712 243.364 302.366 243.642 301.979 243.843C301.596 244.039 301.17 244.137 300.7 244.137ZM300.762 243.528C301.131 243.528 301.468 243.435 301.773 243.248C302.083 243.057 302.361 242.795 302.607 242.462C302.858 242.129 303.077 241.746 303.264 241.313C303.451 240.876 303.608 240.409 303.735 239.912C303.863 239.411 303.956 238.9 304.016 238.381C304.079 237.857 304.111 237.344 304.111 236.843C304.111 236.091 303.97 235.507 303.688 235.093C303.405 234.674 302.963 234.464 302.361 234.464C301.974 234.464 301.621 234.562 301.302 234.758C300.987 234.949 300.702 235.214 300.447 235.551C300.197 235.888 299.978 236.275 299.791 236.713C299.609 237.146 299.456 237.606 299.333 238.094C299.215 238.581 299.126 239.074 299.066 239.57C299.007 240.062 298.978 240.536 298.978 240.992C298.978 241.831 299.132 242.464 299.442 242.893C299.752 243.316 300.192 243.528 300.762 243.528ZM305.212 244L305.335 243.405L308.835 240.24C309.204 239.903 309.555 239.575 309.888 239.256C310.22 238.937 310.514 238.613 310.77 238.285C311.029 237.952 311.232 237.606 311.378 237.246C311.528 236.882 311.604 236.487 311.604 236.063C311.604 235.576 311.453 235.191 311.152 234.908C310.852 234.621 310.441 234.478 309.922 234.478C309.658 234.478 309.396 234.512 309.136 234.58C308.881 234.648 308.625 234.749 308.37 234.881C308.115 235.013 307.857 235.175 307.598 235.366L307.263 234.874C307.705 234.537 308.154 234.284 308.609 234.115C309.065 233.947 309.521 233.862 309.977 233.862C310.46 233.862 310.874 233.953 311.221 234.136C311.572 234.313 311.84 234.562 312.027 234.881C312.219 235.2 312.314 235.569 312.314 235.988C312.314 236.585 312.191 237.134 311.945 237.636C311.699 238.132 311.348 238.62 310.893 239.099C310.441 239.577 309.908 240.09 309.293 240.637L306.265 243.33V243.357H311.241L311.118 244H305.212ZM315.671 244.137C315.361 244.137 315.062 244.114 314.775 244.068C314.488 244.023 314.224 243.957 313.982 243.87C313.741 243.784 313.529 243.683 313.347 243.569V242.858C313.634 243.054 313.985 243.216 314.399 243.344C314.819 243.471 315.249 243.535 315.691 243.535C316.152 243.535 316.573 243.471 316.956 243.344C317.339 243.212 317.669 243.02 317.947 242.77C318.225 242.519 318.439 242.214 318.59 241.854C318.74 241.489 318.815 241.072 318.815 240.603C318.815 239.978 318.629 239.481 318.255 239.112C317.886 238.743 317.362 238.559 316.683 238.559C316.323 238.559 316.004 238.586 315.726 238.641C315.448 238.691 315.142 238.761 314.81 238.853L314.481 238.579L315.835 234.006H320.333L320.203 234.648H316.307L315.247 238.189C315.452 238.135 315.682 238.085 315.938 238.039C316.193 237.993 316.498 237.971 316.854 237.971C317.391 237.971 317.861 238.078 318.262 238.292C318.663 238.502 318.975 238.798 319.198 239.181C319.422 239.563 319.533 240.015 319.533 240.534C319.533 241.072 319.444 241.562 319.267 242.004C319.089 242.441 318.831 242.82 318.494 243.139C318.161 243.458 317.756 243.704 317.277 243.877C316.803 244.05 316.268 244.137 315.671 244.137Z" fill="white"/>
<path opacity="0.9" d="M254.571 370L254.694 369.405L258.194 366.24C258.563 365.903 258.914 365.575 259.247 365.256C259.58 364.937 259.874 364.613 260.129 364.285C260.389 363.952 260.591 363.606 260.737 363.246C260.888 362.882 260.963 362.487 260.963 362.063C260.963 361.576 260.812 361.191 260.512 360.908C260.211 360.621 259.801 360.478 259.281 360.478C259.017 360.478 258.755 360.512 258.495 360.58C258.24 360.648 257.985 360.749 257.729 360.881C257.474 361.013 257.217 361.175 256.957 361.366L256.622 360.874C257.064 360.537 257.513 360.284 257.969 360.115C258.424 359.947 258.88 359.862 259.336 359.862C259.819 359.862 260.234 359.953 260.58 360.136C260.931 360.313 261.2 360.562 261.387 360.881C261.578 361.2 261.674 361.569 261.674 361.988C261.674 362.585 261.551 363.134 261.305 363.636C261.059 364.132 260.708 364.62 260.252 365.099C259.801 365.577 259.268 366.09 258.652 366.637L255.624 369.33V369.357H260.601L260.478 370H254.571ZM265.481 370.137C264.729 370.137 264.137 369.87 263.704 369.337C263.271 368.804 263.055 368.024 263.055 366.999C263.055 366.507 263.087 365.99 263.15 365.447C263.219 364.905 263.324 364.367 263.465 363.834C263.606 363.296 263.786 362.79 264.005 362.316C264.228 361.838 264.49 361.414 264.791 361.045C265.096 360.671 265.447 360.38 265.844 360.17C266.24 359.956 266.685 359.849 267.177 359.849C267.591 359.849 267.949 359.917 268.25 360.054C268.555 360.19 268.808 360.389 269.009 360.648C269.209 360.908 269.357 361.223 269.453 361.592C269.553 361.956 269.604 362.371 269.604 362.836C269.604 363.406 269.567 363.982 269.494 364.565C269.421 365.144 269.31 365.707 269.159 366.254C269.009 366.796 268.82 367.302 268.592 367.771C268.368 368.241 268.104 368.653 267.799 369.009C267.493 369.364 267.147 369.642 266.76 369.843C266.377 370.039 265.951 370.137 265.481 370.137ZM265.543 369.528C265.912 369.528 266.249 369.435 266.555 369.248C266.865 369.057 267.143 368.795 267.389 368.462C267.639 368.129 267.858 367.746 268.045 367.313C268.232 366.876 268.389 366.409 268.517 365.912C268.644 365.411 268.738 364.9 268.797 364.381C268.861 363.857 268.893 363.344 268.893 362.843C268.893 362.091 268.751 361.507 268.469 361.093C268.186 360.674 267.744 360.464 267.143 360.464C266.755 360.464 266.402 360.562 266.083 360.758C265.769 360.949 265.484 361.214 265.229 361.551C264.978 361.888 264.759 362.275 264.572 362.713C264.39 363.146 264.237 363.606 264.114 364.094C263.996 364.581 263.907 365.074 263.848 365.57C263.788 366.062 263.759 366.536 263.759 366.992C263.759 367.831 263.914 368.464 264.224 368.893C264.534 369.316 264.973 369.528 265.543 369.528ZM269.993 370L270.116 369.405L273.616 366.24C273.985 365.903 274.336 365.575 274.669 365.256C275.002 364.937 275.296 364.613 275.551 364.285C275.811 363.952 276.013 363.606 276.159 363.246C276.31 362.882 276.385 362.487 276.385 362.063C276.385 361.576 276.234 361.191 275.934 360.908C275.633 360.621 275.223 360.478 274.703 360.478C274.439 360.478 274.177 360.512 273.917 360.58C273.662 360.648 273.407 360.749 273.151 360.881C272.896 361.013 272.639 361.175 272.379 361.366L272.044 360.874C272.486 360.537 272.935 360.284 273.391 360.115C273.846 359.947 274.302 359.862 274.758 359.862C275.241 359.862 275.656 359.953 276.002 360.136C276.353 360.313 276.622 360.562 276.809 360.881C277 361.2 277.096 361.569 277.096 361.988C277.096 362.585 276.973 363.134 276.727 363.636C276.48 364.132 276.13 364.62 275.674 365.099C275.223 365.577 274.689 366.09 274.074 366.637L271.046 369.33V369.357H276.022L275.899 370H269.993ZM277.704 370L277.827 369.405L281.327 366.24C281.696 365.903 282.047 365.575 282.38 365.256C282.713 364.937 283.007 364.613 283.262 364.285C283.521 363.952 283.724 363.606 283.87 363.246C284.021 362.882 284.096 362.487 284.096 362.063C284.096 361.576 283.945 361.191 283.645 360.908C283.344 360.621 282.934 360.478 282.414 360.478C282.15 360.478 281.888 360.512 281.628 360.58C281.373 360.648 281.118 360.749 280.862 360.881C280.607 361.013 280.35 361.175 280.09 361.366L279.755 360.874C280.197 360.537 280.646 360.284 281.102 360.115C281.557 359.947 282.013 359.862 282.469 359.862C282.952 359.862 283.367 359.953 283.713 360.136C284.064 360.313 284.333 360.562 284.52 360.881C284.711 361.2 284.807 361.569 284.807 361.988C284.807 362.585 284.684 363.134 284.438 363.636C284.191 364.132 283.84 364.62 283.385 365.099C282.934 365.577 282.4 366.09 281.785 366.637L278.757 369.33V369.357H283.733L283.61 370H277.704ZM285.784 366.541L285.921 365.892H289.182L289.045 366.541H285.784ZM289.79 370L289.913 369.405L293.413 366.24C293.782 365.903 294.133 365.575 294.466 365.256C294.799 364.937 295.092 364.613 295.348 364.285C295.607 363.952 295.81 363.606 295.956 363.246C296.106 362.882 296.182 362.487 296.182 362.063C296.182 361.576 296.031 361.191 295.73 360.908C295.43 360.621 295.02 360.478 294.5 360.478C294.236 360.478 293.974 360.512 293.714 360.58C293.459 360.648 293.203 360.749 292.948 360.881C292.693 361.013 292.436 361.175 292.176 361.366L291.841 360.874C292.283 360.537 292.732 360.284 293.188 360.115C293.643 359.947 294.099 359.862 294.555 359.862C295.038 359.862 295.452 359.953 295.799 360.136C296.15 360.313 296.419 360.562 296.605 360.881C296.797 361.2 296.893 361.569 296.893 361.988C296.893 362.585 296.77 363.134 296.523 363.636C296.277 364.132 295.926 364.62 295.471 365.099C295.02 365.577 294.486 366.09 293.871 366.637L290.843 369.33V369.357H295.819L295.696 370H289.79ZM300.7 370.137C299.948 370.137 299.356 369.87 298.923 369.337C298.49 368.804 298.273 368.024 298.273 366.999C298.273 366.507 298.305 365.99 298.369 365.447C298.438 364.905 298.542 364.367 298.684 363.834C298.825 363.296 299.005 362.79 299.224 362.316C299.447 361.838 299.709 361.414 300.01 361.045C300.315 360.671 300.666 360.38 301.062 360.17C301.459 359.956 301.903 359.849 302.396 359.849C302.81 359.849 303.168 359.917 303.469 360.054C303.774 360.19 304.027 360.389 304.228 360.648C304.428 360.908 304.576 361.223 304.672 361.592C304.772 361.956 304.822 362.371 304.822 362.836C304.822 363.406 304.786 363.982 304.713 364.565C304.64 365.144 304.528 365.707 304.378 366.254C304.228 366.796 304.038 367.302 303.811 367.771C303.587 368.241 303.323 368.653 303.018 369.009C302.712 369.364 302.366 369.642 301.979 369.843C301.596 370.039 301.17 370.137 300.7 370.137ZM300.762 369.528C301.131 369.528 301.468 369.435 301.773 369.248C302.083 369.057 302.361 368.795 302.607 368.462C302.858 368.129 303.077 367.746 303.264 367.313C303.451 366.876 303.608 366.409 303.735 365.912C303.863 365.411 303.956 364.9 304.016 364.381C304.079 363.857 304.111 363.344 304.111 362.843C304.111 362.091 303.97 361.507 303.688 361.093C303.405 360.674 302.963 360.464 302.361 360.464C301.974 360.464 301.621 360.562 301.302 360.758C300.987 360.949 300.702 361.214 300.447 361.551C300.197 361.888 299.978 362.275 299.791 362.713C299.609 363.146 299.456 363.606 299.333 364.094C299.215 364.581 299.126 365.074 299.066 365.57C299.007 366.062 298.978 366.536 298.978 366.992C298.978 367.831 299.132 368.464 299.442 368.893C299.752 369.316 300.192 369.528 300.762 369.528ZM305.212 370L305.335 369.405L308.835 366.24C309.204 365.903 309.555 365.575 309.888 365.256C310.22 364.937 310.514 364.613 310.77 364.285C311.029 363.952 311.232 363.606 311.378 363.246C311.528 362.882 311.604 362.487 311.604 362.063C311.604 361.576 311.453 361.191 311.152 360.908C310.852 360.621 310.441 360.478 309.922 360.478C309.658 360.478 309.396 360.512 309.136 360.58C308.881 360.648 308.625 360.749 308.37 360.881C308.115 361.013 307.857 361.175 307.598 361.366L307.263 360.874C307.705 360.537 308.154 360.284 308.609 360.115C309.065 359.947 309.521 359.862 309.977 359.862C310.46 359.862 310.874 359.953 311.221 360.136C311.572 360.313 311.84 360.562 312.027 360.881C312.219 361.2 312.314 361.569 312.314 361.988C312.314 362.585 312.191 363.134 311.945 363.636C311.699 364.132 311.348 364.62 310.893 365.099C310.441 365.577 309.908 366.09 309.293 366.637L306.265 369.33V369.357H311.241L311.118 370H305.212ZM317.223 370L317.763 367.45H312.984L313.101 366.876L319.219 359.972H320.019L318.576 366.821H320.258L320.121 367.45H318.433L317.893 370H317.223ZM313.9 366.821H317.893L318.651 363.26C318.733 362.891 318.806 362.56 318.87 362.269C318.938 361.972 319.005 361.699 319.068 361.448C319.137 361.198 319.201 360.956 319.26 360.724H319.226C319.071 360.938 318.909 361.152 318.74 361.366C318.572 361.58 318.38 361.804 318.166 362.036L313.9 366.821Z" fill="white"/>
<defs>
<radialGradient id="paint0_angular_0_1" cx="0" cy="0" r="1" gradientUnits="userSpaceOnUse" gradientTransform="translate(109.5 210.5) rotate(-180) scale(0.5 182.5)">
<stop offset="0.203125"/>
<stop offset="0.911458" stop-opacity="0.26"/>
</radialGradient>
</defs>
</svg>
