<svg width="482" height="304" viewBox="0 0 482 304" fill="none" xmlns="http://www.w3.org/2000/svg">
<path d="M254.5 145.5L254.5 272.5" stroke="white" stroke-linecap="round" stroke-dasharray="2 2"/>
<g clip-path="url(#clip0_0_1)">
<path d="M11.5 188C11.7135 188 11.9182 188.085 12.0692 188.236C12.2202 188.387 12.305 188.592 12.305 188.805V207.205C12.305 207.418 12.2202 207.623 12.0692 207.774C11.9182 207.925 11.7135 208.01 11.5 208.01C11.2865 208.01 11.0817 207.925 10.9308 207.774C10.7798 207.623 10.695 207.418 10.695 207.205V198.81H0.804994C0.591494 198.81 0.386739 198.725 0.235772 198.574C0.0848045 198.423 -6.67572e-06 198.218 -6.67572e-06 198.005V188.805C-6.67572e-06 188.592 0.0848045 188.387 0.235772 188.236C0.386739 188.085 0.591494 188 0.804994 188H11.385C11.4045 188 11.424 188.001 11.4434 188.002C11.4622 188.001 11.4811 188 11.5 188V188ZM10.58 189.61H1.60999V197.2H10.58V189.61Z" fill="white"/>
<path d="M14.2591 205.662C16.6957 206.007 18.4 206.831 18.4 208.043C18.4 209.676 15.5524 211 11.5 211C7.44762 211 4.59999 209.676 4.59999 208.043C4.59999 206.83 6.30429 206.007 8.74068 205.662L9.07832 206.237C7.24177 206.492 5.97999 207.027 5.97999 207.649C5.97999 208.52 8.45134 209.226 11.5 209.226C14.5486 209.226 17.02 208.52 17.02 207.649C17.0202 207.03 15.7665 206.495 13.9244 206.239C14.0357 206.046 14.1475 205.855 14.2591 205.662Z" fill="white"/>
</g>
<g clip-path="url(#clip1_0_1)">
<path d="M419 142C418.796 142 418.6 142.085 418.456 142.236C418.311 142.387 418.23 142.592 418.23 142.805V161.205C418.23 161.418 418.311 161.623 418.456 161.774C418.6 161.925 418.796 162.01 419 162.01C419.204 162.01 419.4 161.925 419.544 161.774C419.689 161.623 419.77 161.418 419.77 161.205V152.81H429.23C429.434 152.81 429.63 152.725 429.774 152.574C429.919 152.423 430 152.218 430 152.005V142.805C430 142.592 429.919 142.387 429.774 142.236C429.63 142.085 429.434 142 429.23 142H419.11C419.091 142 419.073 142.001 419.054 142.002C419.036 142.001 419.018 142 419 142V142ZM422.036 143.61H424.192V145.319H426.348V143.61H428.46V145.319H426.348V147.573H428.46V149.827H426.348V151.2H424.192V149.827H422.036V151.2H419.88V149.827H422.036V147.573H419.88V145.319H422.036V143.61ZM422.036 145.319V147.573H424.192V145.319H422.036V145.319ZM424.192 147.573V149.827H426.348V147.573H424.192Z" fill="white"/>
<path d="M416.361 159.662C414.03 160.007 412.4 160.831 412.4 162.043C412.4 163.676 415.124 165 419 165C422.876 165 425.6 163.676 425.6 162.043C425.6 160.83 423.97 160.007 421.639 159.662L421.316 160.237C423.073 160.492 424.28 161.027 424.28 161.649C424.28 162.52 421.916 163.226 419 163.226C416.084 163.226 413.72 162.52 413.72 161.649C413.72 161.03 414.919 160.495 416.681 160.239C416.575 160.046 416.468 159.855 416.361 159.662Z" fill="white"/>
</g>
<g filter="url(#filter0_d_0_1)">
<path d="M17.5 200C17.5 200 56 131.5 100.5 118C145 104.5 155 192.5 196.5 178.5C238 164.5 282 115.5 336.5 104.5C391 93.5 414.5 156.5 414.5 156.5" stroke="white" stroke-linecap="round"/>
</g>
<rect x="40" y="25" width="129" height="42" fill="#0F7DE2"/>
<rect x="175" y="262" width="129" height="42" fill="#0F7DE2"/>
<rect x="353" y="43" width="129" height="42" fill="#0F7DE2"/>
<line x1="95.5" y1="68.5" x2="95.5" y2="119.5" stroke="white" stroke-linecap="round" stroke-dasharray="2 2"/>
<line x1="412.5" y1="85.5" x2="412.5" y2="149.5" stroke="white" stroke-linecap="round" stroke-dasharray="2 2"/>
<path opacity="0.9" d="M61.0645 32.5752H62.8838C63.6865 32.5752 64.29 32.6953 64.6943 32.9355C65.0986 33.1758 65.3008 33.5845 65.3008 34.1616C65.3008 34.4106 65.2524 34.6348 65.1558 34.834C65.062 35.0303 64.9243 35.1929 64.7427 35.3218C64.561 35.4507 64.3369 35.54 64.0703 35.5898V35.6338C64.3516 35.6777 64.6006 35.7583 64.8174 35.8755C65.0342 35.9927 65.2041 36.1567 65.3271 36.3677C65.4502 36.5786 65.5117 36.8467 65.5117 37.1719C65.5117 37.5674 65.4194 37.9014 65.2349 38.1738C65.0532 38.4463 64.7954 38.6528 64.4614 38.7935C64.1274 38.9312 63.7319 39 63.2749 39H61.0645V32.5752ZM61.8115 35.3306H63.042C63.6016 35.3306 63.9883 35.2383 64.2021 35.0537C64.4189 34.8691 64.5273 34.5996 64.5273 34.2451C64.5273 33.8789 64.3984 33.6152 64.1406 33.4541C63.8857 33.293 63.4785 33.2124 62.9189 33.2124H61.8115V35.3306ZM61.8115 35.959V38.3628H63.1475C63.7188 38.3628 64.123 38.2515 64.3604 38.0288C64.5977 37.8032 64.7163 37.5 64.7163 37.1191C64.7163 36.876 64.6621 36.668 64.5537 36.4951C64.4482 36.3223 64.2754 36.1904 64.0352 36.0996C63.7979 36.0059 63.48 35.959 63.0815 35.959H61.8115ZM70.9126 39L70.1216 36.9609H67.5464L66.7598 39H66.0039L68.5176 32.5488H69.1899L71.686 39H70.9126ZM69.8975 36.2974L69.146 34.2715C69.1284 34.2188 69.0991 34.1323 69.0581 34.0122C69.02 33.8921 68.9805 33.7676 68.9395 33.6387C68.8984 33.5098 68.8647 33.4058 68.8384 33.3267C68.8091 33.4468 68.7769 33.5669 68.7417 33.687C68.7095 33.8042 68.6772 33.9141 68.645 34.0166C68.6128 34.1162 68.585 34.2012 68.5615 34.2715L67.7969 36.2974H69.8975ZM75.3247 33.1421C74.9702 33.1421 74.6509 33.2036 74.3667 33.3267C74.0854 33.4468 73.8452 33.6226 73.646 33.854C73.4497 34.0825 73.2988 34.3594 73.1934 34.6846C73.0879 35.0098 73.0352 35.376 73.0352 35.7832C73.0352 36.3223 73.1187 36.791 73.2856 37.1895C73.4556 37.585 73.7075 37.8911 74.0415 38.1079C74.3784 38.3247 74.7988 38.4331 75.3027 38.4331C75.5898 38.4331 75.8594 38.4097 76.1113 38.3628C76.3662 38.313 76.6138 38.2515 76.854 38.1782V38.8286C76.6196 38.9165 76.3735 38.981 76.1157 39.022C75.8579 39.0659 75.5518 39.0879 75.1973 39.0879C74.5439 39.0879 73.9976 38.9531 73.5581 38.6836C73.1216 38.4111 72.7935 38.0273 72.5737 37.5322C72.3569 37.0371 72.2485 36.4526 72.2485 35.7788C72.2485 35.2925 72.3159 34.8486 72.4507 34.4473C72.5884 34.043 72.7876 33.6943 73.0483 33.4014C73.312 33.1084 73.6343 32.8828 74.0151 32.7246C74.3989 32.5635 74.8384 32.4829 75.3335 32.4829C75.6587 32.4829 75.9722 32.5151 76.2739 32.5796C76.5757 32.644 76.8481 32.7363 77.0913 32.8564L76.7925 33.4893C76.5874 33.3955 76.3618 33.3149 76.1157 33.2476C75.8726 33.1772 75.6089 33.1421 75.3247 33.1421ZM82.5713 35.5283H84.3818V36.126H82.5713V37.9893H81.9692V36.126H80.1587V35.5283H81.9692V33.6562H82.5713V35.5283ZM89.5103 39H85.3003V38.3892L87.0186 36.6445C87.3379 36.3223 87.606 36.0352 87.8228 35.7832C88.0425 35.5312 88.2095 35.2837 88.3237 35.0405C88.438 34.7944 88.4951 34.5249 88.4951 34.2319C88.4951 33.8687 88.3867 33.5918 88.1699 33.4014C87.9561 33.208 87.6733 33.1113 87.3218 33.1113C87.0142 33.1113 86.7417 33.1641 86.5044 33.2695C86.2671 33.375 86.0239 33.5244 85.7749 33.7178L85.3838 33.2256C85.5537 33.082 85.7383 32.9546 85.9375 32.8433C86.1396 32.7319 86.355 32.644 86.5835 32.5796C86.8149 32.5151 87.061 32.4829 87.3218 32.4829C87.7173 32.4829 88.0586 32.5518 88.3457 32.6895C88.6328 32.8271 88.854 33.0234 89.0093 33.2783C89.1675 33.5332 89.2466 33.8364 89.2466 34.188C89.2466 34.5278 89.1792 34.8442 89.0444 35.1372C88.9097 35.4272 88.7207 35.7158 88.4775 36.0029C88.2344 36.2871 87.9502 36.5889 87.625 36.9082L86.2275 38.3013V38.332H89.5103V39ZM90.666 38.543C90.666 38.3379 90.7158 38.1929 90.8154 38.1079C90.915 38.02 91.0366 37.9761 91.1802 37.9761C91.3296 37.9761 91.4556 38.02 91.5581 38.1079C91.6606 38.1929 91.7119 38.3379 91.7119 38.543C91.7119 38.7451 91.6606 38.8931 91.5581 38.9868C91.4556 39.0776 91.3296 39.123 91.1802 39.123C91.0366 39.123 90.915 39.0776 90.8154 38.9868C90.7158 38.8931 90.666 38.7451 90.666 38.543ZM90.666 34.645C90.666 34.4341 90.7158 34.2861 90.8154 34.2012C90.915 34.1133 91.0366 34.0693 91.1802 34.0693C91.3296 34.0693 91.4556 34.1133 91.5581 34.2012C91.6606 34.2861 91.7119 34.4341 91.7119 34.645C91.7119 34.8442 91.6606 34.9893 91.5581 35.0801C91.4556 35.1709 91.3296 35.2163 91.1802 35.2163C91.0366 35.2163 90.915 35.1709 90.8154 35.0801C90.7158 34.9893 90.666 34.8442 90.666 34.645ZM100.69 35.7261C100.69 36.4497 100.558 37.0547 100.294 37.541C100.031 38.0244 99.6484 38.3892 99.1475 38.6353C98.6494 38.8784 98.0444 39 97.3325 39H95.5879V32.5752H97.5259C98.1792 32.5752 98.7417 32.6953 99.2134 32.9355C99.6851 33.1729 100.048 33.5259 100.303 33.9946C100.561 34.4604 100.69 35.0376 100.69 35.7261ZM99.9033 35.7524C99.9033 35.1753 99.8066 34.6992 99.6133 34.3242C99.4229 33.9492 99.1416 33.6709 98.7695 33.4893C98.4004 33.3047 97.9478 33.2124 97.4116 33.2124H96.335V38.3584H97.2446C98.1294 38.3584 98.793 38.1401 99.2354 37.7036C99.6807 37.2671 99.9033 36.6167 99.9033 35.7524ZM103.863 34.0957C104.273 34.0957 104.625 34.1865 104.917 34.3682C105.21 34.5498 105.435 34.8047 105.59 35.1328C105.745 35.458 105.823 35.8389 105.823 36.2754V36.728H102.496C102.505 37.2935 102.646 37.7241 102.918 38.02C103.19 38.3159 103.574 38.4639 104.069 38.4639C104.374 38.4639 104.644 38.436 104.878 38.3804C105.112 38.3247 105.355 38.2427 105.607 38.1343V38.7759C105.364 38.8843 105.123 38.9634 104.882 39.0132C104.645 39.063 104.364 39.0879 104.039 39.0879C103.576 39.0879 103.171 38.9941 102.826 38.8066C102.483 38.6162 102.216 38.3379 102.026 37.9717C101.835 37.6055 101.74 37.1572 101.74 36.627C101.74 36.1084 101.827 35.6602 102 35.2822C102.175 34.9014 102.421 34.6084 102.738 34.4033C103.057 34.1982 103.432 34.0957 103.863 34.0957ZM103.854 34.6934C103.464 34.6934 103.154 34.8208 102.922 35.0757C102.691 35.3306 102.553 35.6865 102.509 36.1436H105.058C105.055 35.8564 105.01 35.6045 104.922 35.3877C104.837 35.168 104.707 34.998 104.531 34.8779C104.355 34.7549 104.129 34.6934 103.854 34.6934ZM105.071 32.105V32.1929C105.013 32.2778 104.932 32.3804 104.83 32.5005C104.73 32.6177 104.619 32.7422 104.496 32.874C104.373 33.0029 104.248 33.126 104.122 33.2432C103.999 33.3604 103.885 33.4614 103.779 33.5464H103.292V33.4409C103.385 33.3296 103.488 33.1963 103.599 33.041C103.71 32.8828 103.819 32.7217 103.924 32.5576C104.03 32.3906 104.118 32.2397 104.188 32.105H105.071ZM108.121 39L106.293 34.1836H107.075L108.134 37.0972C108.208 37.2964 108.282 37.5161 108.358 37.7563C108.435 37.9966 108.487 38.1899 108.517 38.3364H108.547C108.583 38.1899 108.641 37.9966 108.723 37.7563C108.805 37.5132 108.88 37.2935 108.947 37.0972L110.006 34.1836H110.789L108.956 39H108.121ZM113.417 34.0957C113.827 34.0957 114.178 34.1865 114.471 34.3682C114.764 34.5498 114.988 34.8047 115.144 35.1328C115.299 35.458 115.376 35.8389 115.376 36.2754V36.728H112.05C112.059 37.2935 112.199 37.7241 112.472 38.02C112.744 38.3159 113.128 38.4639 113.623 38.4639C113.928 38.4639 114.197 38.436 114.432 38.3804C114.666 38.3247 114.909 38.2427 115.161 38.1343V38.7759C114.918 38.8843 114.676 38.9634 114.436 39.0132C114.199 39.063 113.917 39.0879 113.592 39.0879C113.129 39.0879 112.725 38.9941 112.379 38.8066C112.037 38.6162 111.77 38.3379 111.58 37.9717C111.389 37.6055 111.294 37.1572 111.294 36.627C111.294 36.1084 111.38 35.6602 111.553 35.2822C111.729 34.9014 111.975 34.6084 112.292 34.4033C112.611 34.1982 112.986 34.0957 113.417 34.0957ZM113.408 34.6934C113.018 34.6934 112.708 34.8208 112.476 35.0757C112.245 35.3306 112.107 35.6865 112.063 36.1436H114.612C114.609 35.8564 114.563 35.6045 114.476 35.3877C114.391 35.168 114.26 34.998 114.084 34.8779C113.909 34.7549 113.683 34.6934 113.408 34.6934ZM117.35 39H116.616V32.1621H117.35V39ZM123.045 36.583C123.045 36.9785 122.994 37.3315 122.891 37.6421C122.789 37.9526 122.641 38.2148 122.447 38.4287C122.254 38.6426 122.02 38.8066 121.744 38.9209C121.472 39.0322 121.163 39.0879 120.817 39.0879C120.495 39.0879 120.199 39.0322 119.929 38.9209C119.663 38.8066 119.431 38.6426 119.235 38.4287C119.042 38.2148 118.891 37.9526 118.782 37.6421C118.677 37.3315 118.624 36.9785 118.624 36.583C118.624 36.0557 118.713 35.6074 118.892 35.2383C119.071 34.8662 119.326 34.5835 119.657 34.3901C119.991 34.1938 120.388 34.0957 120.848 34.0957C121.287 34.0957 121.671 34.1938 121.999 34.3901C122.33 34.5864 122.586 34.8706 122.768 35.2427C122.953 35.6118 123.045 36.0586 123.045 36.583ZM119.38 36.583C119.38 36.9697 119.431 37.3052 119.534 37.5894C119.636 37.8735 119.794 38.0933 120.008 38.2485C120.222 38.4038 120.498 38.4814 120.834 38.4814C121.168 38.4814 121.442 38.4038 121.656 38.2485C121.873 38.0933 122.033 37.8735 122.135 37.5894C122.238 37.3052 122.289 36.9697 122.289 36.583C122.289 36.1992 122.238 35.8682 122.135 35.5898C122.033 35.3086 121.875 35.0918 121.661 34.9395C121.447 34.7871 121.17 34.7109 120.83 34.7109C120.329 34.7109 119.961 34.8765 119.727 35.2075C119.496 35.5386 119.38 35.9971 119.38 36.583ZM126.569 34.0957C127.17 34.0957 127.649 34.3022 128.006 34.7153C128.364 35.1284 128.542 35.7495 128.542 36.5786C128.542 37.1265 128.46 37.5864 128.296 37.9585C128.132 38.3306 127.901 38.6118 127.602 38.8022C127.306 38.9927 126.956 39.0879 126.552 39.0879C126.297 39.0879 126.073 39.0542 125.879 38.9868C125.686 38.9194 125.521 38.8286 125.383 38.7144C125.245 38.6001 125.131 38.4756 125.04 38.3408H124.987C124.996 38.4551 125.006 38.5928 125.018 38.7539C125.033 38.915 125.04 39.0557 125.04 39.1758V41.1533H124.306V34.1836H124.908L125.005 34.8955H125.04C125.134 34.749 125.248 34.6157 125.383 34.4956C125.518 34.3726 125.682 34.2759 125.875 34.2056C126.071 34.1323 126.303 34.0957 126.569 34.0957ZM126.442 34.7109C126.108 34.7109 125.838 34.7754 125.633 34.9043C125.431 35.0332 125.283 35.2266 125.189 35.4844C125.096 35.7393 125.046 36.0601 125.04 36.4468V36.5874C125.04 36.9946 125.084 37.3389 125.172 37.6201C125.263 37.9014 125.411 38.1152 125.616 38.2617C125.824 38.4082 126.102 38.4814 126.451 38.4814C126.75 38.4814 126.999 38.4009 127.198 38.2397C127.397 38.0786 127.545 37.8545 127.642 37.5674C127.741 37.2773 127.791 36.9448 127.791 36.5698C127.791 36.0015 127.68 35.5503 127.457 35.2163C127.237 34.8794 126.899 34.7109 126.442 34.7109ZM132.08 34.0957C132.681 34.0957 133.16 34.3022 133.517 34.7153C133.875 35.1284 134.053 35.7495 134.053 36.5786C134.053 37.1265 133.971 37.5864 133.807 37.9585C133.643 38.3306 133.412 38.6118 133.113 38.8022C132.817 38.9927 132.467 39.0879 132.062 39.0879C131.808 39.0879 131.583 39.0542 131.39 38.9868C131.197 38.9194 131.031 38.8286 130.894 38.7144C130.756 38.6001 130.642 38.4756 130.551 38.3408H130.498C130.507 38.4551 130.517 38.5928 130.529 38.7539C130.543 38.915 130.551 39.0557 130.551 39.1758V41.1533H129.817V34.1836H130.419L130.516 34.8955H130.551C130.645 34.749 130.759 34.6157 130.894 34.4956C131.028 34.3726 131.192 34.2759 131.386 34.2056C131.582 34.1323 131.813 34.0957 132.08 34.0957ZM131.953 34.7109C131.619 34.7109 131.349 34.7754 131.144 34.9043C130.942 35.0332 130.794 35.2266 130.7 35.4844C130.606 35.7393 130.557 36.0601 130.551 36.4468V36.5874C130.551 36.9946 130.595 37.3389 130.683 37.6201C130.773 37.9014 130.921 38.1152 131.126 38.2617C131.334 38.4082 131.613 38.4814 131.961 38.4814C132.26 38.4814 132.509 38.4009 132.708 38.2397C132.908 38.0786 133.056 37.8545 133.152 37.5674C133.252 37.2773 133.302 36.9448 133.302 36.5698C133.302 36.0015 133.19 35.5503 132.968 35.2163C132.748 34.8794 132.41 34.7109 131.953 34.7109ZM137.182 34.0957C137.592 34.0957 137.944 34.1865 138.237 34.3682C138.53 34.5498 138.754 34.8047 138.909 35.1328C139.064 35.458 139.142 35.8389 139.142 36.2754V36.728H135.815C135.824 37.2935 135.965 37.7241 136.237 38.02C136.51 38.3159 136.894 38.4639 137.389 38.4639C137.693 38.4639 137.963 38.436 138.197 38.3804C138.432 38.3247 138.675 38.2427 138.927 38.1343V38.7759C138.684 38.8843 138.442 38.9634 138.202 39.0132C137.964 39.063 137.683 39.0879 137.358 39.0879C136.895 39.0879 136.491 38.9941 136.145 38.8066C135.802 38.6162 135.536 38.3379 135.345 37.9717C135.155 37.6055 135.06 37.1572 135.06 36.627C135.06 36.1084 135.146 35.6602 135.319 35.2822C135.495 34.9014 135.741 34.6084 136.057 34.4033C136.376 34.1982 136.751 34.0957 137.182 34.0957ZM137.173 34.6934C136.784 34.6934 136.473 34.8208 136.242 35.0757C136.01 35.3306 135.873 35.6865 135.829 36.1436H138.377C138.375 35.8564 138.329 35.6045 138.241 35.3877C138.156 35.168 138.026 34.998 137.85 34.8779C137.674 34.7549 137.449 34.6934 137.173 34.6934ZM144.358 34.1836V39H143.761L143.655 38.3232H143.616C143.516 38.4902 143.387 38.6309 143.229 38.7451C143.071 38.8594 142.892 38.9443 142.693 39C142.497 39.0586 142.287 39.0879 142.064 39.0879C141.684 39.0879 141.364 39.0264 141.106 38.9033C140.849 38.7803 140.654 38.5898 140.522 38.332C140.393 38.0742 140.329 37.7432 140.329 37.3389V34.1836H141.067V37.2861C141.067 37.6875 141.158 37.9878 141.339 38.187C141.521 38.3833 141.798 38.4814 142.17 38.4814C142.527 38.4814 142.812 38.4141 143.022 38.2793C143.236 38.1445 143.39 37.9468 143.484 37.686C143.578 37.4224 143.625 37.1001 143.625 36.7192V34.1836H144.358ZM148.089 34.0957C148.186 34.0957 148.287 34.1016 148.393 34.1133C148.498 34.1221 148.592 34.1353 148.674 34.1528L148.582 34.8296C148.502 34.8091 148.415 34.793 148.318 34.7812C148.221 34.7695 148.13 34.7637 148.045 34.7637C147.852 34.7637 147.669 34.8032 147.496 34.8823C147.326 34.9585 147.177 35.0698 147.048 35.2163C146.919 35.3599 146.818 35.5342 146.745 35.7393C146.671 35.9414 146.635 36.167 146.635 36.416V39H145.901V34.1836H146.507L146.586 35.0713H146.617C146.717 34.8926 146.837 34.73 146.978 34.5835C147.118 34.4341 147.281 34.3154 147.465 34.2275C147.653 34.1396 147.861 34.0957 148.089 34.0957ZM49.7705 51.0879C49.1611 51.0879 48.6777 50.8799 48.3203 50.4639C47.9658 50.0479 47.7886 49.4297 47.7886 48.6094C47.7886 47.7803 47.9702 47.1548 48.3335 46.7329C48.6968 46.3081 49.1802 46.0957 49.7837 46.0957C50.0386 46.0957 50.2612 46.1294 50.4517 46.1968C50.6421 46.2642 50.8062 46.355 50.9438 46.4692C51.0815 46.5806 51.1973 46.708 51.291 46.8516H51.3438C51.332 46.7607 51.3203 46.6362 51.3086 46.478C51.2969 46.3198 51.291 46.1909 51.291 46.0913V44.1621H52.0205V51H51.4316L51.3218 50.3145H51.291C51.2002 50.458 51.0845 50.5884 50.9438 50.7056C50.8062 50.8228 50.6406 50.9165 50.4473 50.9868C50.2568 51.0542 50.0312 51.0879 49.7705 51.0879ZM49.8848 50.4814C50.4004 50.4814 50.7651 50.335 50.979 50.042C51.1929 49.749 51.2998 49.314 51.2998 48.7368V48.605C51.2998 47.9927 51.1973 47.5225 50.9922 47.1943C50.79 46.8662 50.4209 46.7021 49.8848 46.7021C49.4365 46.7021 49.1011 46.875 48.8784 47.2207C48.6558 47.5635 48.5444 48.0322 48.5444 48.627C48.5444 49.2188 48.6543 49.6758 48.874 49.998C49.0967 50.3203 49.4336 50.4814 49.8848 50.4814ZM54.1431 44.5752L54.209 44.6719C54.1562 44.8857 54.0889 45.1157 54.0068 45.3618C53.9248 45.605 53.8354 45.8481 53.7388 46.0913C53.6421 46.3345 53.5454 46.563 53.4487 46.7769H52.9126C52.9565 46.6099 53.0005 46.4312 53.0444 46.2407C53.0913 46.0503 53.1353 45.8569 53.1763 45.6606C53.2173 45.4644 53.2539 45.2739 53.2861 45.0894C53.3213 44.9048 53.3506 44.7334 53.374 44.5752H54.1431ZM56.8984 46.1045C57.4727 46.1045 57.8989 46.2334 58.1772 46.4912C58.4556 46.749 58.5947 47.1606 58.5947 47.7261V51H58.063L57.9224 50.2881H57.8872C57.7524 50.4639 57.6118 50.6118 57.4653 50.7319C57.3188 50.8491 57.1489 50.9385 56.9556 51C56.7651 51.0586 56.5308 51.0879 56.2524 51.0879C55.9595 51.0879 55.6987 51.0366 55.4702 50.9341C55.2446 50.8315 55.0659 50.6763 54.9341 50.4683C54.8052 50.2603 54.7407 49.9966 54.7407 49.6772C54.7407 49.1968 54.9312 48.8276 55.312 48.5698C55.6929 48.312 56.2729 48.1714 57.0522 48.1479L57.8828 48.1128V47.8184C57.8828 47.4023 57.7935 47.1108 57.6147 46.9438C57.436 46.7769 57.1841 46.6934 56.8589 46.6934C56.6069 46.6934 56.3667 46.73 56.1382 46.8032C55.9097 46.8765 55.6929 46.9629 55.4878 47.0625L55.2637 46.5088C55.4805 46.3975 55.7295 46.3022 56.0107 46.2231C56.292 46.144 56.5879 46.1045 56.8984 46.1045ZM57.874 48.627L57.1401 48.6577C56.5396 48.6812 56.1162 48.7793 55.8701 48.9521C55.624 49.125 55.501 49.3696 55.501 49.686C55.501 49.9614 55.5845 50.165 55.7515 50.2969C55.9185 50.4287 56.1396 50.4946 56.415 50.4946C56.8428 50.4946 57.1929 50.376 57.4653 50.1387C57.7378 49.9014 57.874 49.5454 57.874 49.0708V48.627ZM62.3608 46.0957C62.9614 46.0957 63.4404 46.3022 63.7979 46.7153C64.1553 47.1284 64.334 47.7495 64.334 48.5786C64.334 49.1265 64.252 49.5864 64.0879 49.9585C63.9238 50.3306 63.6924 50.6118 63.3936 50.8022C63.0977 50.9927 62.7476 51.0879 62.3433 51.0879C62.0884 51.0879 61.8643 51.0542 61.6709 50.9868C61.4775 50.9194 61.312 50.8286 61.1743 50.7144C61.0366 50.6001 60.9224 50.4756 60.8315 50.3408H60.7788C60.7876 50.4551 60.7979 50.5928 60.8096 50.7539C60.8242 50.915 60.8315 51.0557 60.8315 51.1758V53.1533H60.0977V46.1836H60.6997L60.7964 46.8955H60.8315C60.9253 46.749 61.0396 46.6157 61.1743 46.4956C61.3091 46.3726 61.4731 46.2759 61.6665 46.2056C61.8628 46.1323 62.0942 46.0957 62.3608 46.0957ZM62.2334 46.7109C61.8994 46.7109 61.6299 46.7754 61.4248 46.9043C61.2227 47.0332 61.0747 47.2266 60.981 47.4844C60.8872 47.7393 60.8374 48.0601 60.8315 48.4468V48.5874C60.8315 48.9946 60.8755 49.3389 60.9634 49.6201C61.0542 49.9014 61.2021 50.1152 61.4072 50.2617C61.6152 50.4082 61.8936 50.4814 62.2422 50.4814C62.541 50.4814 62.79 50.4009 62.9893 50.2397C63.1885 50.0786 63.3364 49.8545 63.4331 49.5674C63.5327 49.2773 63.5825 48.9448 63.5825 48.5698C63.5825 48.0015 63.4712 47.5503 63.2485 47.2163C63.0288 46.8794 62.6904 46.7109 62.2334 46.7109ZM67.8716 46.0957C68.4722 46.0957 68.9512 46.3022 69.3086 46.7153C69.666 47.1284 69.8447 47.7495 69.8447 48.5786C69.8447 49.1265 69.7627 49.5864 69.5986 49.9585C69.4346 50.3306 69.2031 50.6118 68.9043 50.8022C68.6084 50.9927 68.2583 51.0879 67.854 51.0879C67.5991 51.0879 67.375 51.0542 67.1816 50.9868C66.9883 50.9194 66.8228 50.8286 66.6851 50.7144C66.5474 50.6001 66.4331 50.4756 66.3423 50.3408H66.2896C66.2983 50.4551 66.3086 50.5928 66.3203 50.7539C66.335 50.915 66.3423 51.0557 66.3423 51.1758V53.1533H65.6084V46.1836H66.2104L66.3071 46.8955H66.3423C66.436 46.749 66.5503 46.6157 66.6851 46.4956C66.8198 46.3726 66.9839 46.2759 67.1772 46.2056C67.3735 46.1323 67.605 46.0957 67.8716 46.0957ZM67.7441 46.7109C67.4102 46.7109 67.1406 46.7754 66.9355 46.9043C66.7334 47.0332 66.5854 47.2266 66.4917 47.4844C66.3979 47.7393 66.3481 48.0601 66.3423 48.4468V48.5874C66.3423 48.9946 66.3862 49.3389 66.4741 49.6201C66.5649 49.9014 66.7129 50.1152 66.918 50.2617C67.126 50.4082 67.4043 50.4814 67.7529 50.4814C68.0518 50.4814 68.3008 50.4009 68.5 50.2397C68.6992 50.0786 68.8472 49.8545 68.9438 49.5674C69.0435 49.2773 69.0933 48.9448 69.0933 48.5698C69.0933 48.0015 68.9819 47.5503 68.7593 47.2163C68.5396 46.8794 68.2012 46.7109 67.7441 46.7109ZM71.853 51H71.1191V44.1621H71.853V51ZM74.125 46.1836V51H73.3955V46.1836H74.125ZM73.769 44.3818C73.8892 44.3818 73.9917 44.4214 74.0767 44.5005C74.1646 44.5767 74.2085 44.6968 74.2085 44.8608C74.2085 45.022 74.1646 45.1421 74.0767 45.2212C73.9917 45.3003 73.8892 45.3398 73.769 45.3398C73.6431 45.3398 73.5376 45.3003 73.4526 45.2212C73.3706 45.1421 73.3296 45.022 73.3296 44.8608C73.3296 44.6968 73.3706 44.5767 73.4526 44.5005C73.5376 44.4214 73.6431 44.3818 73.769 44.3818ZM77.6011 51.0879C77.1675 51.0879 76.7852 50.9985 76.4541 50.8198C76.123 50.6411 75.8652 50.3687 75.6807 50.0024C75.4961 49.6362 75.4038 49.1748 75.4038 48.6182C75.4038 48.0352 75.5005 47.5591 75.6938 47.1899C75.8901 46.8179 76.1597 46.5425 76.5024 46.3638C76.8452 46.1851 77.2349 46.0957 77.6714 46.0957C77.9116 46.0957 78.1431 46.1206 78.3657 46.1704C78.5913 46.2173 78.7759 46.2773 78.9194 46.3506L78.6997 46.9614C78.5532 46.9028 78.3833 46.8501 78.1899 46.8032C77.9995 46.7563 77.8208 46.7329 77.6538 46.7329C77.3198 46.7329 77.0415 46.8047 76.8188 46.9482C76.5991 47.0918 76.4336 47.3027 76.3223 47.5811C76.2139 47.8594 76.1597 48.2021 76.1597 48.6094C76.1597 48.999 76.2124 49.3315 76.3179 49.6069C76.4263 49.8823 76.5859 50.0933 76.7969 50.2397C77.0107 50.3833 77.2773 50.4551 77.5967 50.4551C77.8516 50.4551 78.0815 50.4287 78.2866 50.376C78.4917 50.3203 78.6777 50.2559 78.8447 50.1826V50.833C78.6836 50.915 78.5034 50.978 78.3042 51.022C78.1079 51.0659 77.8735 51.0879 77.6011 51.0879ZM81.7891 46.1045C82.3633 46.1045 82.7896 46.2334 83.0679 46.4912C83.3462 46.749 83.4854 47.1606 83.4854 47.7261V51H82.9536L82.813 50.2881H82.7778C82.6431 50.4639 82.5024 50.6118 82.356 50.7319C82.2095 50.8491 82.0396 50.9385 81.8462 51C81.6558 51.0586 81.4214 51.0879 81.1431 51.0879C80.8501 51.0879 80.5894 51.0366 80.3608 50.9341C80.1353 50.8315 79.9565 50.6763 79.8247 50.4683C79.6958 50.2603 79.6313 49.9966 79.6313 49.6772C79.6313 49.1968 79.8218 48.8276 80.2026 48.5698C80.5835 48.312 81.1636 48.1714 81.9429 48.1479L82.7734 48.1128V47.8184C82.7734 47.4023 82.6841 47.1108 82.5054 46.9438C82.3267 46.7769 82.0747 46.6934 81.7495 46.6934C81.4976 46.6934 81.2573 46.73 81.0288 46.8032C80.8003 46.8765 80.5835 46.9629 80.3784 47.0625L80.1543 46.5088C80.3711 46.3975 80.6201 46.3022 80.9014 46.2231C81.1826 46.144 81.4785 46.1045 81.7891 46.1045ZM82.7646 48.627L82.0308 48.6577C81.4302 48.6812 81.0068 48.7793 80.7607 48.9521C80.5146 49.125 80.3916 49.3696 80.3916 49.686C80.3916 49.9614 80.4751 50.165 80.6421 50.2969C80.8091 50.4287 81.0303 50.4946 81.3057 50.4946C81.7334 50.4946 82.0835 50.376 82.356 50.1387C82.6284 49.9014 82.7646 49.5454 82.7646 49.0708V48.627ZM86.5439 50.4902C86.6641 50.4902 86.7871 50.48 86.9131 50.4595C87.0391 50.439 87.1416 50.4141 87.2207 50.3848V50.9517C87.1357 50.9897 87.0171 51.022 86.8647 51.0483C86.7153 51.0747 86.5688 51.0879 86.4253 51.0879C86.1704 51.0879 85.939 51.0439 85.731 50.9561C85.5229 50.8652 85.356 50.7129 85.23 50.499C85.1069 50.2852 85.0454 49.9893 85.0454 49.6113V46.7549H84.3599V46.3989L85.0498 46.1133L85.3398 45.0674H85.7793V46.1836H87.1899V46.7549H85.7793V49.5894C85.7793 49.8911 85.8481 50.1167 85.9858 50.2661C86.1265 50.4155 86.3125 50.4902 86.5439 50.4902ZM88.9258 46.1836V51H88.1963V46.1836H88.9258ZM88.5698 44.3818C88.6899 44.3818 88.7925 44.4214 88.8774 44.5005C88.9653 44.5767 89.0093 44.6968 89.0093 44.8608C89.0093 45.022 88.9653 45.1421 88.8774 45.2212C88.7925 45.3003 88.6899 45.3398 88.5698 45.3398C88.4438 45.3398 88.3384 45.3003 88.2534 45.2212C88.1714 45.1421 88.1304 45.022 88.1304 44.8608C88.1304 44.6968 88.1714 44.5767 88.2534 44.5005C88.3384 44.4214 88.4438 44.3818 88.5698 44.3818ZM94.6255 48.583C94.6255 48.9785 94.5742 49.3315 94.4717 49.6421C94.3691 49.9526 94.2212 50.2148 94.0278 50.4287C93.8345 50.6426 93.6001 50.8066 93.3247 50.9209C93.0522 51.0322 92.7432 51.0879 92.3975 51.0879C92.0752 51.0879 91.7793 51.0322 91.5098 50.9209C91.2432 50.8066 91.0117 50.6426 90.8154 50.4287C90.6221 50.2148 90.4712 49.9526 90.3628 49.6421C90.2573 49.3315 90.2046 48.9785 90.2046 48.583C90.2046 48.0557 90.2939 47.6074 90.4727 47.2383C90.6514 46.8662 90.9062 46.5835 91.2373 46.3901C91.5713 46.1938 91.9683 46.0957 92.4282 46.0957C92.8677 46.0957 93.2515 46.1938 93.5796 46.3901C93.9106 46.5864 94.167 46.8706 94.3486 47.2427C94.5332 47.6118 94.6255 48.0586 94.6255 48.583ZM90.9604 48.583C90.9604 48.9697 91.0117 49.3052 91.1143 49.5894C91.2168 49.8735 91.375 50.0933 91.5889 50.2485C91.8027 50.4038 92.0781 50.4814 92.415 50.4814C92.749 50.4814 93.0229 50.4038 93.2368 50.2485C93.4536 50.0933 93.6133 49.8735 93.7158 49.5894C93.8184 49.3052 93.8696 48.9697 93.8696 48.583C93.8696 48.1992 93.8184 47.8682 93.7158 47.5898C93.6133 47.3086 93.4551 47.0918 93.2412 46.9395C93.0273 46.7871 92.7505 46.7109 92.4106 46.7109C91.9097 46.7109 91.542 46.8765 91.3076 47.2075C91.0762 47.5386 90.9604 47.9971 90.9604 48.583ZM98.1675 46.0957C98.7388 46.0957 99.1709 46.2363 99.4639 46.5176C99.7568 46.7959 99.9033 47.2441 99.9033 47.8623V51H99.1826V47.9106C99.1826 47.5093 99.0903 47.209 98.9058 47.0098C98.7241 46.8105 98.4443 46.7109 98.0664 46.7109C97.5332 46.7109 97.1582 46.8618 96.9414 47.1636C96.7246 47.4653 96.6162 47.9033 96.6162 48.4775V51H95.8867V46.1836H96.4756L96.5854 46.8779H96.625C96.7275 46.708 96.8579 46.5659 97.0161 46.4517C97.1743 46.3345 97.3516 46.2466 97.5479 46.188C97.7441 46.1265 97.9507 46.0957 98.1675 46.0957ZM111.153 44.5752L109.435 51H108.684L107.409 46.6758C107.371 46.5527 107.334 46.4297 107.299 46.3066C107.267 46.1807 107.236 46.062 107.207 45.9507C107.178 45.8364 107.153 45.7368 107.132 45.6519C107.115 45.564 107.102 45.498 107.093 45.4541C107.087 45.498 107.075 45.5625 107.058 45.6475C107.043 45.7324 107.022 45.8306 106.996 45.9419C106.973 46.0532 106.943 46.1719 106.908 46.2979C106.876 46.4238 106.841 46.5513 106.803 46.6802L105.563 51H104.812L103.107 44.5752H103.885L104.917 48.605C104.953 48.7397 104.985 48.873 105.014 49.0049C105.046 49.1338 105.074 49.2598 105.098 49.3828C105.124 49.5059 105.147 49.626 105.168 49.7432C105.188 49.8604 105.208 49.9746 105.225 50.0859C105.24 49.9717 105.259 49.853 105.282 49.73C105.306 49.604 105.331 49.4766 105.357 49.3477C105.386 49.2188 105.417 49.0884 105.449 48.9565C105.484 48.8247 105.521 48.6929 105.559 48.561L106.715 44.5752H107.484L108.688 48.5918C108.729 48.7295 108.767 48.8657 108.802 49.0005C108.837 49.1353 108.868 49.2671 108.895 49.396C108.924 49.522 108.949 49.6436 108.969 49.7607C108.993 49.875 109.013 49.9834 109.031 50.0859C109.051 49.9424 109.076 49.7915 109.105 49.6333C109.135 49.4751 109.168 49.3096 109.207 49.1367C109.248 48.9639 109.292 48.7852 109.338 48.6006L110.371 44.5752H111.153ZM113.913 46.0957C114.323 46.0957 114.675 46.1865 114.968 46.3682C115.261 46.5498 115.485 46.8047 115.64 47.1328C115.795 47.458 115.873 47.8389 115.873 48.2754V48.728H112.546C112.555 49.2935 112.696 49.7241 112.968 50.02C113.241 50.3159 113.625 50.4639 114.12 50.4639C114.424 50.4639 114.694 50.436 114.928 50.3804C115.163 50.3247 115.406 50.2427 115.658 50.1343V50.7759C115.415 50.8843 115.173 50.9634 114.933 51.0132C114.695 51.063 114.414 51.0879 114.089 51.0879C113.626 51.0879 113.222 50.9941 112.876 50.8066C112.533 50.6162 112.267 50.3379 112.076 49.9717C111.886 49.6055 111.791 49.1572 111.791 48.627C111.791 48.1084 111.877 47.6602 112.05 47.2822C112.226 46.9014 112.472 46.6084 112.788 46.4033C113.107 46.1982 113.482 46.0957 113.913 46.0957ZM113.904 46.6934C113.515 46.6934 113.204 46.8208 112.973 47.0757C112.741 47.3306 112.604 47.6865 112.56 48.1436H115.108C115.105 47.8564 115.06 47.6045 114.972 47.3877C114.887 47.168 114.757 46.998 114.581 46.8779C114.405 46.7549 114.18 46.6934 113.904 46.6934ZM117.842 44.1621V45.8716C117.842 46.0679 117.836 46.2583 117.824 46.4429C117.815 46.6274 117.808 46.771 117.802 46.8735H117.842C117.974 46.6567 118.164 46.4736 118.413 46.3242C118.662 46.1748 118.98 46.1001 119.367 46.1001C119.97 46.1001 120.451 46.3096 120.808 46.7285C121.168 47.1445 121.349 47.7642 121.349 48.5874C121.349 49.1294 121.267 49.5864 121.103 49.9585C120.938 50.3306 120.707 50.6118 120.408 50.8022C120.109 50.9927 119.756 51.0879 119.349 51.0879C118.968 51.0879 118.655 51.0176 118.409 50.877C118.166 50.7334 117.978 50.5591 117.846 50.354H117.789L117.64 51H117.112V44.1621H117.842ZM119.248 46.7109C118.899 46.7109 118.623 46.7798 118.417 46.9175C118.212 47.0522 118.064 47.2573 117.974 47.5327C117.886 47.8052 117.842 48.1509 117.842 48.5698V48.6094C117.842 49.2158 117.943 49.6802 118.145 50.0024C118.347 50.3218 118.715 50.4814 119.248 50.4814C119.696 50.4814 120.032 50.3174 120.254 49.9893C120.48 49.6611 120.593 49.1924 120.593 48.583C120.593 47.9619 120.481 47.4946 120.259 47.1812C120.039 46.8677 119.702 46.7109 119.248 46.7109ZM126.93 44.4741C127.246 44.4741 127.519 44.5298 127.747 44.6411C127.979 44.7495 128.156 44.9062 128.279 45.1113C128.405 45.3164 128.468 45.564 128.468 45.854C128.468 46.2349 128.343 46.5571 128.094 46.8208C127.848 47.0845 127.535 47.3247 127.154 47.5415L128.938 49.2729C129.099 49.0854 129.231 48.8687 129.333 48.6226C129.436 48.3735 129.522 48.104 129.593 47.814H130.331C130.237 48.2007 130.116 48.5566 129.966 48.8818C129.82 49.207 129.635 49.4927 129.413 49.7388L130.7 51H129.711L128.916 50.2222C128.729 50.395 128.526 50.5474 128.31 50.6792C128.096 50.8081 127.857 50.9092 127.593 50.9824C127.333 51.0527 127.034 51.0879 126.697 51.0879C126.287 51.0879 125.931 51.0205 125.629 50.8857C125.327 50.751 125.093 50.5532 124.926 50.2925C124.762 50.0317 124.68 49.7124 124.68 49.3345C124.68 49.0239 124.737 48.7573 124.851 48.5347C124.965 48.312 125.128 48.1143 125.339 47.9414C125.55 47.7686 125.802 47.6001 126.095 47.436C125.957 47.2837 125.827 47.1299 125.704 46.9746C125.581 46.8164 125.481 46.6479 125.405 46.4692C125.329 46.2876 125.291 46.0884 125.291 45.8716C125.291 45.5786 125.356 45.3281 125.488 45.1201C125.623 44.9121 125.812 44.7524 126.055 44.6411C126.301 44.5298 126.593 44.4741 126.93 44.4741ZM126.534 47.8975C126.306 48.0293 126.109 48.1597 125.945 48.2886C125.784 48.4175 125.66 48.5625 125.572 48.7236C125.487 48.8848 125.444 49.0796 125.444 49.3081C125.444 49.6509 125.56 49.9263 125.792 50.1343C126.023 50.3394 126.332 50.4419 126.719 50.4419C127.117 50.4419 127.456 50.376 127.734 50.2441C128.015 50.1123 128.254 49.9526 128.45 49.7651L126.534 47.8975ZM126.903 45.0762C126.637 45.0762 126.42 45.1465 126.253 45.2871C126.089 45.4248 126.007 45.6182 126.007 45.8672C126.007 46.0898 126.067 46.2949 126.187 46.4824C126.307 46.6699 126.479 46.8779 126.701 47.1064C127.067 46.9043 127.333 46.7095 127.497 46.522C127.664 46.3315 127.747 46.1089 127.747 45.854C127.747 45.6226 127.669 45.4351 127.514 45.2915C127.362 45.1479 127.158 45.0762 126.903 45.0762ZM136.791 51L134.633 45.3135H134.598C134.61 45.4336 134.62 45.5801 134.629 45.7529C134.638 45.9258 134.645 46.1147 134.651 46.3198C134.657 46.522 134.66 46.7285 134.66 46.9395V51H133.965V44.5752H135.073L137.107 49.9189H137.138L139.204 44.5752H140.302V51H139.564V46.8867C139.564 46.6963 139.567 46.5059 139.573 46.3154C139.579 46.1221 139.586 45.9404 139.595 45.7705C139.604 45.5977 139.612 45.4482 139.621 45.3223H139.586L137.402 51H136.791ZM146.103 48.583C146.103 48.9785 146.052 49.3315 145.949 49.6421C145.847 49.9526 145.699 50.2148 145.505 50.4287C145.312 50.6426 145.078 50.8066 144.802 50.9209C144.53 51.0322 144.221 51.0879 143.875 51.0879C143.553 51.0879 143.257 51.0322 142.987 50.9209C142.721 50.8066 142.489 50.6426 142.293 50.4287C142.1 50.2148 141.949 49.9526 141.84 49.6421C141.735 49.3315 141.682 48.9785 141.682 48.583C141.682 48.0557 141.771 47.6074 141.95 47.2383C142.129 46.8662 142.384 46.5835 142.715 46.3901C143.049 46.1938 143.446 46.0957 143.906 46.0957C144.345 46.0957 144.729 46.1938 145.057 46.3901C145.388 46.5864 145.645 46.8706 145.826 47.2427C146.011 47.6118 146.103 48.0586 146.103 48.583ZM142.438 48.583C142.438 48.9697 142.489 49.3052 142.592 49.5894C142.694 49.8735 142.853 50.0933 143.066 50.2485C143.28 50.4038 143.556 50.4814 143.893 50.4814C144.227 50.4814 144.5 50.4038 144.714 50.2485C144.931 50.0933 145.091 49.8735 145.193 49.5894C145.296 49.3052 145.347 48.9697 145.347 48.583C145.347 48.1992 145.296 47.8682 145.193 47.5898C145.091 47.3086 144.933 47.0918 144.719 46.9395C144.505 46.7871 144.228 46.7109 143.888 46.7109C143.387 46.7109 143.02 46.8765 142.785 47.2075C142.554 47.5386 142.438 47.9971 142.438 48.583ZM148.094 44.1621V45.8716C148.094 46.0679 148.088 46.2583 148.076 46.4429C148.067 46.6274 148.06 46.771 148.054 46.8735H148.094C148.226 46.6567 148.416 46.4736 148.665 46.3242C148.914 46.1748 149.232 46.1001 149.619 46.1001C150.222 46.1001 150.703 46.3096 151.06 46.7285C151.42 47.1445 151.601 47.7642 151.601 48.5874C151.601 49.1294 151.519 49.5864 151.354 49.9585C151.19 50.3306 150.959 50.6118 150.66 50.8022C150.361 50.9927 150.008 51.0879 149.601 51.0879C149.22 51.0879 148.907 51.0176 148.661 50.877C148.417 50.7334 148.23 50.5591 148.098 50.354H148.041L147.892 51H147.364V44.1621H148.094ZM149.5 46.7109C149.151 46.7109 148.875 46.7798 148.669 46.9175C148.464 47.0522 148.316 47.2573 148.226 47.5327C148.138 47.8052 148.094 48.1509 148.094 48.5698V48.6094C148.094 49.2158 148.195 49.6802 148.397 50.0024C148.599 50.3218 148.967 50.4814 149.5 50.4814C149.948 50.4814 150.284 50.3174 150.506 49.9893C150.732 49.6611 150.845 49.1924 150.845 48.583C150.845 47.9619 150.733 47.4946 150.511 47.1812C150.291 46.8677 149.954 46.7109 149.5 46.7109ZM153.604 46.1836V51H152.875V46.1836H153.604ZM153.249 44.3818C153.369 44.3818 153.471 44.4214 153.556 44.5005C153.644 44.5767 153.688 44.6968 153.688 44.8608C153.688 45.022 153.644 45.1421 153.556 45.2212C153.471 45.3003 153.369 45.3398 153.249 45.3398C153.123 45.3398 153.017 45.3003 152.932 45.2212C152.85 45.1421 152.809 45.022 152.809 44.8608C152.809 44.6968 152.85 44.5767 152.932 44.5005C153.017 44.4214 153.123 44.3818 153.249 44.3818ZM155.885 51H155.151V44.1621H155.885V51ZM159.282 46.0957C159.692 46.0957 160.044 46.1865 160.337 46.3682C160.63 46.5498 160.854 46.8047 161.009 47.1328C161.165 47.458 161.242 47.8389 161.242 48.2754V48.728H157.916C157.924 49.2935 158.065 49.7241 158.337 50.02C158.61 50.3159 158.994 50.4639 159.489 50.4639C159.793 50.4639 160.063 50.436 160.297 50.3804C160.532 50.3247 160.775 50.2427 161.027 50.1343V50.7759C160.784 50.8843 160.542 50.9634 160.302 51.0132C160.064 51.063 159.783 51.0879 159.458 51.0879C158.995 51.0879 158.591 50.9941 158.245 50.8066C157.902 50.6162 157.636 50.3379 157.445 49.9717C157.255 49.6055 157.16 49.1572 157.16 48.627C157.16 48.1084 157.246 47.6602 157.419 47.2822C157.595 46.9014 157.841 46.6084 158.157 46.4033C158.477 46.1982 158.852 46.0957 159.282 46.0957ZM159.273 46.6934C158.884 46.6934 158.573 46.8208 158.342 47.0757C158.11 47.3306 157.973 47.6865 157.929 48.1436H160.478C160.475 47.8564 160.429 47.6045 160.341 47.3877C160.256 47.168 160.126 46.998 159.95 46.8779C159.774 46.7549 159.549 46.6934 159.273 46.6934Z" fill="white"/>
<path opacity="0.9" d="M88.0356 62L88.0972 61.7026L89.8472 60.1201C90.0317 59.9515 90.2072 59.7874 90.3735 59.6279C90.5399 59.4684 90.6868 59.3066 90.8145 59.1426C90.9443 58.9762 91.0457 58.8031 91.1187 58.623C91.1938 58.4408 91.2314 58.2437 91.2314 58.0317C91.2314 57.7879 91.1562 57.5954 91.0059 57.4541C90.8555 57.3105 90.6504 57.2388 90.3906 57.2388C90.2585 57.2388 90.1274 57.2559 89.9976 57.29C89.87 57.3242 89.7424 57.3743 89.6147 57.4404C89.4871 57.5065 89.3584 57.5874 89.2285 57.6831L89.061 57.437C89.2821 57.2684 89.5065 57.1419 89.7344 57.0576C89.9622 56.9733 90.1901 56.9312 90.418 56.9312C90.6595 56.9312 90.8669 56.9767 91.04 57.0679C91.2155 57.1567 91.3499 57.2809 91.4434 57.4404C91.5391 57.5999 91.5869 57.7845 91.5869 57.9941C91.5869 58.2926 91.5254 58.5672 91.4023 58.8179C91.2793 59.0662 91.1038 59.3101 90.876 59.5493C90.6504 59.7886 90.3838 60.0449 90.0762 60.3184L88.562 61.665V61.6787H91.0503L90.9888 62H88.0356ZM93.4907 62.0684C93.1147 62.0684 92.8185 61.9351 92.6021 61.6685C92.3856 61.4019 92.2773 61.0122 92.2773 60.4995C92.2773 60.2534 92.2933 59.9948 92.3252 59.7236C92.3594 59.4525 92.4118 59.1836 92.4824 58.917C92.5531 58.6481 92.6431 58.3952 92.7524 58.1582C92.8641 57.9189 92.9951 57.707 93.1455 57.5225C93.2982 57.3356 93.4736 57.1898 93.6719 57.085C93.8701 56.9779 94.0923 56.9243 94.3384 56.9243C94.5457 56.9243 94.7246 56.9585 94.875 57.0269C95.0277 57.0952 95.1541 57.1943 95.2544 57.3242C95.3547 57.4541 95.4287 57.6113 95.4766 57.7959C95.5267 57.9782 95.5518 58.1855 95.5518 58.418C95.5518 58.7028 95.5335 58.991 95.4971 59.2827C95.4606 59.5721 95.4048 59.8535 95.3296 60.127C95.2544 60.3981 95.1598 60.651 95.0459 60.8857C94.9342 61.1204 94.8021 61.3267 94.6494 61.5044C94.4967 61.6821 94.3236 61.8211 94.1299 61.9214C93.9385 62.0194 93.7254 62.0684 93.4907 62.0684ZM93.5215 61.7642C93.7061 61.7642 93.8747 61.7174 94.0273 61.624C94.1823 61.5283 94.3213 61.3973 94.4443 61.231C94.5697 61.0646 94.679 60.8732 94.7725 60.6567C94.8659 60.438 94.9445 60.2044 95.0083 59.9561C95.0721 59.7054 95.1188 59.4502 95.1484 59.1904C95.1803 58.9284 95.1963 58.672 95.1963 58.4214C95.1963 58.0454 95.1257 57.7537 94.9844 57.5464C94.8431 57.3368 94.6221 57.2319 94.3213 57.2319C94.1276 57.2319 93.951 57.2809 93.7915 57.3789C93.6343 57.4746 93.4919 57.6068 93.3643 57.7754C93.2389 57.944 93.1296 58.1377 93.0361 58.3564C92.945 58.5729 92.8687 58.8031 92.8071 59.0469C92.7479 59.2907 92.7035 59.5368 92.6738 59.7852C92.6442 60.0312 92.6294 60.2682 92.6294 60.4961C92.6294 60.9154 92.7069 61.2321 92.8618 61.4463C93.0168 61.6582 93.2367 61.7642 93.5215 61.7642ZM95.7466 62L95.8081 61.7026L97.5581 60.1201C97.7427 59.9515 97.9181 59.7874 98.0845 59.6279C98.2508 59.4684 98.3978 59.3066 98.5254 59.1426C98.6553 58.9762 98.7567 58.8031 98.8296 58.623C98.9048 58.4408 98.9424 58.2437 98.9424 58.0317C98.9424 57.7879 98.8672 57.5954 98.7168 57.4541C98.5664 57.3105 98.3613 57.2388 98.1016 57.2388C97.9694 57.2388 97.8384 57.2559 97.7085 57.29C97.5809 57.3242 97.4533 57.3743 97.3257 57.4404C97.1981 57.5065 97.0693 57.5874 96.9395 57.6831L96.772 57.437C96.993 57.2684 97.2174 57.1419 97.4453 57.0576C97.6732 56.9733 97.901 56.9312 98.1289 56.9312C98.3704 56.9312 98.5778 56.9767 98.751 57.0679C98.9264 57.1567 99.0609 57.2809 99.1543 57.4404C99.25 57.5999 99.2979 57.7845 99.2979 57.9941C99.2979 58.2926 99.2363 58.5672 99.1133 58.8179C98.9902 59.0662 98.8148 59.3101 98.5869 59.5493C98.3613 59.7886 98.0947 60.0449 97.7871 60.3184L96.2729 61.665V61.6787H98.7612L98.6997 62H95.7466ZM99.6021 62L99.6636 61.7026L101.414 60.1201C101.598 59.9515 101.774 59.7874 101.94 59.6279C102.106 59.4684 102.253 59.3066 102.381 59.1426C102.511 58.9762 102.612 58.8031 102.685 58.623C102.76 58.4408 102.798 58.2437 102.798 58.0317C102.798 57.7879 102.723 57.5954 102.572 57.4541C102.422 57.3105 102.217 57.2388 101.957 57.2388C101.825 57.2388 101.694 57.2559 101.564 57.29C101.436 57.3242 101.309 57.3743 101.181 57.4404C101.054 57.5065 100.925 57.5874 100.795 57.6831L100.627 57.437C100.848 57.2684 101.073 57.1419 101.301 57.0576C101.529 56.9733 101.757 56.9312 101.984 56.9312C102.226 56.9312 102.433 56.9767 102.606 57.0679C102.782 57.1567 102.916 57.2809 103.01 57.4404C103.105 57.5999 103.153 57.7845 103.153 57.9941C103.153 58.2926 103.092 58.5672 102.969 58.8179C102.846 59.0662 102.67 59.3101 102.442 59.5493C102.217 59.7886 101.95 60.0449 101.643 60.3184L100.128 61.665V61.6787H102.617L102.555 62H99.6021ZM103.642 60.2705L103.71 59.9458H105.341L105.272 60.2705H103.642ZM105.645 62L105.707 61.7026L107.457 60.1201C107.641 59.9515 107.817 59.7874 107.983 59.6279C108.149 59.4684 108.296 59.3066 108.424 59.1426C108.554 58.9762 108.655 58.8031 108.728 58.623C108.803 58.4408 108.841 58.2437 108.841 58.0317C108.841 57.7879 108.766 57.5954 108.615 57.4541C108.465 57.3105 108.26 57.2388 108 57.2388C107.868 57.2388 107.737 57.2559 107.607 57.29C107.479 57.3242 107.352 57.3743 107.224 57.4404C107.097 57.5065 106.968 57.5874 106.838 57.6831L106.67 57.437C106.891 57.2684 107.116 57.1419 107.344 57.0576C107.572 56.9733 107.799 56.9312 108.027 56.9312C108.269 56.9312 108.476 56.9767 108.649 57.0679C108.825 57.1567 108.959 57.2809 109.053 57.4404C109.148 57.5999 109.196 57.7845 109.196 57.9941C109.196 58.2926 109.135 58.5672 109.012 58.8179C108.889 59.0662 108.713 59.3101 108.485 59.5493C108.26 59.7886 107.993 60.0449 107.686 60.3184L106.171 61.665V61.6787H108.66L108.598 62H105.645ZM111.1 62.0684C110.724 62.0684 110.428 61.9351 110.211 61.6685C109.995 61.4019 109.887 61.0122 109.887 60.4995C109.887 60.2534 109.903 59.9948 109.935 59.7236C109.969 59.4525 110.021 59.1836 110.092 58.917C110.162 58.6481 110.252 58.3952 110.362 58.1582C110.473 57.9189 110.604 57.707 110.755 57.5225C110.908 57.3356 111.083 57.1898 111.281 57.085C111.479 56.9779 111.702 56.9243 111.948 56.9243C112.155 56.9243 112.334 56.9585 112.484 57.0269C112.637 57.0952 112.764 57.1943 112.864 57.3242C112.964 57.4541 113.038 57.6113 113.086 57.7959C113.136 57.9782 113.161 58.1855 113.161 58.418C113.161 58.7028 113.143 58.991 113.106 59.2827C113.07 59.5721 113.014 59.8535 112.939 60.127C112.864 60.3981 112.769 60.651 112.655 60.8857C112.544 61.1204 112.411 61.3267 112.259 61.5044C112.106 61.6821 111.933 61.8211 111.739 61.9214C111.548 62.0194 111.335 62.0684 111.1 62.0684ZM111.131 61.7642C111.315 61.7642 111.484 61.7174 111.637 61.624C111.792 61.5283 111.931 61.3973 112.054 61.231C112.179 61.0646 112.288 60.8732 112.382 60.6567C112.475 60.438 112.554 60.2044 112.618 59.9561C112.681 59.7054 112.728 59.4502 112.758 59.1904C112.79 58.9284 112.806 58.672 112.806 58.4214C112.806 58.0454 112.735 57.7537 112.594 57.5464C112.452 57.3368 112.231 57.2319 111.931 57.2319C111.737 57.2319 111.56 57.2809 111.401 57.3789C111.244 57.4746 111.101 57.6068 110.974 57.7754C110.848 57.944 110.739 58.1377 110.646 58.3564C110.554 58.5729 110.478 58.8031 110.417 59.0469C110.357 59.2907 110.313 59.5368 110.283 59.7852C110.254 60.0312 110.239 60.2682 110.239 60.4961C110.239 60.9154 110.316 61.2321 110.471 61.4463C110.626 61.6582 110.846 61.7642 111.131 61.7642ZM113.356 62L113.417 61.7026L115.167 60.1201C115.352 59.9515 115.528 59.7874 115.694 59.6279C115.86 59.4684 116.007 59.3066 116.135 59.1426C116.265 58.9762 116.366 58.8031 116.439 58.623C116.514 58.4408 116.552 58.2437 116.552 58.0317C116.552 57.7879 116.477 57.5954 116.326 57.4541C116.176 57.3105 115.971 57.2388 115.711 57.2388C115.579 57.2388 115.448 57.2559 115.318 57.29C115.19 57.3242 115.063 57.3743 114.935 57.4404C114.807 57.5065 114.679 57.5874 114.549 57.6831L114.381 57.437C114.602 57.2684 114.827 57.1419 115.055 57.0576C115.283 56.9733 115.51 56.9312 115.738 56.9312C115.98 56.9312 116.187 56.9767 116.36 57.0679C116.536 57.1567 116.67 57.2809 116.764 57.4404C116.859 57.5999 116.907 57.7845 116.907 57.9941C116.907 58.2926 116.846 58.5672 116.723 58.8179C116.6 59.0662 116.424 59.3101 116.196 59.5493C115.971 59.7886 115.704 60.0449 115.396 60.3184L113.882 61.665V61.6787H116.371L116.309 62H113.356ZM119.361 62L119.631 60.7251H117.242L117.3 60.438L120.359 56.9858H120.759L120.038 60.4106H120.879L120.811 60.7251H119.966L119.696 62H119.361ZM117.7 60.4106H119.696L120.076 58.6299C120.117 58.4453 120.153 58.2801 120.185 58.1343C120.219 57.9862 120.252 57.8494 120.284 57.7241C120.318 57.5988 120.35 57.478 120.38 57.3618H120.363C120.285 57.4689 120.204 57.576 120.12 57.6831C120.036 57.7902 119.94 57.9019 119.833 58.0181L117.7 60.4106Z" fill="white"/>
<path opacity="0.9" d="M401.036 74L401.097 73.7026L402.847 72.1201C403.032 71.9515 403.207 71.7874 403.374 71.6279C403.54 71.4684 403.687 71.3066 403.814 71.1426C403.944 70.9762 404.046 70.8031 404.119 70.623C404.194 70.4408 404.231 70.2437 404.231 70.0317C404.231 69.7879 404.156 69.5954 404.006 69.4541C403.855 69.3105 403.65 69.2388 403.391 69.2388C403.258 69.2388 403.127 69.2559 402.998 69.29C402.87 69.3242 402.742 69.3743 402.615 69.4404C402.487 69.5065 402.358 69.5874 402.229 69.6831L402.061 69.437C402.282 69.2684 402.507 69.1419 402.734 69.0576C402.962 68.9733 403.19 68.9312 403.418 68.9312C403.66 68.9312 403.867 68.9767 404.04 69.0679C404.215 69.1567 404.35 69.2809 404.443 69.4404C404.539 69.5999 404.587 69.7845 404.587 69.9941C404.587 70.2926 404.525 70.5672 404.402 70.8179C404.279 71.0662 404.104 71.3101 403.876 71.5493C403.65 71.7886 403.384 72.0449 403.076 72.3184L401.562 73.665V73.6787H404.05L403.989 74H401.036ZM406.491 74.0684C406.115 74.0684 405.819 73.9351 405.602 73.6685C405.386 73.4019 405.277 73.0122 405.277 72.4995C405.277 72.2534 405.293 71.9948 405.325 71.7236C405.359 71.4525 405.412 71.1836 405.482 70.917C405.553 70.6481 405.643 70.3952 405.752 70.1582C405.864 69.9189 405.995 69.707 406.146 69.5225C406.298 69.3356 406.474 69.1898 406.672 69.085C406.87 68.9779 407.092 68.9243 407.338 68.9243C407.546 68.9243 407.725 68.9585 407.875 69.0269C408.028 69.0952 408.154 69.1943 408.254 69.3242C408.355 69.4541 408.429 69.6113 408.477 69.7959C408.527 69.9782 408.552 70.1855 408.552 70.418C408.552 70.7028 408.534 70.991 408.497 71.2827C408.461 71.5721 408.405 71.8535 408.33 72.127C408.254 72.3981 408.16 72.651 408.046 72.8857C407.934 73.1204 407.802 73.3267 407.649 73.5044C407.497 73.6821 407.324 73.8211 407.13 73.9214C406.938 74.0194 406.725 74.0684 406.491 74.0684ZM406.521 73.7642C406.706 73.7642 406.875 73.7174 407.027 73.624C407.182 73.5283 407.321 73.3973 407.444 73.231C407.57 73.0646 407.679 72.8732 407.772 72.6567C407.866 72.438 407.944 72.2044 408.008 71.9561C408.072 71.7054 408.119 71.4502 408.148 71.1904C408.18 70.9284 408.196 70.672 408.196 70.4214C408.196 70.0454 408.126 69.7537 407.984 69.5464C407.843 69.3368 407.622 69.2319 407.321 69.2319C407.128 69.2319 406.951 69.2809 406.792 69.3789C406.634 69.4746 406.492 69.6068 406.364 69.7754C406.239 69.944 406.13 70.1377 406.036 70.3564C405.945 70.5729 405.869 70.8031 405.807 71.0469C405.748 71.2907 405.703 71.5368 405.674 71.7852C405.644 72.0312 405.629 72.2682 405.629 72.4961C405.629 72.9154 405.707 73.2321 405.862 73.4463C406.017 73.6582 406.237 73.7642 406.521 73.7642ZM408.747 74L408.808 73.7026L410.558 72.1201C410.743 71.9515 410.918 71.7874 411.084 71.6279C411.251 71.4684 411.398 71.3066 411.525 71.1426C411.655 70.9762 411.757 70.8031 411.83 70.623C411.905 70.4408 411.942 70.2437 411.942 70.0317C411.942 69.7879 411.867 69.5954 411.717 69.4541C411.566 69.3105 411.361 69.2388 411.102 69.2388C410.969 69.2388 410.838 69.2559 410.708 69.29C410.581 69.3242 410.453 69.3743 410.326 69.4404C410.198 69.5065 410.069 69.5874 409.939 69.6831L409.772 69.437C409.993 69.2684 410.217 69.1419 410.445 69.0576C410.673 68.9733 410.901 68.9312 411.129 68.9312C411.37 68.9312 411.578 68.9767 411.751 69.0679C411.926 69.1567 412.061 69.2809 412.154 69.4404C412.25 69.5999 412.298 69.7845 412.298 69.9941C412.298 70.2926 412.236 70.5672 412.113 70.8179C411.99 71.0662 411.815 71.3101 411.587 71.5493C411.361 71.7886 411.095 72.0449 410.787 72.3184L409.273 73.665V73.6787H411.761L411.7 74H408.747ZM413.976 74.0684C413.821 74.0684 413.672 74.057 413.528 74.0342C413.385 74.0114 413.253 73.9784 413.132 73.9351C413.011 73.8918 412.905 73.8416 412.814 73.7847V73.4292C412.958 73.5272 413.133 73.6081 413.34 73.6719C413.55 73.7357 413.765 73.7676 413.986 73.7676C414.216 73.7676 414.427 73.7357 414.619 73.6719C414.81 73.6058 414.975 73.5101 415.114 73.3848C415.253 73.2594 415.36 73.1068 415.436 72.9268C415.511 72.7445 415.548 72.536 415.548 72.3013C415.548 71.9891 415.455 71.7407 415.268 71.5562C415.083 71.3716 414.821 71.2793 414.482 71.2793C414.302 71.2793 414.142 71.293 414.003 71.3203C413.864 71.3454 413.712 71.3807 413.545 71.4263L413.381 71.2896L414.058 69.0029H416.307L416.242 69.3242H414.294L413.764 71.0947C413.867 71.0674 413.982 71.0423 414.109 71.0195C414.237 70.9967 414.39 70.9854 414.567 70.9854C414.836 70.9854 415.071 71.0389 415.271 71.146C415.472 71.2508 415.628 71.3989 415.74 71.5903C415.851 71.7817 415.907 72.0073 415.907 72.2671C415.907 72.536 415.863 72.7809 415.774 73.002C415.685 73.2207 415.556 73.4098 415.388 73.5693C415.221 73.7288 415.019 73.8519 414.779 73.9385C414.542 74.0251 414.275 74.0684 413.976 74.0684ZM416.642 72.2705L416.71 71.9458H418.341L418.272 72.2705H416.642ZM418.645 74L418.707 73.7026L420.457 72.1201C420.641 71.9515 420.817 71.7874 420.983 71.6279C421.149 71.4684 421.296 71.3066 421.424 71.1426C421.554 70.9762 421.655 70.8031 421.728 70.623C421.803 70.4408 421.841 70.2437 421.841 70.0317C421.841 69.7879 421.766 69.5954 421.615 69.4541C421.465 69.3105 421.26 69.2388 421 69.2388C420.868 69.2388 420.737 69.2559 420.607 69.29C420.479 69.3242 420.352 69.3743 420.224 69.4404C420.097 69.5065 419.968 69.5874 419.838 69.6831L419.67 69.437C419.891 69.2684 420.116 69.1419 420.344 69.0576C420.572 68.9733 420.799 68.9312 421.027 68.9312C421.269 68.9312 421.476 68.9767 421.649 69.0679C421.825 69.1567 421.959 69.2809 422.053 69.4404C422.148 69.5999 422.196 69.7845 422.196 69.9941C422.196 70.2926 422.135 70.5672 422.012 70.8179C421.889 71.0662 421.713 71.3101 421.485 71.5493C421.26 71.7886 420.993 72.0449 420.686 72.3184L419.171 73.665V73.6787H421.66L421.598 74H418.645ZM424.1 74.0684C423.724 74.0684 423.428 73.9351 423.211 73.6685C422.995 73.4019 422.887 73.0122 422.887 72.4995C422.887 72.2534 422.903 71.9948 422.935 71.7236C422.969 71.4525 423.021 71.1836 423.092 70.917C423.162 70.6481 423.252 70.3952 423.362 70.1582C423.473 69.9189 423.604 69.707 423.755 69.5225C423.908 69.3356 424.083 69.1898 424.281 69.085C424.479 68.9779 424.702 68.9243 424.948 68.9243C425.155 68.9243 425.334 68.9585 425.484 69.0269C425.637 69.0952 425.764 69.1943 425.864 69.3242C425.964 69.4541 426.038 69.6113 426.086 69.7959C426.136 69.9782 426.161 70.1855 426.161 70.418C426.161 70.7028 426.143 70.991 426.106 71.2827C426.07 71.5721 426.014 71.8535 425.939 72.127C425.864 72.3981 425.769 72.651 425.655 72.8857C425.544 73.1204 425.411 73.3267 425.259 73.5044C425.106 73.6821 424.933 73.8211 424.739 73.9214C424.548 74.0194 424.335 74.0684 424.1 74.0684ZM424.131 73.7642C424.315 73.7642 424.484 73.7174 424.637 73.624C424.792 73.5283 424.931 73.3973 425.054 73.231C425.179 73.0646 425.288 72.8732 425.382 72.6567C425.475 72.438 425.554 72.2044 425.618 71.9561C425.681 71.7054 425.728 71.4502 425.758 71.1904C425.79 70.9284 425.806 70.672 425.806 70.4214C425.806 70.0454 425.735 69.7537 425.594 69.5464C425.452 69.3368 425.231 69.2319 424.931 69.2319C424.737 69.2319 424.56 69.2809 424.401 69.3789C424.244 69.4746 424.101 69.6068 423.974 69.7754C423.848 69.944 423.739 70.1377 423.646 70.3564C423.554 70.5729 423.478 70.8031 423.417 71.0469C423.357 71.2907 423.313 71.5368 423.283 71.7852C423.254 72.0312 423.239 72.2682 423.239 72.4961C423.239 72.9154 423.316 73.2321 423.471 73.4463C423.626 73.6582 423.846 73.7642 424.131 73.7642ZM426.356 74L426.417 73.7026L428.167 72.1201C428.352 71.9515 428.528 71.7874 428.694 71.6279C428.86 71.4684 429.007 71.3066 429.135 71.1426C429.265 70.9762 429.366 70.8031 429.439 70.623C429.514 70.4408 429.552 70.2437 429.552 70.0317C429.552 69.7879 429.477 69.5954 429.326 69.4541C429.176 69.3105 428.971 69.2388 428.711 69.2388C428.579 69.2388 428.448 69.2559 428.318 69.29C428.19 69.3242 428.063 69.3743 427.935 69.4404C427.807 69.5065 427.679 69.5874 427.549 69.6831L427.381 69.437C427.602 69.2684 427.827 69.1419 428.055 69.0576C428.283 68.9733 428.51 68.9312 428.738 68.9312C428.98 68.9312 429.187 68.9767 429.36 69.0679C429.536 69.1567 429.67 69.2809 429.764 69.4404C429.859 69.5999 429.907 69.7845 429.907 69.9941C429.907 70.2926 429.846 70.5672 429.723 70.8179C429.6 71.0662 429.424 71.3101 429.196 71.5493C428.971 71.7886 428.704 72.0449 428.396 72.3184L426.882 73.665V73.6787H429.371L429.309 74H426.356ZM430.871 74L433.646 69.314H431.001L431.062 69.0029H434.094L434.046 69.2593L431.261 74H430.871Z" fill="white"/>
<path opacity="0.9" d="M223.036 300L223.097 299.703L224.847 298.12C225.032 297.951 225.207 297.787 225.374 297.628C225.54 297.468 225.687 297.307 225.814 297.143C225.944 296.976 226.046 296.803 226.119 296.623C226.194 296.441 226.231 296.244 226.231 296.032C226.231 295.788 226.156 295.595 226.006 295.454C225.855 295.311 225.65 295.239 225.391 295.239C225.258 295.239 225.127 295.256 224.998 295.29C224.87 295.324 224.742 295.374 224.615 295.44C224.487 295.507 224.358 295.587 224.229 295.683L224.061 295.437C224.282 295.268 224.507 295.142 224.734 295.058C224.962 294.973 225.19 294.931 225.418 294.931C225.66 294.931 225.867 294.977 226.04 295.068C226.215 295.157 226.35 295.281 226.443 295.44C226.539 295.6 226.587 295.785 226.587 295.994C226.587 296.293 226.525 296.567 226.402 296.818C226.279 297.066 226.104 297.31 225.876 297.549C225.65 297.789 225.384 298.045 225.076 298.318L223.562 299.665V299.679H226.05L225.989 300H223.036ZM228.491 300.068C228.115 300.068 227.819 299.935 227.602 299.668C227.386 299.402 227.277 299.012 227.277 298.5C227.277 298.253 227.293 297.995 227.325 297.724C227.359 297.452 227.412 297.184 227.482 296.917C227.553 296.648 227.643 296.395 227.752 296.158C227.864 295.919 227.995 295.707 228.146 295.522C228.298 295.336 228.474 295.19 228.672 295.085C228.87 294.978 229.092 294.924 229.338 294.924C229.546 294.924 229.725 294.958 229.875 295.027C230.028 295.095 230.154 295.194 230.254 295.324C230.355 295.454 230.429 295.611 230.477 295.796C230.527 295.978 230.552 296.186 230.552 296.418C230.552 296.703 230.534 296.991 230.497 297.283C230.461 297.572 230.405 297.854 230.33 298.127C230.254 298.398 230.16 298.651 230.046 298.886C229.934 299.12 229.802 299.327 229.649 299.504C229.497 299.682 229.324 299.821 229.13 299.921C228.938 300.019 228.725 300.068 228.491 300.068ZM228.521 299.764C228.706 299.764 228.875 299.717 229.027 299.624C229.182 299.528 229.321 299.397 229.444 299.231C229.57 299.065 229.679 298.873 229.772 298.657C229.866 298.438 229.944 298.204 230.008 297.956C230.072 297.705 230.119 297.45 230.148 297.19C230.18 296.928 230.196 296.672 230.196 296.421C230.196 296.045 230.126 295.754 229.984 295.546C229.843 295.337 229.622 295.232 229.321 295.232C229.128 295.232 228.951 295.281 228.792 295.379C228.634 295.475 228.492 295.607 228.364 295.775C228.239 295.944 228.13 296.138 228.036 296.356C227.945 296.573 227.869 296.803 227.807 297.047C227.748 297.291 227.703 297.537 227.674 297.785C227.644 298.031 227.629 298.268 227.629 298.496C227.629 298.915 227.707 299.232 227.862 299.446C228.017 299.658 228.237 299.764 228.521 299.764ZM230.747 300L230.808 299.703L232.558 298.12C232.743 297.951 232.918 297.787 233.084 297.628C233.251 297.468 233.398 297.307 233.525 297.143C233.655 296.976 233.757 296.803 233.83 296.623C233.905 296.441 233.942 296.244 233.942 296.032C233.942 295.788 233.867 295.595 233.717 295.454C233.566 295.311 233.361 295.239 233.102 295.239C232.969 295.239 232.838 295.256 232.708 295.29C232.581 295.324 232.453 295.374 232.326 295.44C232.198 295.507 232.069 295.587 231.939 295.683L231.772 295.437C231.993 295.268 232.217 295.142 232.445 295.058C232.673 294.973 232.901 294.931 233.129 294.931C233.37 294.931 233.578 294.977 233.751 295.068C233.926 295.157 234.061 295.281 234.154 295.44C234.25 295.6 234.298 295.785 234.298 295.994C234.298 296.293 234.236 296.567 234.113 296.818C233.99 297.066 233.815 297.31 233.587 297.549C233.361 297.789 233.095 298.045 232.787 298.318L231.273 299.665V299.679H233.761L233.7 300H230.747ZM236.752 300L237.022 298.725H234.633L234.691 298.438L237.75 294.986H238.15L237.429 298.411H238.27L238.201 298.725H237.357L237.087 300H236.752ZM235.091 298.411H237.087L237.466 296.63C237.507 296.445 237.544 296.28 237.576 296.134C237.61 295.986 237.643 295.849 237.675 295.724C237.709 295.599 237.741 295.478 237.771 295.362H237.753C237.676 295.469 237.595 295.576 237.511 295.683C237.426 295.79 237.331 295.902 237.224 296.018L235.091 298.411ZM238.642 298.271L238.71 297.946H240.341L240.272 298.271H238.642ZM240.645 300L240.707 299.703L242.457 298.12C242.641 297.951 242.817 297.787 242.983 297.628C243.149 297.468 243.296 297.307 243.424 297.143C243.554 296.976 243.655 296.803 243.728 296.623C243.803 296.441 243.841 296.244 243.841 296.032C243.841 295.788 243.766 295.595 243.615 295.454C243.465 295.311 243.26 295.239 243 295.239C242.868 295.239 242.737 295.256 242.607 295.29C242.479 295.324 242.352 295.374 242.224 295.44C242.097 295.507 241.968 295.587 241.838 295.683L241.67 295.437C241.891 295.268 242.116 295.142 242.344 295.058C242.572 294.973 242.799 294.931 243.027 294.931C243.269 294.931 243.476 294.977 243.649 295.068C243.825 295.157 243.959 295.281 244.053 295.44C244.148 295.6 244.196 295.785 244.196 295.994C244.196 296.293 244.135 296.567 244.012 296.818C243.889 297.066 243.713 297.31 243.485 297.549C243.26 297.789 242.993 298.045 242.686 298.318L241.171 299.665V299.679H243.66L243.598 300H240.645ZM246.1 300.068C245.724 300.068 245.428 299.935 245.211 299.668C244.995 299.402 244.887 299.012 244.887 298.5C244.887 298.253 244.903 297.995 244.935 297.724C244.969 297.452 245.021 297.184 245.092 296.917C245.162 296.648 245.252 296.395 245.362 296.158C245.473 295.919 245.604 295.707 245.755 295.522C245.908 295.336 246.083 295.19 246.281 295.085C246.479 294.978 246.702 294.924 246.948 294.924C247.155 294.924 247.334 294.958 247.484 295.027C247.637 295.095 247.764 295.194 247.864 295.324C247.964 295.454 248.038 295.611 248.086 295.796C248.136 295.978 248.161 296.186 248.161 296.418C248.161 296.703 248.143 296.991 248.106 297.283C248.07 297.572 248.014 297.854 247.939 298.127C247.864 298.398 247.769 298.651 247.655 298.886C247.544 299.12 247.411 299.327 247.259 299.504C247.106 299.682 246.933 299.821 246.739 299.921C246.548 300.019 246.335 300.068 246.1 300.068ZM246.131 299.764C246.315 299.764 246.484 299.717 246.637 299.624C246.792 299.528 246.931 299.397 247.054 299.231C247.179 299.065 247.288 298.873 247.382 298.657C247.475 298.438 247.554 298.204 247.618 297.956C247.681 297.705 247.728 297.45 247.758 297.19C247.79 296.928 247.806 296.672 247.806 296.421C247.806 296.045 247.735 295.754 247.594 295.546C247.452 295.337 247.231 295.232 246.931 295.232C246.737 295.232 246.56 295.281 246.401 295.379C246.244 295.475 246.101 295.607 245.974 295.775C245.848 295.944 245.739 296.138 245.646 296.356C245.554 296.573 245.478 296.803 245.417 297.047C245.357 297.291 245.313 297.537 245.283 297.785C245.254 298.031 245.239 298.268 245.239 298.496C245.239 298.915 245.316 299.232 245.471 299.446C245.626 299.658 245.846 299.764 246.131 299.764ZM248.356 300L248.417 299.703L250.167 298.12C250.352 297.951 250.528 297.787 250.694 297.628C250.86 297.468 251.007 297.307 251.135 297.143C251.265 296.976 251.366 296.803 251.439 296.623C251.514 296.441 251.552 296.244 251.552 296.032C251.552 295.788 251.477 295.595 251.326 295.454C251.176 295.311 250.971 295.239 250.711 295.239C250.579 295.239 250.448 295.256 250.318 295.29C250.19 295.324 250.063 295.374 249.935 295.44C249.807 295.507 249.679 295.587 249.549 295.683L249.381 295.437C249.602 295.268 249.827 295.142 250.055 295.058C250.283 294.973 250.51 294.931 250.738 294.931C250.98 294.931 251.187 294.977 251.36 295.068C251.536 295.157 251.67 295.281 251.764 295.44C251.859 295.6 251.907 295.785 251.907 295.994C251.907 296.293 251.846 296.567 251.723 296.818C251.6 297.066 251.424 297.31 251.196 297.549C250.971 297.789 250.704 298.045 250.396 298.318L248.882 299.665V299.679H251.371L251.309 300H248.356ZM253.585 300.068C253.431 300.068 253.281 300.057 253.138 300.034C252.994 300.011 252.862 299.978 252.741 299.935C252.62 299.892 252.514 299.842 252.423 299.785V299.429C252.567 299.527 252.742 299.608 252.95 299.672C253.159 299.736 253.375 299.768 253.596 299.768C253.826 299.768 254.037 299.736 254.228 299.672C254.419 299.606 254.585 299.51 254.724 299.385C254.863 299.259 254.97 299.107 255.045 298.927C255.12 298.744 255.158 298.536 255.158 298.301C255.158 297.989 255.064 297.741 254.877 297.556C254.693 297.372 254.431 297.279 254.091 297.279C253.911 297.279 253.752 297.293 253.613 297.32C253.474 297.345 253.321 297.381 253.155 297.426L252.991 297.29L253.667 295.003H255.917L255.852 295.324H253.903L253.374 297.095C253.476 297.067 253.591 297.042 253.719 297.02C253.846 296.997 253.999 296.985 254.177 296.985C254.446 296.985 254.68 297.039 254.881 297.146C255.081 297.251 255.237 297.399 255.349 297.59C255.461 297.782 255.517 298.007 255.517 298.267C255.517 298.536 255.472 298.781 255.383 299.002C255.294 299.221 255.166 299.41 254.997 299.569C254.831 299.729 254.628 299.852 254.389 299.938C254.152 300.025 253.884 300.068 253.585 300.068Z" fill="white"/>
<path opacity="0.9" d="M186.084 270.575H187.904C188.707 270.575 189.31 270.695 189.714 270.936C190.119 271.176 190.321 271.584 190.321 272.162C190.321 272.411 190.272 272.635 190.176 272.834C190.082 273.03 189.944 273.193 189.763 273.322C189.581 273.451 189.357 273.54 189.09 273.59V273.634C189.372 273.678 189.621 273.758 189.837 273.875C190.054 273.993 190.224 274.157 190.347 274.368C190.47 274.579 190.532 274.847 190.532 275.172C190.532 275.567 190.439 275.901 190.255 276.174C190.073 276.446 189.815 276.653 189.481 276.793C189.147 276.931 188.752 277 188.295 277H186.084V270.575ZM186.832 273.331H188.062C188.622 273.331 189.008 273.238 189.222 273.054C189.439 272.869 189.547 272.6 189.547 272.245C189.547 271.879 189.418 271.615 189.161 271.454C188.906 271.293 188.499 271.212 187.939 271.212H186.832V273.331ZM186.832 273.959V276.363H188.167C188.739 276.363 189.143 276.251 189.38 276.029C189.618 275.803 189.736 275.5 189.736 275.119C189.736 274.876 189.682 274.668 189.574 274.495C189.468 274.322 189.295 274.19 189.055 274.1C188.818 274.006 188.5 273.959 188.102 273.959H186.832ZM195.933 277L195.142 274.961H192.566L191.78 277H191.024L193.538 270.549H194.21L196.706 277H195.933ZM194.917 274.297L194.166 272.271C194.148 272.219 194.119 272.132 194.078 272.012C194.04 271.892 194 271.768 193.959 271.639C193.918 271.51 193.885 271.406 193.858 271.327C193.829 271.447 193.797 271.567 193.762 271.687C193.729 271.804 193.697 271.914 193.665 272.017C193.633 272.116 193.605 272.201 193.582 272.271L192.817 274.297H194.917ZM200.345 271.142C199.99 271.142 199.671 271.204 199.387 271.327C199.105 271.447 198.865 271.623 198.666 271.854C198.47 272.083 198.319 272.359 198.213 272.685C198.108 273.01 198.055 273.376 198.055 273.783C198.055 274.322 198.139 274.791 198.306 275.189C198.476 275.585 198.728 275.891 199.062 276.108C199.398 276.325 199.819 276.433 200.323 276.433C200.61 276.433 200.879 276.41 201.131 276.363C201.386 276.313 201.634 276.251 201.874 276.178V276.829C201.64 276.917 201.394 276.981 201.136 277.022C200.878 277.066 200.572 277.088 200.217 277.088C199.564 277.088 199.018 276.953 198.578 276.684C198.142 276.411 197.813 276.027 197.594 275.532C197.377 275.037 197.269 274.453 197.269 273.779C197.269 273.292 197.336 272.849 197.471 272.447C197.608 272.043 197.808 271.694 198.068 271.401C198.332 271.108 198.654 270.883 199.035 270.725C199.419 270.563 199.858 270.483 200.354 270.483C200.679 270.483 200.992 270.515 201.294 270.58C201.596 270.644 201.868 270.736 202.111 270.856L201.812 271.489C201.607 271.396 201.382 271.315 201.136 271.248C200.893 271.177 200.629 271.142 200.345 271.142ZM207.591 273.528H209.402V274.126H207.591V275.989H206.989V274.126H205.179V273.528H206.989V271.656H207.591V273.528ZM214.293 272.074C214.293 272.361 214.237 272.61 214.126 272.821C214.015 273.032 213.859 273.205 213.66 273.339C213.461 273.471 213.227 273.563 212.957 273.616V273.651C213.467 273.716 213.849 273.88 214.104 274.144C214.362 274.407 214.491 274.753 214.491 275.181C214.491 275.553 214.403 275.882 214.227 276.169C214.054 276.457 213.788 276.682 213.427 276.846C213.07 277.007 212.611 277.088 212.052 277.088C211.712 277.088 211.397 277.06 211.107 277.004C210.82 276.952 210.544 276.862 210.281 276.736V276.051C210.547 276.183 210.837 276.287 211.151 276.363C211.464 276.436 211.768 276.473 212.061 276.473C212.646 276.473 213.07 276.357 213.331 276.125C213.591 275.891 213.722 275.572 213.722 275.167C213.722 274.889 213.648 274.665 213.502 274.495C213.358 274.322 213.15 274.196 212.878 274.117C212.608 274.035 212.283 273.994 211.902 273.994H211.261V273.37H211.907C212.255 273.37 212.551 273.319 212.794 273.216C213.038 273.114 213.222 272.97 213.348 272.786C213.477 272.598 213.542 272.377 213.542 272.122C213.542 271.797 213.433 271.546 213.216 271.371C213 271.192 212.705 271.103 212.333 271.103C212.104 271.103 211.896 271.126 211.709 271.173C211.521 271.22 211.346 271.284 211.182 271.366C211.018 271.448 210.854 271.543 210.689 271.652L210.32 271.151C210.555 270.969 210.84 270.812 211.177 270.681C211.514 270.549 211.896 270.483 212.324 270.483C212.98 270.483 213.473 270.632 213.801 270.931C214.129 271.23 214.293 271.611 214.293 272.074ZM215.686 276.543C215.686 276.338 215.736 276.193 215.835 276.108C215.935 276.02 216.057 275.976 216.2 275.976C216.35 275.976 216.476 276.02 216.578 276.108C216.681 276.193 216.732 276.338 216.732 276.543C216.732 276.745 216.681 276.893 216.578 276.987C216.476 277.078 216.35 277.123 216.2 277.123C216.057 277.123 215.935 277.078 215.835 276.987C215.736 276.893 215.686 276.745 215.686 276.543ZM215.686 272.645C215.686 272.434 215.736 272.286 215.835 272.201C215.935 272.113 216.057 272.069 216.2 272.069C216.35 272.069 216.476 272.113 216.578 272.201C216.681 272.286 216.732 272.434 216.732 272.645C216.732 272.844 216.681 272.989 216.578 273.08C216.476 273.171 216.35 273.216 216.2 273.216C216.057 273.216 215.935 273.171 215.835 273.08C215.736 272.989 215.686 272.844 215.686 272.645ZM225.71 273.726C225.71 274.45 225.578 275.055 225.314 275.541C225.051 276.024 224.668 276.389 224.167 276.635C223.669 276.878 223.064 277 222.353 277H220.608V270.575H222.546C223.199 270.575 223.762 270.695 224.233 270.936C224.705 271.173 225.068 271.526 225.323 271.995C225.581 272.46 225.71 273.038 225.71 273.726ZM224.923 273.752C224.923 273.175 224.827 272.699 224.633 272.324C224.443 271.949 224.162 271.671 223.79 271.489C223.42 271.305 222.968 271.212 222.432 271.212H221.355V276.358H222.265C223.149 276.358 223.813 276.14 224.255 275.704C224.701 275.267 224.923 274.617 224.923 273.752ZM228.883 272.096C229.293 272.096 229.645 272.187 229.938 272.368C230.23 272.55 230.455 272.805 230.61 273.133C230.765 273.458 230.843 273.839 230.843 274.275V274.728H227.516C227.525 275.293 227.666 275.724 227.938 276.02C228.21 276.316 228.594 276.464 229.089 276.464C229.394 276.464 229.664 276.436 229.898 276.38C230.132 276.325 230.375 276.243 230.627 276.134V276.776C230.384 276.884 230.143 276.963 229.902 277.013C229.665 277.063 229.384 277.088 229.059 277.088C228.596 277.088 228.191 276.994 227.846 276.807C227.503 276.616 227.236 276.338 227.046 275.972C226.855 275.605 226.76 275.157 226.76 274.627C226.76 274.108 226.847 273.66 227.02 273.282C227.195 272.901 227.441 272.608 227.758 272.403C228.077 272.198 228.452 272.096 228.883 272.096ZM228.874 272.693C228.484 272.693 228.174 272.821 227.942 273.076C227.711 273.331 227.573 273.687 227.529 274.144H230.078C230.075 273.856 230.03 273.604 229.942 273.388C229.857 273.168 229.727 272.998 229.551 272.878C229.375 272.755 229.149 272.693 228.874 272.693ZM230.091 270.105V270.193C230.033 270.278 229.952 270.38 229.85 270.5C229.75 270.618 229.639 270.742 229.516 270.874C229.393 271.003 229.268 271.126 229.142 271.243C229.019 271.36 228.905 271.461 228.799 271.546H228.312V271.441C228.405 271.33 228.508 271.196 228.619 271.041C228.73 270.883 228.839 270.722 228.944 270.558C229.05 270.391 229.138 270.24 229.208 270.105H230.091ZM233.141 277L231.313 272.184H232.095L233.154 275.097C233.228 275.296 233.302 275.516 233.378 275.756C233.455 275.997 233.507 276.19 233.537 276.336H233.567C233.603 276.19 233.661 275.997 233.743 275.756C233.825 275.513 233.9 275.293 233.967 275.097L235.026 272.184H235.809L233.976 277H233.141ZM238.437 272.096C238.847 272.096 239.198 272.187 239.491 272.368C239.784 272.55 240.008 272.805 240.164 273.133C240.319 273.458 240.396 273.839 240.396 274.275V274.728H237.07C237.079 275.293 237.219 275.724 237.492 276.02C237.764 276.316 238.148 276.464 238.643 276.464C238.948 276.464 239.217 276.436 239.452 276.38C239.686 276.325 239.929 276.243 240.181 276.134V276.776C239.938 276.884 239.696 276.963 239.456 277.013C239.219 277.063 238.938 277.088 238.612 277.088C238.149 277.088 237.745 276.994 237.399 276.807C237.057 276.616 236.79 276.338 236.6 275.972C236.409 275.605 236.314 275.157 236.314 274.627C236.314 274.108 236.4 273.66 236.573 273.282C236.749 272.901 236.995 272.608 237.312 272.403C237.631 272.198 238.006 272.096 238.437 272.096ZM238.428 272.693C238.038 272.693 237.728 272.821 237.496 273.076C237.265 273.331 237.127 273.687 237.083 274.144H239.632C239.629 273.856 239.583 273.604 239.496 273.388C239.411 273.168 239.28 272.998 239.104 272.878C238.929 272.755 238.703 272.693 238.428 272.693ZM242.37 277H241.636V270.162H242.37V277ZM248.065 274.583C248.065 274.979 248.014 275.332 247.911 275.642C247.809 275.953 247.661 276.215 247.467 276.429C247.274 276.643 247.04 276.807 246.764 276.921C246.492 277.032 246.183 277.088 245.837 277.088C245.515 277.088 245.219 277.032 244.949 276.921C244.683 276.807 244.451 276.643 244.255 276.429C244.062 276.215 243.911 275.953 243.802 275.642C243.697 275.332 243.644 274.979 243.644 274.583C243.644 274.056 243.733 273.607 243.912 273.238C244.091 272.866 244.346 272.583 244.677 272.39C245.011 272.194 245.408 272.096 245.868 272.096C246.307 272.096 246.691 272.194 247.019 272.39C247.35 272.586 247.606 272.871 247.788 273.243C247.973 273.612 248.065 274.059 248.065 274.583ZM244.4 274.583C244.4 274.97 244.451 275.305 244.554 275.589C244.656 275.874 244.814 276.093 245.028 276.249C245.242 276.404 245.518 276.481 245.854 276.481C246.188 276.481 246.462 276.404 246.676 276.249C246.893 276.093 247.053 275.874 247.155 275.589C247.258 275.305 247.309 274.97 247.309 274.583C247.309 274.199 247.258 273.868 247.155 273.59C247.053 273.309 246.895 273.092 246.681 272.939C246.467 272.787 246.19 272.711 245.85 272.711C245.349 272.711 244.981 272.876 244.747 273.208C244.516 273.539 244.4 273.997 244.4 274.583ZM251.589 272.096C252.19 272.096 252.669 272.302 253.026 272.715C253.384 273.128 253.562 273.75 253.562 274.579C253.562 275.126 253.48 275.586 253.316 275.958C253.152 276.331 252.921 276.612 252.622 276.802C252.326 276.993 251.976 277.088 251.572 277.088C251.317 277.088 251.093 277.054 250.899 276.987C250.706 276.919 250.541 276.829 250.403 276.714C250.265 276.6 250.151 276.476 250.06 276.341H250.007C250.016 276.455 250.026 276.593 250.038 276.754C250.053 276.915 250.06 277.056 250.06 277.176V279.153H249.326V272.184H249.928L250.025 272.896H250.06C250.154 272.749 250.268 272.616 250.403 272.496C250.538 272.373 250.702 272.276 250.895 272.206C251.091 272.132 251.323 272.096 251.589 272.096ZM251.462 272.711C251.128 272.711 250.858 272.775 250.653 272.904C250.451 273.033 250.303 273.227 250.209 273.484C250.116 273.739 250.066 274.06 250.06 274.447V274.587C250.06 274.995 250.104 275.339 250.192 275.62C250.283 275.901 250.431 276.115 250.636 276.262C250.844 276.408 251.122 276.481 251.471 276.481C251.77 276.481 252.019 276.401 252.218 276.24C252.417 276.079 252.565 275.854 252.662 275.567C252.761 275.277 252.811 274.945 252.811 274.57C252.811 274.001 252.7 273.55 252.477 273.216C252.257 272.879 251.919 272.711 251.462 272.711ZM257.1 272.096C257.701 272.096 258.18 272.302 258.537 272.715C258.895 273.128 259.073 273.75 259.073 274.579C259.073 275.126 258.991 275.586 258.827 275.958C258.663 276.331 258.432 276.612 258.133 276.802C257.837 276.993 257.487 277.088 257.083 277.088C256.828 277.088 256.604 277.054 256.41 276.987C256.217 276.919 256.051 276.829 255.914 276.714C255.776 276.6 255.662 276.476 255.571 276.341H255.518C255.527 276.455 255.537 276.593 255.549 276.754C255.563 276.915 255.571 277.056 255.571 277.176V279.153H254.837V272.184H255.439L255.536 272.896H255.571C255.665 272.749 255.779 272.616 255.914 272.496C256.048 272.373 256.212 272.276 256.406 272.206C256.602 272.132 256.833 272.096 257.1 272.096ZM256.973 272.711C256.639 272.711 256.369 272.775 256.164 272.904C255.962 273.033 255.814 273.227 255.72 273.484C255.626 273.739 255.577 274.06 255.571 274.447V274.587C255.571 274.995 255.615 275.339 255.703 275.62C255.793 275.901 255.941 276.115 256.146 276.262C256.354 276.408 256.633 276.481 256.981 276.481C257.28 276.481 257.529 276.401 257.729 276.24C257.928 276.079 258.076 275.854 258.172 275.567C258.272 275.277 258.322 274.945 258.322 274.57C258.322 274.001 258.21 273.55 257.988 273.216C257.768 272.879 257.43 272.711 256.973 272.711ZM262.202 272.096C262.612 272.096 262.964 272.187 263.257 272.368C263.55 272.55 263.774 272.805 263.929 273.133C264.084 273.458 264.162 273.839 264.162 274.275V274.728H260.835C260.844 275.293 260.985 275.724 261.257 276.02C261.53 276.316 261.914 276.464 262.409 276.464C262.713 276.464 262.983 276.436 263.217 276.38C263.452 276.325 263.695 276.243 263.947 276.134V276.776C263.704 276.884 263.462 276.963 263.222 277.013C262.984 277.063 262.703 277.088 262.378 277.088C261.915 277.088 261.511 276.994 261.165 276.807C260.822 276.616 260.556 276.338 260.365 275.972C260.175 275.605 260.08 275.157 260.08 274.627C260.08 274.108 260.166 273.66 260.339 273.282C260.515 272.901 260.761 272.608 261.077 272.403C261.396 272.198 261.771 272.096 262.202 272.096ZM262.193 272.693C261.804 272.693 261.493 272.821 261.262 273.076C261.03 273.331 260.893 273.687 260.849 274.144H263.397C263.395 273.856 263.349 273.604 263.261 273.388C263.176 273.168 263.046 272.998 262.87 272.878C262.694 272.755 262.469 272.693 262.193 272.693ZM269.378 272.184V277H268.781L268.675 276.323H268.636C268.536 276.49 268.407 276.631 268.249 276.745C268.091 276.859 267.912 276.944 267.713 277C267.517 277.059 267.307 277.088 267.084 277.088C266.704 277.088 266.384 277.026 266.126 276.903C265.869 276.78 265.674 276.59 265.542 276.332C265.413 276.074 265.349 275.743 265.349 275.339V272.184H266.087V275.286C266.087 275.688 266.178 275.988 266.359 276.187C266.541 276.383 266.818 276.481 267.19 276.481C267.547 276.481 267.832 276.414 268.042 276.279C268.256 276.145 268.41 275.947 268.504 275.686C268.598 275.422 268.645 275.1 268.645 274.719V272.184H269.378ZM273.109 272.096C273.206 272.096 273.307 272.102 273.413 272.113C273.518 272.122 273.612 272.135 273.694 272.153L273.602 272.83C273.522 272.809 273.435 272.793 273.338 272.781C273.241 272.77 273.15 272.764 273.065 272.764C272.872 272.764 272.689 272.803 272.516 272.882C272.346 272.958 272.197 273.07 272.068 273.216C271.939 273.36 271.838 273.534 271.765 273.739C271.691 273.941 271.655 274.167 271.655 274.416V277H270.921V272.184H271.527L271.606 273.071H271.637C271.737 272.893 271.857 272.73 271.998 272.583C272.138 272.434 272.301 272.315 272.485 272.228C272.673 272.14 272.881 272.096 273.109 272.096ZM277.798 277H277.051V270.575H280.628V271.234H277.798V273.59H280.457V274.245H277.798V277ZM285.568 272.184V277H284.97L284.865 276.323H284.825C284.726 276.49 284.597 276.631 284.438 276.745C284.28 276.859 284.102 276.944 283.902 277C283.706 277.059 283.497 277.088 283.274 277.088C282.893 277.088 282.574 277.026 282.316 276.903C282.058 276.78 281.863 276.59 281.731 276.332C281.603 276.074 281.538 275.743 281.538 275.339V272.184H282.276V275.286C282.276 275.688 282.367 275.988 282.549 276.187C282.73 276.383 283.007 276.481 283.379 276.481C283.737 276.481 284.021 276.414 284.232 276.279C284.446 276.145 284.6 275.947 284.693 275.686C284.787 275.422 284.834 275.1 284.834 274.719V272.184H285.568ZM287.844 277H287.11V270.162H287.844V277ZM290.121 277H289.387V270.162H290.121V277ZM291.254 274.908V274.258H293.434V274.908H291.254ZM232.908 287.291C232.908 287.671 232.813 287.997 232.623 288.266C232.435 288.533 232.171 288.736 231.832 288.877C231.492 289.018 231.092 289.088 230.632 289.088C230.389 289.088 230.159 289.076 229.942 289.053C229.725 289.029 229.526 288.996 229.344 288.952C229.163 288.908 229.003 288.854 228.865 288.789V288.073C229.085 288.164 229.353 288.249 229.669 288.328C229.986 288.404 230.317 288.442 230.663 288.442C230.985 288.442 231.257 288.399 231.48 288.314C231.703 288.227 231.871 288.102 231.985 287.941C232.103 287.777 232.161 287.581 232.161 287.352C232.161 287.132 232.113 286.949 232.016 286.803C231.919 286.653 231.758 286.519 231.533 286.398C231.31 286.275 231.005 286.145 230.619 286.007C230.346 285.911 230.106 285.805 229.898 285.691C229.69 285.574 229.516 285.442 229.375 285.295C229.234 285.149 229.127 284.979 229.054 284.786C228.984 284.592 228.949 284.371 228.949 284.122C228.949 283.779 229.035 283.486 229.208 283.243C229.384 282.997 229.625 282.81 229.933 282.681C230.244 282.549 230.6 282.483 231.001 282.483C231.344 282.483 231.66 282.515 231.95 282.58C232.243 282.644 232.511 282.73 232.754 282.839L232.521 283.48C232.29 283.384 232.044 283.303 231.783 283.239C231.525 283.174 231.259 283.142 230.983 283.142C230.708 283.142 230.475 283.183 230.285 283.265C230.097 283.344 229.954 283.457 229.854 283.604C229.754 283.75 229.705 283.924 229.705 284.126C229.705 284.352 229.751 284.54 229.845 284.689C229.942 284.838 230.094 284.972 230.302 285.089C230.513 285.203 230.792 285.323 231.137 285.449C231.515 285.587 231.836 285.733 232.1 285.889C232.363 286.041 232.564 286.229 232.702 286.451C232.839 286.671 232.908 286.951 232.908 287.291ZM235.668 288.49C235.788 288.49 235.911 288.48 236.037 288.459C236.163 288.439 236.266 288.414 236.345 288.385V288.952C236.26 288.99 236.141 289.022 235.989 289.048C235.839 289.075 235.693 289.088 235.549 289.088C235.294 289.088 235.063 289.044 234.855 288.956C234.647 288.865 234.48 288.713 234.354 288.499C234.231 288.285 234.169 287.989 234.169 287.611V284.755H233.484V284.399L234.174 284.113L234.464 283.067H234.903V284.184H236.314V284.755H234.903V287.589C234.903 287.891 234.972 288.117 235.11 288.266C235.25 288.416 235.437 288.49 235.668 288.49ZM239.122 284.104C239.696 284.104 240.123 284.233 240.401 284.491C240.679 284.749 240.818 285.161 240.818 285.726V289H240.287L240.146 288.288H240.111C239.976 288.464 239.835 288.612 239.689 288.732C239.542 288.849 239.373 288.938 239.179 289C238.989 289.059 238.754 289.088 238.476 289.088C238.183 289.088 237.922 289.037 237.694 288.934C237.468 288.832 237.29 288.676 237.158 288.468C237.029 288.26 236.964 287.997 236.964 287.677C236.964 287.197 237.155 286.828 237.536 286.57C237.917 286.312 238.497 286.171 239.276 286.148L240.106 286.113V285.818C240.106 285.402 240.017 285.111 239.838 284.944C239.66 284.777 239.408 284.693 239.083 284.693C238.831 284.693 238.59 284.73 238.362 284.803C238.133 284.876 237.917 284.963 237.711 285.062L237.487 284.509C237.704 284.397 237.953 284.302 238.234 284.223C238.516 284.144 238.812 284.104 239.122 284.104ZM240.098 286.627L239.364 286.658C238.763 286.681 238.34 286.779 238.094 286.952C237.848 287.125 237.725 287.37 237.725 287.686C237.725 287.961 237.808 288.165 237.975 288.297C238.142 288.429 238.363 288.495 238.639 288.495C239.066 288.495 239.417 288.376 239.689 288.139C239.961 287.901 240.098 287.545 240.098 287.071V286.627ZM244.25 289.088C243.817 289.088 243.435 288.999 243.104 288.82C242.772 288.641 242.515 288.369 242.33 288.002C242.146 287.636 242.053 287.175 242.053 286.618C242.053 286.035 242.15 285.559 242.343 285.19C242.54 284.818 242.809 284.542 243.152 284.364C243.495 284.185 243.884 284.096 244.321 284.096C244.561 284.096 244.792 284.121 245.015 284.17C245.241 284.217 245.425 284.277 245.569 284.351L245.349 284.961C245.203 284.903 245.033 284.85 244.839 284.803C244.649 284.756 244.47 284.733 244.303 284.733C243.969 284.733 243.691 284.805 243.468 284.948C243.249 285.092 243.083 285.303 242.972 285.581C242.863 285.859 242.809 286.202 242.809 286.609C242.809 286.999 242.862 287.332 242.967 287.607C243.076 287.882 243.235 288.093 243.446 288.24C243.66 288.383 243.927 288.455 244.246 288.455C244.501 288.455 244.731 288.429 244.936 288.376C245.141 288.32 245.327 288.256 245.494 288.183V288.833C245.333 288.915 245.153 288.978 244.954 289.022C244.757 289.066 244.523 289.088 244.25 289.088ZM247.362 282.162V285.713C247.362 285.83 247.357 285.974 247.349 286.144C247.34 286.311 247.333 286.458 247.327 286.587H247.357C247.419 286.511 247.508 286.398 247.625 286.249C247.746 286.1 247.847 285.979 247.929 285.889L249.528 284.184H250.385L248.447 286.24L250.526 289H249.647L247.946 286.719L247.362 287.255V289H246.637V282.162H247.362Z" fill="white"/>
<path opacity="0.9" d="M381.491 54.5752H383.311C384.113 54.5752 384.717 54.6953 385.121 54.9355C385.525 55.1758 385.728 55.5845 385.728 56.1616C385.728 56.4106 385.679 56.6348 385.583 56.834C385.489 57.0303 385.351 57.1929 385.169 57.3218C384.988 57.4507 384.764 57.54 384.497 57.5898V57.6338C384.778 57.6777 385.027 57.7583 385.244 57.8755C385.461 57.9927 385.631 58.1567 385.754 58.3677C385.877 58.5786 385.938 58.8467 385.938 59.1719C385.938 59.5674 385.846 59.9014 385.662 60.1738C385.48 60.4463 385.222 60.6528 384.888 60.7935C384.554 60.9312 384.159 61 383.702 61H381.491V54.5752ZM382.238 57.3306H383.469C384.028 57.3306 384.415 57.2383 384.629 57.0537C384.846 56.8691 384.954 56.5996 384.954 56.2451C384.954 55.8789 384.825 55.6152 384.567 55.4541C384.312 55.293 383.905 55.2124 383.346 55.2124H382.238V57.3306ZM382.238 57.959V60.3628H383.574C384.146 60.3628 384.55 60.2515 384.787 60.0288C385.024 59.8032 385.143 59.5 385.143 59.1191C385.143 58.876 385.089 58.668 384.98 58.4951C384.875 58.3223 384.702 58.1904 384.462 58.0996C384.225 58.0059 383.907 57.959 383.508 57.959H382.238ZM391.339 61L390.548 58.9609H387.973L387.187 61H386.431L388.944 54.5488H389.617L392.113 61H391.339ZM390.324 58.2974L389.573 56.2715C389.555 56.2188 389.526 56.1323 389.485 56.0122C389.447 55.8921 389.407 55.7676 389.366 55.6387C389.325 55.5098 389.292 55.4058 389.265 55.3267C389.236 55.4468 389.204 55.5669 389.168 55.687C389.136 55.8042 389.104 55.9141 389.072 56.0166C389.04 56.1162 389.012 56.2012 388.988 56.2715L388.224 58.2974H390.324ZM395.751 55.1421C395.397 55.1421 395.078 55.2036 394.793 55.3267C394.512 55.4468 394.272 55.6226 394.073 55.854C393.876 56.0825 393.726 56.3594 393.62 56.6846C393.515 57.0098 393.462 57.376 393.462 57.7832C393.462 58.3223 393.545 58.791 393.712 59.1895C393.882 59.585 394.134 59.8911 394.468 60.1079C394.805 60.3247 395.226 60.4331 395.729 60.4331C396.017 60.4331 396.286 60.4097 396.538 60.3628C396.793 60.313 397.041 60.2515 397.281 60.1782V60.8286C397.046 60.9165 396.8 60.981 396.542 61.022C396.285 61.0659 395.979 61.0879 395.624 61.0879C394.971 61.0879 394.424 60.9531 393.985 60.6836C393.548 60.4111 393.22 60.0273 393 59.5322C392.784 59.0371 392.675 58.4526 392.675 57.7788C392.675 57.2925 392.743 56.8486 392.877 56.4473C393.015 56.043 393.214 55.6943 393.475 55.4014C393.739 55.1084 394.061 54.8828 394.442 54.7246C394.826 54.5635 395.265 54.4829 395.76 54.4829C396.085 54.4829 396.399 54.5151 396.701 54.5796C397.002 54.644 397.275 54.7363 397.518 54.8564L397.219 55.4893C397.014 55.3955 396.789 55.3149 396.542 55.2476C396.299 55.1772 396.036 55.1421 395.751 55.1421ZM402.998 57.5283H404.809V58.126H402.998V59.9893H402.396V58.126H400.585V57.5283H402.396V55.6562H402.998V57.5283ZM407.757 57.0713C408.194 57.0713 408.573 57.146 408.896 57.2954C409.218 57.4419 409.467 57.6558 409.643 57.937C409.821 58.2183 409.911 58.5596 409.911 58.9609C409.911 59.4004 409.815 59.7798 409.625 60.0991C409.435 60.4155 409.161 60.6602 408.803 60.833C408.446 61.0029 408.018 61.0879 407.52 61.0879C407.186 61.0879 406.875 61.0586 406.588 61C406.301 60.9414 406.06 60.8535 405.863 60.7363V60.042C406.077 60.1709 406.336 60.2734 406.641 60.3496C406.946 60.4258 407.242 60.4639 407.529 60.4639C407.854 60.4639 408.138 60.4126 408.381 60.3101C408.627 60.2046 408.818 60.0464 408.953 59.8354C409.09 59.6216 409.159 59.3535 409.159 59.0312C409.159 58.6035 409.027 58.2739 408.764 58.0425C408.503 57.8081 408.09 57.6909 407.524 57.6909C407.343 57.6909 407.144 57.7056 406.927 57.7349C406.71 57.7642 406.531 57.7964 406.391 57.8315L406.021 57.5898L406.268 54.5752H409.462V55.2432H406.892L406.729 57.1812C406.84 57.1577 406.984 57.1343 407.16 57.1108C407.335 57.0845 407.535 57.0713 407.757 57.0713ZM411.093 60.543C411.093 60.3379 411.143 60.1929 411.242 60.1079C411.342 60.02 411.463 59.9761 411.607 59.9761C411.756 59.9761 411.882 60.02 411.985 60.1079C412.087 60.1929 412.139 60.3379 412.139 60.543C412.139 60.7451 412.087 60.8931 411.985 60.9868C411.882 61.0776 411.756 61.123 411.607 61.123C411.463 61.123 411.342 61.0776 411.242 60.9868C411.143 60.8931 411.093 60.7451 411.093 60.543ZM411.093 56.645C411.093 56.4341 411.143 56.2861 411.242 56.2012C411.342 56.1133 411.463 56.0693 411.607 56.0693C411.756 56.0693 411.882 56.1133 411.985 56.2012C412.087 56.2861 412.139 56.4341 412.139 56.645C412.139 56.8442 412.087 56.9893 411.985 57.0801C411.882 57.1709 411.756 57.2163 411.607 57.2163C411.463 57.2163 411.342 57.1709 411.242 57.0801C411.143 56.9893 411.093 56.8442 411.093 56.645ZM416.015 61V54.5752H416.762V60.332H419.614V61H416.015ZM422.461 56.0957C422.872 56.0957 423.223 56.1865 423.516 56.3682C423.809 56.5498 424.033 56.8047 424.188 57.1328C424.344 57.458 424.421 57.8389 424.421 58.2754V58.728H421.095C421.104 59.2935 421.244 59.7241 421.517 60.02C421.789 60.3159 422.173 60.4639 422.668 60.4639C422.973 60.4639 423.242 60.436 423.477 60.3804C423.711 60.3247 423.954 60.2427 424.206 60.1343V60.7759C423.963 60.8843 423.721 60.9634 423.481 61.0132C423.244 61.063 422.962 61.0879 422.637 61.0879C422.174 61.0879 421.77 60.9941 421.424 60.8066C421.082 60.6162 420.815 60.3379 420.625 59.9717C420.434 59.6055 420.339 59.1572 420.339 58.627C420.339 58.1084 420.425 57.6602 420.598 57.2822C420.774 56.9014 421.02 56.6084 421.336 56.4033C421.656 56.1982 422.031 56.0957 422.461 56.0957ZM422.453 56.6934C422.063 56.6934 421.752 56.8208 421.521 57.0757C421.29 57.3306 421.152 57.6865 421.108 58.1436H423.657C423.654 57.8564 423.608 57.6045 423.521 57.3877C423.436 57.168 423.305 56.998 423.129 56.8779C422.954 56.7549 422.728 56.6934 422.453 56.6934ZM427.462 56.1045C428.037 56.1045 428.463 56.2334 428.741 56.4912C429.02 56.749 429.159 57.1606 429.159 57.7261V61H428.627L428.486 60.2881H428.451C428.316 60.4639 428.176 60.6118 428.029 60.7319C427.883 60.8491 427.713 60.9385 427.52 61C427.329 61.0586 427.095 61.0879 426.816 61.0879C426.523 61.0879 426.263 61.0366 426.034 60.9341C425.809 60.8315 425.63 60.6763 425.498 60.4683C425.369 60.2603 425.305 59.9966 425.305 59.6772C425.305 59.1968 425.495 58.8276 425.876 58.5698C426.257 58.312 426.837 58.1714 427.616 58.1479L428.447 58.1128V57.8184C428.447 57.4023 428.357 57.1108 428.179 56.9438C428 56.7769 427.748 56.6934 427.423 56.6934C427.171 56.6934 426.931 56.73 426.702 56.8032C426.474 56.8765 426.257 56.9629 426.052 57.0625L425.828 56.5088C426.044 56.3975 426.293 56.3022 426.575 56.2231C426.856 56.144 427.152 56.1045 427.462 56.1045ZM428.438 58.627L427.704 58.6577C427.104 58.6812 426.68 58.7793 426.434 58.9521C426.188 59.125 426.065 59.3696 426.065 59.686C426.065 59.9614 426.148 60.165 426.315 60.2969C426.482 60.4287 426.704 60.4946 426.979 60.4946C427.407 60.4946 427.757 60.376 428.029 60.1387C428.302 59.9014 428.438 59.5454 428.438 59.0708V58.627ZM432.375 61.0879C431.766 61.0879 431.283 60.8799 430.925 60.4639C430.571 60.0479 430.394 59.4297 430.394 58.6094C430.394 57.7803 430.575 57.1548 430.938 56.7329C431.302 56.3081 431.785 56.0957 432.389 56.0957C432.644 56.0957 432.866 56.1294 433.057 56.1968C433.247 56.2642 433.411 56.355 433.549 56.4692C433.687 56.5806 433.802 56.708 433.896 56.8516H433.949C433.937 56.7607 433.925 56.6362 433.914 56.478C433.902 56.3198 433.896 56.1909 433.896 56.0913V54.1621H434.625V61H434.037L433.927 60.3145H433.896C433.805 60.458 433.689 60.5884 433.549 60.7056C433.411 60.8228 433.246 60.9165 433.052 60.9868C432.862 61.0542 432.636 61.0879 432.375 61.0879ZM432.49 60.4814C433.005 60.4814 433.37 60.335 433.584 60.042C433.798 59.749 433.905 59.314 433.905 58.7368V58.605C433.905 57.9927 433.802 57.5225 433.597 57.1943C433.395 56.8662 433.026 56.7021 432.49 56.7021C432.042 56.7021 431.706 56.875 431.483 57.2207C431.261 57.5635 431.149 58.0322 431.149 58.627C431.149 59.2188 431.259 59.6758 431.479 59.998C431.702 60.3203 432.039 60.4814 432.49 60.4814ZM435.764 58.9082V58.2578H437.943V58.9082H435.764ZM444.285 57.7261C444.285 58.4497 444.153 59.0547 443.889 59.541C443.625 60.0244 443.243 60.3892 442.742 60.6353C442.244 60.8784 441.639 61 440.927 61H439.183V54.5752H441.121C441.774 54.5752 442.336 54.6953 442.808 54.9355C443.28 55.1729 443.643 55.5259 443.898 55.9946C444.156 56.4604 444.285 57.0376 444.285 57.7261ZM443.498 57.7524C443.498 57.1753 443.401 56.6992 443.208 56.3242C443.018 55.9492 442.736 55.6709 442.364 55.4893C441.995 55.3047 441.542 55.2124 441.006 55.2124H439.93V60.3584H440.839C441.724 60.3584 442.388 60.1401 442.83 59.7036C443.275 59.2671 443.498 58.6167 443.498 57.7524ZM447.458 56.0957C447.868 56.0957 448.219 56.1865 448.512 56.3682C448.805 56.5498 449.029 56.8047 449.185 57.1328C449.34 57.458 449.417 57.8389 449.417 58.2754V58.728H446.091C446.1 59.2935 446.24 59.7241 446.513 60.02C446.785 60.3159 447.169 60.4639 447.664 60.4639C447.969 60.4639 448.238 60.436 448.473 60.3804C448.707 60.3247 448.95 60.2427 449.202 60.1343V60.7759C448.959 60.8843 448.717 60.9634 448.477 61.0132C448.24 61.063 447.958 61.0879 447.633 61.0879C447.17 61.0879 446.766 60.9941 446.42 60.8066C446.078 60.6162 445.811 60.3379 445.621 59.9717C445.43 59.6055 445.335 59.1572 445.335 58.627C445.335 58.1084 445.421 57.6602 445.594 57.2822C445.77 56.9014 446.016 56.6084 446.333 56.4033C446.652 56.1982 447.027 56.0957 447.458 56.0957ZM447.449 56.6934C447.059 56.6934 446.749 56.8208 446.517 57.0757C446.286 57.3306 446.148 57.6865 446.104 58.1436H448.653C448.65 57.8564 448.604 57.6045 448.517 57.3877C448.432 57.168 448.301 56.998 448.125 56.8779C447.95 56.7549 447.724 56.6934 447.449 56.6934ZM451.716 61L449.888 56.1836H450.67L451.729 59.0972C451.802 59.2964 451.877 59.5161 451.953 59.7563C452.029 59.9966 452.082 60.1899 452.111 60.3364H452.142C452.177 60.1899 452.236 59.9966 452.318 59.7563C452.4 59.5132 452.475 59.2935 452.542 59.0972L453.601 56.1836H454.383L452.551 61H451.716Z" fill="white"/>
<g clip-path="url(#clip2_0_1)">
<path d="M44.0107 161.857C44.2231 161.24 44.4996 160.456 44.809 159.643C45.9735 156.577 46.5906 155.66 46.8561 155.387C47.2534 154.975 47.746 154.698 48.2807 154.584L48.4656 154.544L50.5364 152.379L53.0156 155.339L51.0876 157.247L51.0472 157.443C50.9374 157.995 50.6682 158.504 50.2709 158.916C50.0054 159.189 49.1192 159.828 46.1529 161.031C45.3657 161.35 44.6058 161.637 44.0107 161.857Z" fill="#FFCE54"/>
<path d="M50.5676 151.431L48.1543 153.953C47.5263 154.087 46.9165 154.413 46.4149 154.932C45.1332 156.256 43 162.9 43 162.9C43 162.9 49.4287 160.697 50.7122 159.371C51.2121 158.854 51.5289 158.223 51.6588 157.573L53.8743 155.38L50.5676 151.431ZM50.7965 156.642L50.5163 156.92L50.4376 157.313C50.3515 157.741 50.141 158.139 49.8297 158.46C49.7272 158.566 49.0552 159.161 45.9297 160.429C45.6312 160.549 45.3382 160.666 45.0563 160.774C45.1625 160.483 45.2742 160.18 45.3914 159.874C46.6182 156.643 47.1931 155.949 47.2974 155.843C47.6087 155.52 47.9933 155.304 48.407 155.216L48.7769 155.136L49.0424 154.859L50.5053 153.328L52.155 155.297L50.7965 156.642Z" fill="#F6BB42"/>
<path d="M54.7131 157.635C55.0628 157.465 55.4125 157.285 55.7604 157.097L62.8794 151.843C63.1705 151.562 63.458 151.274 63.7418 150.983C63.9047 150.813 64.0677 150.643 64.227 150.47C64.1996 153.822 62.7127 157.489 59.8894 160.407C58.9483 161.379 57.9284 162.197 56.8646 162.859C56.8572 162.863 56.8151 162.889 56.8151 162.889C56.5789 163.021 56.2767 162.984 56.0771 162.778C56.0112 162.709 55.9636 162.629 55.9343 162.543C55.9343 162.543 55.9123 162.476 55.9068 162.447L54.6214 157.678C54.6527 157.664 54.682 157.649 54.7131 157.635Z" fill="#DA4453"/>
<path d="M55.1598 141.098C54.9932 141.264 54.8284 141.432 54.6636 141.601C54.3816 141.894 54.1033 142.191 53.8323 142.491C52.5854 142.673 48.7458 149.849 48.7458 149.849C48.5645 150.208 48.3906 150.569 48.2258 150.931C48.2112 150.962 48.1983 150.993 48.1837 151.025L43.5676 149.696C43.5402 149.691 43.4742 149.668 43.4742 149.668C43.3919 149.638 43.3149 149.589 43.2472 149.519C43.0476 149.313 43.0128 149.002 43.141 148.757C43.141 148.757 43.1648 148.714 43.1703 148.707C43.8093 147.608 44.6003 146.554 45.5415 145.581C48.3667 142.662 51.9152 141.125 55.1598 141.098Z" fill="#DA4453"/>
<g filter="url(#filter1_d_0_1)">
<path d="M54.5428 141.145C51.0034 144.804 48.451 148.982 47.0283 153.03C46.9532 153.257 47.0008 153.516 47.1765 153.697L52.0342 158.719C52.21 158.898 52.4608 158.949 52.6806 158.871C56.5989 157.401 60.6419 154.764 64.1813 151.106C69.6816 145.424 72.7687 138.568 72.9994 132.722C73.0067 132.548 72.9463 132.356 72.8181 132.222C72.6881 132.089 72.5032 132.027 72.3329 132.034C66.6752 132.273 60.0413 135.463 54.5428 141.145Z" fill="#E6E9ED"/>
</g>
<path d="M61.6087 146.382C60.9422 146.382 60.316 146.113 59.8454 145.627C59.3748 145.139 59.1148 144.492 59.1148 143.804C59.1148 143.115 59.3748 142.468 59.8454 141.981C60.3159 141.494 60.944 141.226 61.6087 141.226C62.2751 141.226 62.9013 141.494 63.3737 141.981C64.3461 142.986 64.3461 144.622 63.3737 145.627C62.9014 146.113 62.2751 146.382 61.6105 146.382C61.6087 146.382 61.6087 146.382 61.6087 146.382Z" fill="#434A54"/>
<path d="M56.317 151.85C55.6505 151.85 55.0243 151.582 54.5537 151.095C54.0831 150.608 53.8231 149.96 53.8231 149.273C53.8231 148.584 54.0831 147.936 54.5537 147.449C55.0243 146.962 55.6505 146.694 56.317 146.694C56.9835 146.694 57.6097 146.962 58.0821 147.449C59.0544 148.454 59.0544 150.09 58.0821 151.095C57.6097 151.582 56.9835 151.85 56.317 151.85Z" fill="#434A54"/>
<path d="M63.815 141.526C63.2254 140.917 62.4417 140.581 61.6087 140.581C60.7773 140.581 59.9937 140.917 59.4041 141.526C58.8164 142.134 58.4904 142.944 58.4904 143.804C58.4904 144.664 58.8163 145.473 59.4041 146.083C59.9937 146.691 60.7774 147.026 61.6087 147.026C62.4418 147.026 63.2254 146.691 63.815 146.083C65.0308 144.826 65.0308 142.782 63.815 141.526ZM62.9325 145.171C62.5663 145.548 62.0884 145.737 61.6087 145.737C61.1308 145.737 60.651 145.548 60.2867 145.171C59.5561 144.416 59.5561 143.192 60.2867 142.437C60.6511 142.059 61.1308 141.871 61.6087 141.871C62.0884 141.871 62.5663 142.059 62.9325 142.437C63.663 143.192 63.663 144.416 62.9325 145.171Z" fill="#CCD1D9"/>
<path d="M56.317 146.05C55.4839 146.05 54.7021 146.385 54.1124 146.994C53.5229 147.602 53.1987 148.412 53.1987 149.273C53.1987 150.133 53.5228 150.941 54.1124 151.551C54.702 152.159 55.4839 152.495 56.317 152.495C57.1502 152.495 57.9338 152.159 58.5234 151.551C59.7392 150.294 59.7392 148.25 58.5234 146.994C57.9338 146.385 57.1502 146.05 56.317 146.05ZM57.6409 150.639C57.2747 151.017 56.7967 151.205 56.317 151.205C55.8391 151.205 55.3594 151.017 54.995 150.639C54.2644 149.884 54.2644 148.66 54.995 147.905C55.3594 147.527 55.8391 147.339 56.317 147.339C56.7967 147.339 57.2747 147.527 57.6409 147.905C58.3715 148.66 58.3715 149.884 57.6409 150.639Z" fill="#CCD1D9"/>
<path d="M71.0787 140.828L64.4889 134.02C67.1732 132.814 69.8483 132.139 72.3329 132.034C72.5032 132.027 72.6881 132.089 72.8181 132.222C72.9463 132.356 73.0067 132.548 72.9994 132.722C72.8987 135.291 72.2451 138.055 71.0787 140.828Z" fill="#DA4453"/>
</g>
<defs>
<filter id="filter0_d_0_1" x="12.9999" y="102.71" width="406" height="105.79" filterUnits="userSpaceOnUse" color-interpolation-filters="sRGB">
<feFlood flood-opacity="0" result="BackgroundImageFix"/>
<feColorMatrix in="SourceAlpha" type="matrix" values="0 0 0 0 0 0 0 0 0 0 0 0 0 0 0 0 0 0 127 0" result="hardAlpha"/>
<feOffset dy="4"/>
<feGaussianBlur stdDeviation="2"/>
<feComposite in2="hardAlpha" operator="out"/>
<feColorMatrix type="matrix" values="0 0 0 0 0 0 0 0 0 0 0 0 0 0 0 0 0 0 0.25 0"/>
<feBlend mode="normal" in2="BackgroundImageFix" result="effect1_dropShadow_0_1"/>
<feBlend mode="normal" in="SourceGraphic" in2="effect1_dropShadow_0_1" result="shape"/>
</filter>
<filter id="filter1_d_0_1" x="42.994" y="132.034" width="34.006" height="34.8728" filterUnits="userSpaceOnUse" color-interpolation-filters="sRGB">
<feFlood flood-opacity="0" result="BackgroundImageFix"/>
<feColorMatrix in="SourceAlpha" type="matrix" values="0 0 0 0 0 0 0 0 0 0 0 0 0 0 0 0 0 0 127 0" result="hardAlpha"/>
<feOffset dy="4"/>
<feGaussianBlur stdDeviation="2"/>
<feComposite in2="hardAlpha" operator="out"/>
<feColorMatrix type="matrix" values="0 0 0 0 0 0 0 0 0 0 0 0 0 0 0 0 0 0 0.25 0"/>
<feBlend mode="normal" in2="BackgroundImageFix" result="effect1_dropShadow_0_1"/>
<feBlend mode="normal" in="SourceGraphic" in2="effect1_dropShadow_0_1" result="shape"/>
</filter>
<clipPath id="clip0_0_1">
<rect width="23" height="23" fill="white" transform="matrix(-1 0 0 1 23 188)"/>
</clipPath>
<clipPath id="clip1_0_1">
<rect width="22" height="23" fill="white" transform="translate(408 142)"/>
</clipPath>
<clipPath id="clip2_0_1">
<rect width="30" height="31" fill="white" transform="translate(43 132)"/>
</clipPath>
</defs>
</svg>
